<svg xmlns="http://www.w3.org/2000/svg" width="81.577" height="81.558" viewBox="0 0 81.577 81.558">
  <path id="Icon_awesome-instagram" data-name="Icon awesome-instagram" d="M40.792,22.106A20.911,20.911,0,1,0,61.7,43.017,20.877,20.877,0,0,0,40.792,22.106Zm0,34.505A13.595,13.595,0,1,1,54.387,43.017,13.619,13.619,0,0,1,40.792,56.611Zm26.643-35.36a4.877,4.877,0,1,1-4.877-4.877A4.866,4.866,0,0,1,67.435,21.251ZM81.285,26.2c-.309-6.533-1.8-12.321-6.588-17.089-4.768-4.768-10.555-6.26-17.089-6.588-6.734-.382-26.916-.382-33.65,0-6.515.309-12.3,1.8-17.089,6.57S.609,19.649.281,26.183C-.1,32.916-.1,53.1.281,59.833c.309,6.533,1.8,12.321,6.588,17.089s10.555,6.26,17.089,6.588c6.734.382,26.916.382,33.65,0,6.533-.309,12.321-1.8,17.089-6.588,4.768-4.768,6.26-10.555,6.588-17.089.382-6.734.382-26.9,0-33.632Zm-8.7,40.857a13.763,13.763,0,0,1-7.753,7.753c-5.369,2.129-18.108,1.638-24.041,1.638s-18.69.473-24.041-1.638A13.763,13.763,0,0,1,9,67.058C6.869,61.689,7.361,48.95,7.361,43.017S6.888,24.327,9,18.976a13.763,13.763,0,0,1,7.753-7.753C22.12,9.094,34.859,9.585,40.792,9.585s18.69-.473,24.041,1.638a13.763,13.763,0,0,1,7.753,7.753c2.129,5.369,1.638,18.108,1.638,24.041S74.715,61.707,72.586,67.058Z" transform="translate(0.005 -2.238)"/>
</svg>
