<svg id="Icon_feather-instagram" data-name="Icon feather-instagram" xmlns="http://www.w3.org/2000/svg" width="56" height="56" viewBox="0 0 56 56">
  <path id="Path_1298" data-name="Path 1298" d="M15.5,3h25A12.5,12.5,0,0,1,53,15.5v25A12.5,12.5,0,0,1,40.5,53h-25A12.5,12.5,0,0,1,3,40.5v-25A12.5,12.5,0,0,1,15.5,3Z" transform="translate(0 0)" fill="none" stroke="#afff23" stroke-linecap="round" stroke-linejoin="round" stroke-width="6"/>
  <path id="Path_1299" data-name="Path 1299" d="M32.245,20.592A10.145,10.145,0,1,1,23.7,12.045a10.145,10.145,0,0,1,8.547,8.547Z" transform="translate(5.897 5.813)" fill="none" stroke="#afff23" stroke-linecap="round" stroke-linejoin="round" stroke-width="6"/>
  <path id="Path_1300" data-name="Path 1300" d="M26.25,9.75h0" transform="translate(15.5 4.5)" fill="none" stroke="#afff23" stroke-linecap="round" stroke-linejoin="round" stroke-width="6"/>
</svg>
