<svg xmlns="http://www.w3.org/2000/svg" width="782" height="237" viewBox="0 0 782 237">
  <g id="Group_112" data-name="Group 112" transform="translate(-351 -359)">
    <text id="Listen_to_what_y_u_love" data-name="Listen to
what y  u love" transform="translate(742 454)" fill="#fff" font-size="118" font-family="CeraPro-Bold, Cera Pro" font-weight="700"><tspan x="-242.018" y="0">Listen to</tspan><tspan x="-390.993" y="119">what </tspan><tspan y="119" xml:space="preserve" fill="#afff23">y  u </tspan><tspan y="119">love</tspan></text>
    <path id="fire" d="M59.136,38.647a36.816,36.816,0,0,0-3.3-3.565c-2.826-2.608-6.086-4.478-8.825-7.216C40.661,21.519,39.357,11.042,43.313,3a28.458,28.458,0,0,0-10.65,5.738A34.723,34.723,0,0,0,22.49,47.428a3.668,3.668,0,0,1,.348,1.435,2.41,2.41,0,0,1-1.521,2.174,2.551,2.551,0,0,1-2.782-.522,3.607,3.607,0,0,1-.651-.739,22.138,22.138,0,0,1-2.3-22.257c-7.131,5.912-11,15.91-10.391,25.344a26.414,26.414,0,0,0,1.174,6.521A26.509,26.509,0,0,0,9.491,66.9a29.448,29.448,0,0,0,21.04,14c9.129,1.174,18.91-.522,25.909-6.955a25.844,25.844,0,0,0,6.521-28.691l-.565-1.13a21.036,21.036,0,0,0-3.478-5.434l.217-.044" transform="translate(731.791 492.3)" fill="#afff23"/>
  </g>
</svg>
