<svg xmlns="http://www.w3.org/2000/svg" width="888.763" height="651.771" viewBox="0 0 888.763 651.771">
  <g id="Group_164" data-name="Group 164" transform="translate(5346.753 -2700.232)">
    <path id="Path_1775" data-name="Path 1775" d="M787.954,692.313c79.57-.229,144.019-65.3,144.245-145.632h0c-.238-80.327-64.683-145.382-144.245-145.611h0c-33.637-.1-60.886,55.2-60.977,21.239h0c.091-33.96,27.33-61.471,60.967-61.574h7.265c35-.069,63.363-28.678,63.465-64.012h0c-.1-35.31-28.429-63.909-63.4-64.012H772.94a24.887,24.887,0,0,1-24.767-25h0a24.887,24.887,0,0,1,24.767-25h16.367a17.172,17.172,0,0,0,17.048-17.191h0A17.192,17.192,0,0,0,789.306,148.3H679.321a26.96,26.96,0,0,1-26.831-27.088h0a26.96,26.96,0,0,1,26.831-27.088h32.816a17.172,17.172,0,0,0,17.027-17.191h0a17.189,17.189,0,0,0-17.027-16.9H230.549a22.419,22.419,0,0,0-22.228,22.442h0a22.419,22.419,0,0,0,22.228,22.463h33.724a35.256,35.256,0,0,1,34.921,35.257h0a35.256,35.256,0,0,1-34.921,35.236H133.814a22.377,22.377,0,0,0-22.269,22.442h0a22.4,22.4,0,0,0,22.228,22.442h21.382a32.456,32.456,0,0,1,32.217,32.506h0a32.477,32.477,0,0,1-32.217,32.527H126.116c-45.616.172-82.544,37.482-82.679,83.537h0c.136,46.079,37.1,83.4,82.741,83.537h9.453c43.9.126,79.469-46.788,79.593-2.465h0c-.125,44.323,4.388,77.122-39.513,77.247H155.155c-44.253.137-80.1,36.316-80.244,80.995h0c.136,44.687,35.983,80.878,80.244,81.015ZM173.668,104.9A22.464,22.464,0,1,1,195.9,82.433,22.356,22.356,0,0,1,173.668,104.9Zm663.459,77.952a17.213,17.213,0,1,1,17.027-17.191A17.13,17.13,0,0,1,837.127,182.847Z" transform="translate(-5390.189 2640.262)" fill="#d6f4ff" fill-rule="evenodd"/>
    <g id="top_center" data-name="top center" transform="translate(1203 1709.382)">
      <path id="Path_1457" data-name="Path 1457" d="M549.432,118.21l-108.592-.22h0V234.011h86.685Z" transform="translate(-6322.448 1192.182)" fill="#9282dd"/>
      <path id="Path_1458" data-name="Path 1458" d="M282.95,197.54h23.2v72.835a6.3,6.3,0,0,1-6.3,6.3H289.4a6.3,6.3,0,0,1-6.3-6.3V197.54Z" transform="translate(-6661.532 1363.023)" fill="#34414e"/>
      <path id="Path_1459" data-name="Path 1459" d="M446.19,197.54h23.2v72.835a6.3,6.3,0,0,1-6.3,6.3H452.706a6.3,6.3,0,0,1-6.3-6.3V197.54Z" transform="translate(-6310.958 1363.023)" fill="#34414e"/>
      <rect id="Rectangle_272" data-name="Rectangle 272" width="589.546" height="153.949" transform="translate(-6401.969 1395.755)" fill="#9282dd"/>
      <path id="Path_1460" data-name="Path 1460" d="M261.13,118.21l98.174-.22h0V234.011H283.037Z" transform="translate(-6708.394 1192.182)" fill="#9282dd"/>
      <path id="Path_1461" data-name="Path 1461" d="M746.585,97.45H321.659a29.871,29.871,0,0,0-29.839,29.871V313.029a29.839,29.839,0,0,0,29.839,29.839H746.585a29.839,29.839,0,0,0,29.871-29.839V127.321A29.871,29.871,0,0,0,746.585,97.45Z" transform="translate(-6642.483 1148.07)" fill="#c5b9ff"/>
      <path id="Path_1462" data-name="Path 1462" d="M332.23,384.657h56.436L335.409,152.868a44.507,44.507,0,0,0-53.131-33.742h0a44.507,44.507,0,0,0-33.742,53.132l41.076,184.1C293.893,375.561,307.71,385.948,332.23,384.657Z" transform="translate(-6737.756 1192.305)" fill="#c5b9ff"/>
      <path id="Path_1463" data-name="Path 1463" d="M500.565,384.673h-56.4l53.257-231.789a44.476,44.476,0,0,1,53.257-33.742h0a44.475,44.475,0,0,1,33.742,53.132L543.5,356.376C538.934,375.577,525.085,385.964,500.565,384.673Z" transform="translate(-6315.318 1192.289)" fill="#c5b9ff"/>
      <path id="Path_1464" data-name="Path 1464" d="M607.1,183.38H285.26v60.969h526V183.38Z" transform="translate(-6656.571 1332.613)" fill="#c5b9ff"/>
      <rect id="Rectangle_273" data-name="Rectangle 273" width="14.542" height="90.556" transform="translate(-6369.612 1486.406)" fill="#9282dd"/>
      <rect id="Rectangle_274" data-name="Rectangle 274" width="14.542" height="90.556" transform="translate(-5872.039 1486.406)" fill="#9282dd"/>
      <path id="Path_1465" data-name="Path 1465" d="M606.217,152.91H311.727c-15.171,0-27.447,9.883-27.447,22.033v33.3c0,12.244,12.276,22.033,27.447,22.033H782.954c15.14,0,27.447-9.915,27.447-22.033V175.038c0-12.244-12.307-22.033-27.447-22.033Z" transform="translate(-6658.676 1267.176)" fill="#d9d1ff"/>
      <rect id="Rectangle_275" data-name="Rectangle 275" width="145.734" height="123.292" rx="6.67" transform="translate(-6230.779 1318.735) rotate(-4.41)" fill="#312a55"/>
      <rect id="Rectangle_276" data-name="Rectangle 276" width="145.734" height="123.292" rx="6.67" transform="translate(-5994.575 1324.777)" fill="#312a55"/>
      <path id="Path_1466" data-name="Path 1466" d="M491.033,232.652a43.311,43.311,0,0,1-15.172,26.629l-89.045-11.709a14.731,14.731,0,0,1-14.29-12.905c-4-31.161-4.942-94.428-3.3-119.42.693-10.859,31.885-19.232,39.471-19.83L434.628,94l17.06,1.92c3.3.63,32.074,8.656,31.948,12.055Z" transform="translate(-6477.897 1140.661)" fill="#f1f6fc"/>
      <path id="Path_1467" data-name="Path 1467" d="M434.929,100.55S517.3,123.968,508.9,150.565H461.18l-49.26-17.123Z" transform="translate(-6384.557 1154.728)" fill="#ba7056"/>
      <path id="Path_1468" data-name="Path 1468" d="M394.9,94.61a287.533,287.533,0,0,1,90.494,22.033L463.36,167l-44.507.409Z" transform="translate(-6421.109 1141.971)" fill="#f1f6fc"/>
      <line id="Line_28" data-name="Line 28" x1="11.52" y2="0.126" transform="translate(-6002.193 1309.196)" fill="none" stroke="#ddae2a" stroke-miterlimit="10" stroke-width="0.51"/>
      <path id="Path_1469" data-name="Path 1469" d="M432.843,119.06l-14.636,6.547a9.632,9.632,0,0,0-3.557,2.707,32.924,32.924,0,0,0-8.939,21.246c-.85,18.634-3.148,24.111,7.554,24.52s24.709-1.731,27.73-22.505l3.9-11.709,9.946-1.605Z" transform="translate(-6399.625 1194.48)" fill="#ba7056"/>
      <path id="Path_1470" data-name="Path 1470" d="M461.436,111.61,413.12,136.1l9.443,20.491s80.83-10.954,83.758-29.776Z" transform="translate(-6381.979 1178.48)" fill="#ba7056"/>
      <line id="Line_29" data-name="Line 29" y1="6.799" x2="27.353" transform="translate(-5939.524 1292.923)" fill="none" stroke="#a35740" stroke-miterlimit="10" stroke-width="0.51"/>
      <path id="Path_1471" data-name="Path 1471" d="M380.82,97.256l3.3,29.934c1.133,10.544,8.026,15.455,18.067,14.259h0c8.53-1.039,17.5-6.3,16.084-15.455L414.5,79Z" transform="translate(-6451.347 1108.447)" fill="#ba7056"/>
      <path id="Path_1472" data-name="Path 1472" d="M383.266,109.263A37.268,37.268,0,0,0,415.624,85.31L381,87.954Z" transform="translate(-6450.96 1121.998)" fill="#a35740"/>
      <path id="Path_1473" data-name="Path 1473" d="M395.085,82.906a12.59,12.59,0,1,1-9.835-10.023A12.59,12.59,0,0,1,395.085,82.906Z" transform="translate(-6474.331 1094.752)" fill="#a35740"/>
      <path id="Path_1474" data-name="Path 1474" d="M410.979,152.142h0c-17.123,1.952-32.767-10.419-34.844-24.8l-4.312-30.217a33.364,33.364,0,0,1,26.566-37.771h0c17.753-3.148,37.771,8.436,41.171,26.786l3.148,23.481A37.771,37.771,0,0,1,410.979,152.142Z" transform="translate(-6471.497 1065.144)" fill="#ba7056"/>
      <path id="Path_1475" data-name="Path 1475" d="M372.68,89.659s.755,10.513,9.222,12.59c0,0,9-7.712,23.922-2.959S431.6,74.11,431.6,74.11l7.932,14.133s2.392,35.19-38.5,35.1c-7.208,0-26.44-3.9-27.667-28.895" transform="translate(-6468.829 1097.945)" fill="#221914"/>
      <path id="Path_1476" data-name="Path 1476" d="M371.82,85.21s22.033,4.312,52.817-3.525l.189,11.741a37.078,37.078,0,0,1,8.625,16.336l8.939-6.3,2.172-13.724A25.5,25.5,0,0,0,440.6,71.078c-6.736-9.443-20.208-15.549-39.251-12.905A33.522,33.522,0,0,0,371.82,85.116Z" transform="translate(-6470.675 1062.388)" fill="#221914"/>
      <path id="Path_1477" data-name="Path 1477" d="M378.24,78.92l.031,6.075,4.249-.315" transform="translate(-6456.888 1108.275)" fill="none" stroke="#221914" stroke-linecap="round" stroke-linejoin="round" stroke-width="0.51"/>
      <path id="Path_1478" data-name="Path 1478" d="M387.425,70.757s-7.082.189-6.83,3.148c0,0,.22,1.983,6.3,1.7s7.68-.881,8.026-2.833S390.7,70.443,387.425,70.757Z" transform="translate(-6451.845 1090.533)" fill="#221914"/>
      <path id="Path_1479" data-name="Path 1479" d="M378,71.747s5.729-1.259,6.516,1.479c0,0,.472,1.826-4.564,2.8s-6.736.5-7.365-.944S375.259,72.093,378,71.747Z" transform="translate(-6469.204 1092.25)" fill="#221914"/>
      <path id="Path_1480" data-name="Path 1480" d="M380.166,78.8a2.959,2.959,0,1,1-3.368-2.612,2.99,2.99,0,0,1,3.368,2.612Z" transform="translate(-6465.424 1102.351)" fill="#221914"/>
      <path id="Path_1481" data-name="Path 1481" d="M388.326,77.63a2.959,2.959,0,1,1-3.368-2.613A3.148,3.148,0,0,1,388.326,77.63Z" transform="translate(-6447.899 1099.87)" fill="#221914"/>
      <path id="Path_1482" data-name="Path 1482" d="M379.457,87.472a12.905,12.905,0,1,0,2.671-9.581,12.905,12.905,0,0,0-2.671,9.581Z" transform="translate(-6454.485 1095.505)" fill="none" stroke="#fff" stroke-miterlimit="10" stroke-width="0.51"/>
      <path id="Path_1483" data-name="Path 1483" d="M369.8,88.556a12.4,12.4,0,1,0,10.7-14.29,12.591,12.591,0,0,0-10.7,14.29Z" transform="translate(-6475.297 1098.072)" fill="none" stroke="#fff" stroke-miterlimit="10" stroke-width="0.51"/>
      <line id="Line_30" data-name="Line 30" x1="5.949" y2="0.63" transform="translate(-6080.946 1183.764)" fill="none" stroke="#fff" stroke-miterlimit="10" stroke-width="0.51"/>
      <line id="Line_31" data-name="Line 31" y1="8.561" x2="14.196" transform="translate(-6049.595 1169.789)" fill="none" stroke="#fff" stroke-miterlimit="10" stroke-width="0.51"/>
      <path id="Path_1484" data-name="Path 1484" d="M415.412,81.229a12.4,12.4,0,0,1-9.726,14.479,12.244,12.244,0,0,1-14.1-10.135,12.37,12.37,0,0,1,9.726-14.479,12.244,12.244,0,0,1,14.1,10.135Z" transform="translate(-6428.716 1091.109)" fill="#ba7056"/>
      <path id="Path_1485" data-name="Path 1485" d="M394.138,82.454s-1.574-8.908,6.925-9.034" transform="translate(-6422.991 1096.463)" fill="none" stroke="#221914" stroke-linecap="round" stroke-linejoin="round" stroke-width="0.51"/>
      <path id="Path_1486" data-name="Path 1486" d="M438.773,96.409a193.771,193.771,0,0,0-29.619-2.329s-20.963,0-30.595,3.148c0,0-5.445,17.123,22.033,16.871S438.773,96.409,438.773,96.409Z" transform="translate(-6457.145 1140.833)" fill="#ba7056"/>
      <path id="Path_1487" data-name="Path 1487" d="M308.542,168.921l50.771-20.271,13.22,29.43-54.611,21.813L306.37,171.061Z" transform="translate(-6611.235 1258.027)" fill="#ba7056"/>
      <path id="Path_1488" data-name="Path 1488" d="M351.838,216.417s-17.6-18.382-7.46-34.246L296,139.71l36.8,92Z" transform="translate(-6633.506 1238.828)" fill="#221914"/>
      <path id="Path_1489" data-name="Path 1489" d="M293.57,142.826l36.8,92,7.712-3.116-36.8-92Z" transform="translate(-6638.725 1238.828)" fill="#fff"/>
      <path id="Path_1490" data-name="Path 1490" d="M307.63,162.784a1.8,1.8,0,0,1,.252-.787,34.279,34.279,0,0,0,4.029-9.6,1.448,1.448,0,0,1,1.794-1.165,1.637,1.637,0,0,1,1.2,1.889,34.623,34.623,0,0,1-4.438,10.607,1.448,1.448,0,0,1-2.077.472A1.7,1.7,0,0,1,307.63,162.784Z" transform="translate(-6608.53 1263.472)" fill="#fff"/>
      <path id="Path_1491" data-name="Path 1491" d="M305.58,160.914a1.479,1.479,0,0,1,.22-.787,32.768,32.768,0,0,0,4.029-9.6,1.479,1.479,0,0,1,1.826-1.165,1.637,1.637,0,0,1,1.2,1.889,35.281,35.281,0,0,1-4.438,10.639,1.479,1.479,0,0,1-2.109.441,1.732,1.732,0,0,1-.724-1.417Z" transform="translate(-6612.932 1259.455)" fill="#fff"/>
      <path id="Path_1492" data-name="Path 1492" d="M303.537,159.024a1.509,1.509,0,0,1,.22-.818,32.8,32.8,0,0,0,4.029-9.443,1.479,1.479,0,0,1,1.794-1.2,1.668,1.668,0,0,1,1.2,1.92,35,35,0,0,1-4.406,10.607,1.479,1.479,0,0,1-2.109.441A1.573,1.573,0,0,1,303.537,159.024Z" transform="translate(-6617.342 1255.617)" fill="#fff"/>
      <path id="Path_1493" data-name="Path 1493" d="M450.365,127.97,314.64,187.68l24.834,60.654,154.956-52.911Z" transform="translate(-6593.476 1213.615)" fill="#0294ff"/>
      <path id="Path_1494" data-name="Path 1494" d="M340.093,254.655l-.283-54.642,32.231-1.542.346,58.8-31.1.22Z" transform="translate(-6539.42 1365.021)" fill="#ba7056"/>
      <path id="Path_1495" data-name="Path 1495" d="M413.344,217.191s-23.544,9.695-34.624-5.571l-57.16,29.525,99.055-.567Z" transform="translate(-6578.614 1393.261)" fill="#221914"/>
      <path id="Path_1496" data-name="Path 1496" d="M321.592,229.666l99.086-.567-.031-8.31-99.087.567Z" transform="translate(-6578.614 1412.955)" fill="#fff"/>
      <path id="Path_1497" data-name="Path 1497" d="M345.921,222.9a1.7,1.7,0,0,1-.661-.5,33.276,33.276,0,0,0-7.428-7.271,1.448,1.448,0,0,1-.441-2.109,1.668,1.668,0,0,1,2.2-.409,35.251,35.251,0,0,1,8.247,7.995,1.479,1.479,0,0,1-.346,2.14,1.762,1.762,0,0,1-1.574.157Z" transform="translate(-6545.217 1394.853)" fill="#fff"/>
      <path id="Path_1498" data-name="Path 1498" d="M343.451,224.126a1.6,1.6,0,0,1-.661-.472,33.27,33.27,0,0,0-7.428-7.271,1.448,1.448,0,0,1-.441-2.109,1.668,1.668,0,0,1,2.2-.441,36.7,36.7,0,0,1,8.247,8.026,1.448,1.448,0,0,1-.346,2.109A1.574,1.574,0,0,1,343.451,224.126Z" transform="translate(-6550.521 1397.501)" fill="#fff"/>
      <path id="Path_1499" data-name="Path 1499" d="M341.011,225.372a1.7,1.7,0,0,1-.661-.5,33.267,33.267,0,0,0-7.428-7.271,1.448,1.448,0,0,1-.441-2.109,1.668,1.668,0,0,1,2.2-.409,35.254,35.254,0,0,1,8.247,7.995,1.48,1.48,0,0,1-.346,2.14,1.763,1.763,0,0,1-1.574.157Z" transform="translate(-6555.761 1400.157)" fill="#fff"/>
      <path id="Path_1500" data-name="Path 1500" d="M541.964,167.978s12.59,48.284-45.577,48.284H404.036V337.224H332.9V181.45a36.008,36.008,0,0,1,36.323-36.009l94.113.755Z" transform="translate(-6554.26 1251.132)" fill="#1477bf"/>
      <path id="Path_1501" data-name="Path 1501" d="M511,179.256l1.983,11.363a33.843,33.843,0,0,1,.378,8.908C510.9,226.47,489.843,249.2,462.491,250.9a46.647,46.647,0,0,1-31.476-8.813L355,172.646l42.524-44.066Z" transform="translate(-6506.798 1214.925)" fill="#0294ff"/>
      <path id="Path_1502" data-name="Path 1502" d="M432.508,95S370.532,102.24,353,160.6l58.419,22.033Z" transform="translate(-6511.093 1142.808)" fill="#f1f6fc"/>
      <path id="Path_1503" data-name="Path 1503" d="M349.81,133.844,348.74,108.6l32.924,6.3.913,21.75Z" transform="translate(-6520.242 1172.016)" fill="#fdfbf9"/>
      <path id="Path_1504" data-name="Path 1504" d="M352.276,135.655l-1.2-28.045,25.559,9.411.913,21.75Z" transform="translate(-6515.217 1169.89)" fill="#fdfbf9"/>
      <path id="Path_1505" data-name="Path 1505" d="M360.46,117.916l71.891-10.8,5.131,92.319-73.4,2.959Z" transform="translate(-6495.072 1168.837)" fill="#fdfbf9"/>
      <path id="Path_1506" data-name="Path 1506" d="M379.986,110.65l3.746,86.842-32.83-9.38-3.242-76.077Z" transform="translate(-6522.561 1176.418)" fill="#1b1f23"/>
      <path id="Path_1507" data-name="Path 1507" d="M357.93,110.865l7.963-.315,3.809,88.511-8.026-1.353Z" transform="translate(-6500.505 1176.204)" fill="#111315"/>
      <path id="Path_1508" data-name="Path 1508" d="M360.46,112.547,428.2,109.62l3.809,88.762-67.736,2.675Z" transform="translate(-6495.072 1174.206)" fill="#1b1f23"/>
      <line id="Line_32" data-name="Line 32" x2="3.809" y2="88.511" transform="translate(-6134.612 1286.754)" fill="none" stroke="#000" stroke-miterlimit="10" stroke-width="0.51"/>
      <line id="Line_33" data-name="Line 33" x2="3.746" y2="86.842" transform="translate(-6142.576 1287.068)" fill="none" stroke="#000" stroke-miterlimit="10" stroke-width="0.51"/>
      <path id="Path_1509" data-name="Path 1509" d="M355.89,117.19s-21.813,17.469-5.823,33.553a17.941,17.941,0,0,0,18.13,4.91c5.162-1.668,9.946-5.949,8.53-16.336-2.833-20.711-20.648-17.91-20.648-17.91Z" transform="translate(-6529.973 1190.464)" fill="#ba7056"/>
    </g>
  </g>
</svg>
