<svg id="Work_meeting" data-name="Work meeting" xmlns="http://www.w3.org/2000/svg" width="984.448" height="586.635" viewBox="0 0 984.448 586.635">
  <path id="Path_1929" data-name="Path 1929" d="M174.93,412.611H147.94a93.8,93.8,0,0,0-93.52,93.52h0a93.8,93.8,0,0,0,93.52,93.52h739.5c83.289,0,151.432-68.143,151.432-151.432h0c0-83.289-68.143-151.432-151.432-151.432h0a64.21,64.21,0,0,1-64.057-64.1h0A64.226,64.226,0,0,1,887.4,168.657h14.962a66.761,66.761,0,0,0,66.576-66.576h0A66.761,66.761,0,0,0,902.367,35.52H644.634c-35.746.968-41.307,11.613-48.112,31.813-7.143,21.229-44.287,22.935-44.287,22.935H392.8c-77.652,0-85.547,23.81-101.508,71.154s-98.8,51.153-98.8,51.153h-23.4a51.123,51.123,0,0,0-50.969,51.03h0a51.107,51.107,0,0,0,50.969,50.954h5.837a49.156,49.156,0,0,1,49.018,48.9h0a49.156,49.156,0,0,1-49.018,49.156Z" transform="translate(-54.42 -35.52)" fill="#d6f4ff" fill-rule="evenodd"/>
  <rect id="Rectangle_418" data-name="Rectangle 418" width="144.566" height="19.647" rx="6.4" transform="translate(432.791 295.399)" fill="#312a55"/>
  <path id="Path_1932" data-name="Path 1932" d="M396.467,509.753V234.431a9.862,9.862,0,0,0-9.816-9.831h0a9.877,9.877,0,0,0-9.831,9.831V509.753a9.862,9.862,0,0,0,9.831,9.831h0A9.847,9.847,0,0,0,396.467,509.753Z" transform="translate(118.43 65.853)" fill="#312a55" fill-rule="evenodd"/>
  <path id="Path_1933" data-name="Path 1933" d="M581.714,221.42H292.521a9.847,9.847,0,0,0-9.831,9.831h0a9.831,9.831,0,0,0,9.831,9.816H581.714a9.847,9.847,0,0,0,9.831-9.816h0a9.862,9.862,0,0,0-9.831-9.831Z" transform="translate(67.964 64.148)" fill="#fff" fill-rule="evenodd"/>
  <path id="Path_1934" data-name="Path 1934" d="M411.4,179.292H328.361a5.868,5.868,0,0,0-5.223,4.009L305.9,240a2.873,2.873,0,0,0,2.8,4.009h83.028A5.9,5.9,0,0,0,396.965,240L414.2,183.3a2.873,2.873,0,0,0-2.8-4.009Z" transform="translate(80.282 41.559)" fill="#0294ff" fill-rule="evenodd"/>
  <path id="Path_1935" data-name="Path 1935" d="M403.093,224.326H294.7a4.178,4.178,0,0,1-4.163-4.163h0A4.178,4.178,0,0,1,294.7,216h108.39a4.178,4.178,0,0,1,4.163,4.163h0a4.178,4.178,0,0,1-4.163,4.163Z" transform="translate(72.172 61.242)" fill="#0064ad" fill-rule="evenodd"/>
  <path id="Path_1936" data-name="Path 1936" d="M316.117,224.326H294.7a4.178,4.178,0,0,1-4.163-4.163h0A4.178,4.178,0,0,1,294.7,216h21.414a4.178,4.178,0,0,1,4.163,4.163h0a4.178,4.178,0,0,1-4.163,4.163Z" transform="translate(72.172 61.242)" fill="#044777" fill-rule="evenodd"/>
  <path id="Path_1937" data-name="Path 1937" d="M347.366,191.8a10.463,10.463,0,0,0-2.074.23,5.069,5.069,0,0,1,.676,3.779,6.82,6.82,0,0,1-6.313,5.607,4.224,4.224,0,0,1-3.364-1.536,11.765,11.765,0,0,0-.707,2.412c-1.044,5.791,2.519,10.492,7.988,10.492s10.753-4.7,11.782-10.492S352.834,191.8,347.366,191.8Z" transform="translate(96.224 48.267)" fill="#fff" fill-rule="evenodd"/>
  <path id="Path_1938" data-name="Path 1938" d="M445.155,107.478A19.309,19.309,0,1,0,425.83,88.185a19.309,19.309,0,0,0,19.325,19.294Z" transform="translate(144.706 -17.645)" fill="#0294ff" fill-rule="evenodd"/>
  <path id="Path_1939" data-name="Path 1939" d="M445.155,168.388a19.309,19.309,0,1,0-19.325-19.309,19.309,19.309,0,0,0,19.325,19.309Z" transform="translate(144.706 15.011)" fill="#fff" fill-rule="evenodd"/>
  <path id="Path_1940" data-name="Path 1940" d="M439.515,84.8a12.8,12.8,0,0,0-9.355,10.753,15.93,15.93,0,0,0,25.331,0A12.8,12.8,0,0,0,446.136,84.8a6.237,6.237,0,1,0-6.621,0Z" transform="translate(147.028 -15.276)" fill="#fff" fill-rule="evenodd"/>
  <path id="Path_1941" data-name="Path 1941" d="M439.515,145.691a12.811,12.811,0,0,0-9.355,10.753,15.93,15.93,0,0,0,25.331,0,12.812,12.812,0,0,0-9.355-10.753,6.237,6.237,0,1,0-6.621,0Z" transform="translate(147.028 17.369)" fill="#0294ff" fill-rule="evenodd"/>
  <path id="Path_1942" data-name="Path 1942" d="M401.112,149.673h2.919a1.444,1.444,0,1,1,0,2.873h-2.919a1.444,1.444,0,0,1,0-2.873Z" transform="translate(130.76 25.677)" fill="#0294ff" fill-rule="evenodd"/>
  <path id="Path_1943" data-name="Path 1943" d="M429.032,152.545h-23.38a1.444,1.444,0,0,1,0-2.873h23.38a1.444,1.444,0,1,1,0,2.873Z" transform="translate(133.194 25.677)" fill="#0294ff" fill-rule="evenodd"/>
  <path id="Path_1944" data-name="Path 1944" d="M429.833,146.005H404.456a1.444,1.444,0,1,1,0-2.873h25.377a1.444,1.444,0,1,1,0,2.873Z" transform="translate(132.393 22.171)" fill="#0294ff" fill-rule="evenodd"/>
  <path id="Path_1945" data-name="Path 1945" d="M424.952,141.125h-11.69a1.444,1.444,0,0,1,0-2.873h11.69a1.444,1.444,0,1,1,0,2.873Z" transform="translate(137.274 19.555)" fill="#0294ff" fill-rule="evenodd"/>
  <path id="Path_1946" data-name="Path 1946" d="M428.549,134.815h-22a1.444,1.444,0,0,1,0-2.873h22a1.444,1.444,0,1,1,0,2.873Z" transform="translate(133.676 16.172)" fill="#0294ff" fill-rule="evenodd"/>
  <path id="Path_1947" data-name="Path 1947" d="M445.155,137.959a19.325,19.325,0,1,0-19.325-19.325,19.324,19.324,0,0,0,19.325,19.325Z" transform="translate(144.706 -1.32)" fill="#0294ff" fill-rule="evenodd"/>
  <path id="Path_1948" data-name="Path 1948" d="M439.515,115.251A12.781,12.781,0,0,0,430.16,126a15.93,15.93,0,0,0,25.331,0,12.781,12.781,0,0,0-9.355-10.753,6.237,6.237,0,1,0-6.621,0Z" transform="translate(147.028 1.049)" fill="#fff" fill-rule="evenodd"/>
  <path id="Path_1949" data-name="Path 1949" d="M424.625,121.835H413.872a1.444,1.444,0,0,1,0-2.873h10.753a1.444,1.444,0,1,1,0,2.873Z" transform="translate(137.601 9.213)" fill="#998fc3" fill-rule="evenodd"/>
  <path id="Path_1950" data-name="Path 1950" d="M426.772,117.275H410.166a1.444,1.444,0,1,1,0-2.873h16.606a1.444,1.444,0,1,1,0,2.873Z" transform="translate(135.454 6.768)" fill="#998fc3" fill-rule="evenodd"/>
  <path id="Path_1951" data-name="Path 1951" d="M423.951,112.435h-8.526a1.444,1.444,0,1,1,0-2.873h8.526a1.444,1.444,0,1,1,0,2.873Z" transform="translate(138.274 4.173)" fill="#998fc3" fill-rule="evenodd"/>
  <path id="Path_1952" data-name="Path 1952" d="M400.452,104h2.919a1.444,1.444,0,1,1,0,2.873h-2.919a1.444,1.444,0,0,1,0-2.873Z" transform="translate(130.406 1.192)" fill="#998fc3" fill-rule="evenodd"/>
  <path id="Path_1953" data-name="Path 1953" d="M429.032,106.875h-23.38a1.444,1.444,0,0,1,0-2.873h23.38a1.444,1.444,0,1,1,0,2.873Z" transform="translate(133.194 1.192)" fill="#998fc3" fill-rule="evenodd"/>
  <path id="Path_1954" data-name="Path 1954" d="M423.378,90.819h-6.79a1.429,1.429,0,1,1,0-2.811h6.759a1.429,1.429,0,0,1,0,2.857Z" transform="translate(138.848 -7.392)" fill="#0294ff" fill-rule="evenodd"/>
  <path id="Path_1955" data-name="Path 1955" d="M425.864,85.585h-14.3a1.444,1.444,0,0,1,0-2.873h14.3a1.444,1.444,0,1,1,0,2.873Z" transform="translate(136.362 -10.222)" fill="#0294ff" fill-rule="evenodd"/>
  <path id="Path_1956" data-name="Path 1956" d="M423.346,78.525h-6.79a1.444,1.444,0,1,1,0-2.873h6.759a1.444,1.444,0,1,1,0,2.873Z" transform="translate(138.88 -14.008)" fill="#0294ff" fill-rule="evenodd"/>
  <path id="Path_1957" data-name="Path 1957" d="M430.419,73.907H403.2a1.429,1.429,0,1,1,0-2.857h27.22a1.429,1.429,0,0,1,0,2.857Z" transform="translate(131.807 -16.471)" fill="#0294ff" fill-rule="evenodd"/>
  <rect id="Rectangle_420" data-name="Rectangle 420" width="30.047" height="4.332" rx="1.41" transform="translate(802.523 314.109)" fill="#fff"/>
  <path id="Path_1960" data-name="Path 1960" d="M579.016,245.83h15.607A2.166,2.166,0,0,1,596.789,248h0a2.166,2.166,0,0,1-2.166,2.166H579.016A2.166,2.166,0,0,1,576.85,248h0A2.181,2.181,0,0,1,579.016,245.83Z" transform="translate(225.673 77.235)" fill="#fff" fill-rule="evenodd"/>
  <path id="Path_1961" data-name="Path 1961" d="M543.326,117.152h25.715a2.166,2.166,0,0,0,2.166-2.166h0a2.166,2.166,0,0,0-2.166-2.166H543.326a2.166,2.166,0,0,0-2.166,2.166h0a2.166,2.166,0,0,0,2.166,2.166Z" transform="translate(206.539 5.923)" fill="#fff" fill-rule="evenodd"/>
  <path id="Path_1962" data-name="Path 1962" d="M543.326,111.322h15.607a2.166,2.166,0,0,0,2.166-2.166h0a2.166,2.166,0,0,0-2.166-2.166H543.326a2.166,2.166,0,0,0-2.166,2.166h0a2.166,2.166,0,0,0,2.166,2.166Z" transform="translate(206.539 2.798)" fill="#fff" fill-rule="evenodd"/>
  <path id="Path_1967" data-name="Path 1967" d="M597.338,283.06h7.4a2.473,2.473,0,0,1,2.473,2.473v7.4a2.458,2.458,0,0,1-2.458,2.458h-7.4a2.473,2.473,0,0,1-2.473-2.473v-7.4A2.458,2.458,0,0,1,597.338,283.06Z" transform="translate(235.34 97.195)" fill="#a79ccb"/>
  <rect id="Rectangle_422" data-name="Rectangle 422" width="12.335" height="12.335" rx="1.6" transform="translate(855.505 380.255)" fill="#a79ccb"/>
  <path id="Path_1968" data-name="Path 1968" d="M630.273,283.06h7.4a2.458,2.458,0,0,1,2.458,2.458v7.4a2.458,2.458,0,0,1-2.458,2.458h-7.4a2.473,2.473,0,0,1-2.473-2.473v-7.389A2.473,2.473,0,0,1,630.273,283.06Z" transform="translate(252.989 97.195)" fill="#a79ccb"/>
  <path id="Path_1970" data-name="Path 1970" d="M160.125,186.706a1.306,1.306,0,1,1,2.611,0v5.883a1.306,1.306,0,1,1-2.611,0Zm-8.925,4.777a1.309,1.309,0,1,1,1.859-1.843l4.163,4.163a1.306,1.306,0,0,1,0,1.843,1.321,1.321,0,0,1-1.859,0Zm-2.919,9.693a1.321,1.321,0,0,1,0-2.627h5.883a1.321,1.321,0,0,1,0,2.627Zm4.777,8.91a1.321,1.321,0,0,1-1.859,0,1.306,1.306,0,0,1,0-1.843l4.163-4.163a1.309,1.309,0,0,1,1.859,1.843l-4.132,4.163Zm9.678,2.934a1.306,1.306,0,1,1-2.611,0v-5.883a1.306,1.306,0,1,1,2.611,0Zm8.925-4.777a1.306,1.306,0,0,1,0,1.843,1.321,1.321,0,0,1-1.859,0l-4.163-4.163a1.309,1.309,0,0,1,1.859-1.843Zm2.934-9.632a1.321,1.321,0,0,1,0,2.627h-5.883a1.321,1.321,0,0,1,0-2.627Zm-4.777-8.91a1.309,1.309,0,0,1,1.859,1.843l-4.163,4.163a1.321,1.321,0,0,1-1.859,0,1.306,1.306,0,0,1,0-1.843Z" transform="translate(-4.73 44.836)" fill="#a79ccb" fill-rule="evenodd"/>
  <path id="Path_1972" data-name="Path 1972" d="M119.933,381.19h7.4a2.458,2.458,0,0,1,2.458,2.458v7.4a2.473,2.473,0,0,1-2.473,2.473h-7.4a2.458,2.458,0,0,1-2.458-2.458v-7.4a2.458,2.458,0,0,1,2.473-2.473Z" transform="translate(-20.622 149.806)" fill="#a79ccb"/>
  <path id="Path_1973" data-name="Path 1973" d="M136.393,381.19h7.4a2.458,2.458,0,0,1,2.458,2.458v7.4a2.458,2.458,0,0,1-2.458,2.458h-7.4a2.473,2.473,0,0,1-2.473-2.473v-7.4A2.458,2.458,0,0,1,136.393,381.19Z" transform="translate(-11.797 149.806)" fill="#a79ccb"/>
  <path id="Path_1974" data-name="Path 1974" d="M152.863,381.19h7.4a2.473,2.473,0,0,1,2.473,2.473v7.4a2.458,2.458,0,0,1-2.458,2.458h-7.42a2.473,2.473,0,0,1-2.473-2.473v-7.4a2.458,2.458,0,0,1,2.473-2.458Z" transform="translate(-2.967 149.806)" fill="#a79ccb"/>
  <path id="Path_1975" data-name="Path 1975" d="M169.318,381.19h7.42a2.458,2.458,0,0,1,2.458,2.458v7.4a2.458,2.458,0,0,1-2.458,2.458h-7.4a2.473,2.473,0,0,1-2.473-2.473v-7.4A2.458,2.458,0,0,1,169.318,381.19Z" transform="translate(5.863 149.806)" fill="#a79ccb"/>
  <path id="Path_1976" data-name="Path 1976" d="M168.235,65.33h74.011a9.8,9.8,0,0,1,9.77,9.785v69a1.075,1.075,0,0,1-.676,1.014,1.06,1.06,0,0,1-1.183-.246L233.49,128.219H168.235a9.816,9.816,0,0,1-9.785-9.785V75.115a9.816,9.816,0,0,1,9.785-9.785Z" transform="translate(1.354 -19.538)" fill="#1f9af4" fill-rule="evenodd"/>
  <path id="Path_1978" data-name="Path 1978" d="M623.262,47.24H549.205a9.8,9.8,0,0,0-9.785,9.77v69a1.091,1.091,0,0,0,.676,1.014,1.06,1.06,0,0,0,1.183-.246l16.667-16.667h65.317a9.8,9.8,0,0,0,9.785-9.77V57.01a9.8,9.8,0,0,0-9.785-9.77Z" transform="translate(205.606 -29.236)" fill="#0294ff" fill-rule="evenodd"/>
  <path id="Path_1979" data-name="Path 1979" d="M578.087,99.444A23.457,23.457,0,1,0,554.63,76a23.457,23.457,0,0,0,23.457,23.441Z" transform="translate(213.76 -26.4)" fill="#fff" fill-rule="evenodd"/>
  <path id="Path_1980" data-name="Path 1980" d="M561.987,74.711a2.211,2.211,0,1,1,3.18-3.072l5.269,5.622,13.241-15.945a2.187,2.187,0,1,1,3.364,2.8L572.294,81.838a1.712,1.712,0,0,1-.276.307,2.181,2.181,0,0,1-3.072-.092Z" transform="translate(217.372 -22.113)" fill="#0294ff" fill-rule="evenodd"/>
  <path id="Path_1981" data-name="Path 1981" d="M128.078,407.935a50.047,50.047,0,1,0-50.078-50A50.047,50.047,0,0,0,128.078,407.935Z" transform="translate(-41.778 110.481)" fill="#a79ccb" fill-rule="evenodd"/>
  <path id="Path_1982" data-name="Path 1982" d="M123.109,405.855A50.047,50.047,0,1,0,73,355.807,50.047,50.047,0,0,0,123.109,405.855Z" transform="translate(-44.459 109.365)" fill="#fff" fill-rule="evenodd"/>
  <path id="Path_1983" data-name="Path 1983" d="M88.886,344.247A14.564,14.564,0,0,0,78.23,356.418a18.142,18.142,0,0,0,28.848,0A14.564,14.564,0,0,0,96.423,344.26a7.091,7.091,0,1,0-7.537,0Z" transform="translate(-35.628 127.955)" fill="#0294ff" fill-rule="evenodd"/>
  <path id="Path_1985" data-name="Path 1985" d="M137.555,352.692a1.021,1.021,0,0,1-2.04,0v-25.5a5.1,5.1,0,0,0-1.341-3.472,4.438,4.438,0,0,0-3.239-1.459H94.977a4.81,4.81,0,0,0-4.58,4.931v25.5a1.016,1.016,0,1,1-2.026,0v-25.5a6.888,6.888,0,0,1,6.607-7.112h35.958a6.887,6.887,0,0,1,6.621,7.112Z" transform="translate(-31.344 113.599)" fill="#0294ff" fill-rule="evenodd"/>
  <path id="Path_1986" data-name="Path 1986" d="M339.9,144.46s5.914-9.355,8.433-12.458,7.926-2.9,10.661-3.9,7.02-2.181,7.8-2.55,1.536,2.873.415,4.47a28.482,28.482,0,0,1-5.653,5.085c1.536,1.751,3.825,1.9,5.269,2.627,6.283,3.072,12.12-2.012,19.248-2.243,2.535,0,4.608,1.137,4.608,3.149,0,.845-.922,2.043-2.381,3.5a4.839,4.839,0,0,1-.6,1.383,17.623,17.623,0,0,1-2.581,1.536l-1.075.922a13.641,13.641,0,0,1-4.055,3.318c-5.515,4.608-19.586,2.473-25.915,1.413a4.731,4.731,0,0,0-4.608,1.767l-2.642,3.241Z" transform="translate(98.636 12.733)" fill="#f4ad85" fill-rule="evenodd"/>
  <path id="Path_1987" data-name="Path 1987" d="M339.9,141.657s4.424-7,7.251-10.907a9.109,9.109,0,0,0,.737,9.555c4.608,6.145,17.481,8.249,23.994,8.449,4.716.138,1.8,0,2.627,0-6.575,1.306-15.684-.108-20.415-.906a4.731,4.731,0,0,0-4.608,1.767l-2.642,3.241Z" transform="translate(98.636 15.536)" fill="#ef8871" fill-rule="evenodd"/>
  <path id="Path_1988" data-name="Path 1988" d="M379.284,137.248l-.568.584a4.74,4.74,0,0,1-.384,1,4.608,4.608,0,0,0-2.227-3.072c-1.828-.691-4.286.937-7.8,1.536a69.268,69.268,0,0,1-9.509.445l.43-1.536a11.914,11.914,0,0,1,1.536.246,38.4,38.4,0,0,0,11.583-1.889c4.608-1.536,5.423-1.137,7.251,1.644l-.353.983Zm-3.349,3.272c-1.4-2.427-2.12-2.78-6.145-1.736a33.3,33.3,0,0,1-10.231.952c-1.137-.23-1.352-.307-1.352-.307l-.476,1.29a61.733,61.733,0,0,0,8.326.184c3.072-.292,5.346-1.536,6.9-.86a3.072,3.072,0,0,1,1.444,1.72v-.123l1.075-.922.4-.2Zm-5.545,4.608a9.463,9.463,0,0,1-1,.676,2.457,2.457,0,0,0-.952-1.644c-1.029-.63-2.719.092-4.931,0a44.009,44.009,0,0,1-5.868-.814l.43-.876s.154.077.937.338a24.011,24.011,0,0,0,7.3.154c2.98-.4,3.441,0,4.255,1.828Z" transform="translate(108.147 17.103)" fill="#ef8871" fill-rule="evenodd"/>
  <path id="Path_1989" data-name="Path 1989" d="M361.045,126.69a3.072,3.072,0,0,1-.553,2.7,36.869,36.869,0,0,1-5.592,5.453l.154.154c-1.628-.968-4.839-1.536-.722-2.949a17.972,17.972,0,0,0,6.713-5.361Z" transform="translate(105.295 13.36)" fill="#ef8871" fill-rule="evenodd"/>
  <path id="Path_1990" data-name="Path 1990" d="M343.545,134.09c3.9,5.653,12.719,12.719,12.719,12.719l-9.14,3.717s-7.865-5.039-8-7.681S343.545,134.09,343.545,134.09Z" transform="translate(98.217 17.327)" fill="#b4b5b5" fill-rule="evenodd"/>
  <path id="Path_1991" data-name="Path 1991" d="M361.53,134.45c.445,8.326-6.79,12.289-6.79,12.289s7.02-8.817,4.87-11.6c-.86-1.106-1.644-1.536-1.644-1.859S359.287,133.252,361.53,134.45Z" transform="translate(106.592 16.829)" fill="#ef8871" fill-rule="evenodd"/>
  <path id="Path_1992" data-name="Path 1992" d="M399.261,150.854s-43.442,38.4-49.709,42.321-16.467,5.453-26.852,2.78-45.869-12.289-51.353-15.822-17.435-16.7-13.334-31.537c0,0,6.467-6.851,23.687-.584s44.855,18.557,48.465,19.6a16.636,16.636,0,0,0,13.241-.968C348.83,163.912,385.943,136,385.943,136,386.573,140.608,392.763,147.813,399.261,150.854Z" transform="translate(54.283 18.351)" fill="#312a55" fill-rule="evenodd"/>
  <path id="Path_1993" data-name="Path 1993" d="M238.875,471.484A7.358,7.358,0,0,0,253.5,473.02l16.59-155.841a18.265,18.265,0,0,1,6.052-11.475,17.942,17.942,0,0,1,11.951-4.793h62.06A17.942,17.942,0,0,1,362.1,305.7a18.173,18.173,0,0,1,6.037,11.475L384.747,473.02a7.358,7.358,0,0,0,14.624-1.536L382.765,315.643a33.564,33.564,0,0,0-32.612-29.463h-62.06a33.564,33.564,0,0,0-32.612,29.463Z" transform="translate(44.465 98.868)" fill="#a3a6c4" fill-rule="evenodd"/>
  <path id="Path_1994" data-name="Path 1994" d="M193.625,471.484a7.358,7.358,0,0,0,14.624,1.536l16.682-155.826a18.173,18.173,0,0,1,6.037-11.475,17.942,17.942,0,0,1,11.951-4.793H305a17.942,17.942,0,0,1,11.936,4.793,18.265,18.265,0,0,1,6.052,11.475l16.59,155.841A7.358,7.358,0,0,0,354.2,471.5L337.515,315.643a33.564,33.564,0,0,0-32.6-29.463H242.843a33.564,33.564,0,0,0-32.612,29.463Z" transform="translate(20.205 98.868)" fill="#fff" fill-rule="evenodd"/>
  <path id="Path_1995" data-name="Path 1995" d="M389.321,357.615a9.831,9.831,0,0,0,0-19.647l-50.078-7.88c-8.756,0-18.695,7.788-25.162,3.487s-10.861-13.4-10.861-32.566V162.756a9.831,9.831,0,0,0-9.831-9.816H200.33V316.523L224.4,344.6h69v-4.163a37.282,37.282,0,0,0,9.862,9.57c11.337,7.527-.845,7.681,10.676,7.681Z" transform="translate(23.808 27.433)" fill="#0064ad" fill-rule="evenodd"/>
  <path id="Path_1996" data-name="Path 1996" d="M326.145,357.62a9.831,9.831,0,0,0,0-19.647H249.507c-8.741,0-18.587-.092-25.054-4.393s-10.861-13.4-10.861-32.566V162.761a9.831,9.831,0,0,0-19.663,0V301.013c0,27.1,8.218,41.291,19.693,48.926s24.363,7.681,35.884,7.681Z" transform="translate(20.376 27.428)" fill="#0294ff" fill-rule="evenodd"/>
  <path id="Path_1997" data-name="Path 1997" d="M334.626,461.125s50.693-150.234,54.256-166.5C392.37,279.032,414.9,256.65,319,241.212c-4.04-.645-12.166-9.033-16.59-9.662,0,0-73.028,7.988-82.076,11.49s9.616,33.242,81.753,40.262,39.079,31.89,39.079,31.89-21.66,138.559-24.317,145.518S326.239,471.264,334.626,461.125Z" transform="translate(33.401 69.579)" fill="#050a26" fill-rule="evenodd"/>
  <path id="Path_1998" data-name="Path 1998" d="M302.488,236.888c1.874.86-18.526,7.834-15.93,11.951,5.653,8.94,52.428,14.87,64.794,23.534,10.323,7.251,14.332,17.85,17.282,26.3,3.871,11.091,49.8,126.977,52.536,131.831s-6.237,12.673-9.739,14.44-8.019-4.747-8.019-4.747-59.111-108.6-76.392-135.41l-67.206.108c-55.209,0-36.068-84.672-23.15-85.931,12.2-1.183,41.6-9.447,60.785.215C309.078,225.045,297.112,236.934,302.488,236.888Z" transform="translate(35.784 60.462)" fill="#212850" fill-rule="evenodd"/>
  <path id="Path_1999" data-name="Path 1999" d="M249.337,123.67c-.138,7.8.123,15.208-.415,23.042-.108,1.536-.891,2.12-2.919,3.41-2.827,4.04,3.164,21.767,8.234,22.52s28.756-.691,30.492-1.9c1.214-.86-9.862-16.375-9.017-18.894a5.975,5.975,0,0,1-2.673-1.244c-4.731-4.224-3.072-8.218-3.072-20.507C272.886,127.08,249.337,123.67,249.337,123.67Z" transform="translate(47.905 11.74)" fill="#ea745d" fill-rule="evenodd"/>
  <path id="Path_2000" data-name="Path 2000" d="M283.509,159.022c-4.132-2.427-6.713-.522-11.659,3.81s-9.324,3.871-11.951,4.793-5.315,41.768,11.06,48.25c6.052,2.381,10.077,0,12.811-4.793C288.655,202.418,294.231,165.32,283.509,159.022Z" transform="translate(54.687 30.122)" fill="#f5f4f4" fill-rule="evenodd"/>
  <path id="Path_2001" data-name="Path 2001" d="M221.587,277.949c1.828,4.409,8.495,8.049,16.544,10.753,46.084,8.479,64.426-7.9,73.074-3.072,4.87,2.75,3.226-10.661,3.072-11.92-1.167-7.189-7.481-2.166-3.671-36.13s14.962-91.922-22.09-96.239c0,0,.338.829.86,2.366h-1.536s3,10.338-4.117,13.718-14.547-1.429-17.712-5.392a2.058,2.058,0,0,0-1.659-.814,111.875,111.875,0,0,0-7.389-8.879c-7.942,1.183-20.692,6.882-20.692,6.882-6.436,2.719-13.487,8.433-14.947,14.639-2.058,8.787,5.96,38.649,11.521,57.882C242.064,254.062,216.241,265.076,221.587,277.949Z" transform="translate(34.809 21.214)" fill="#050a26" fill-rule="evenodd"/>
  <path id="Path_2002" data-name="Path 2002" d="M265.118,159.87s11.321,69.387,13.41,82.03a9.617,9.617,0,0,1-1.536,5.853c-1.936,3.18-4.608,7.834-5.576,9.079s-1.613.323-2.75-.753-7.312-8.71-8.526-10.185c-.676-.829-1.229-1.92-1.06-4.777.968-17.635,1.9-33.795,1.628-52.9-.154-10.323-.6-20.169-1.367-26.821l1.613-5.561S265.118,157.812,265.118,159.87Z" transform="translate(55.289 28.983)" fill="#0294ff" fill-rule="evenodd"/>
  <path id="Path_2003" data-name="Path 2003" d="M269.434,155.083l-2.611,6.728a5.607,5.607,0,0,0-5.791,1.536l-5.161-5.131,2.458-4.608a13.089,13.089,0,0,1,6.544-1.383,5.453,5.453,0,0,1,4.562,2.857Z" transform="translate(53.585 27.041)" fill="#0294ff" fill-rule="evenodd"/>
  <path id="Path_2004" data-name="Path 2004" d="M245.1,141.31a17.141,17.141,0,0,0-3.072,2.258,3.579,3.579,0,0,0-.077,2.98c.645,1.813,17.543,23.4,17.543,23.4s.568.783,1.383-.077,7.957-10.676,7.957-10.676l-21.506-18.434C246.789,139.927,245.714,140.849,245.1,141.31Z" transform="translate(45.967 20.722)" fill="#fff" fill-rule="evenodd"/>
  <path id="Path_2005" data-name="Path 2005" d="M264.356,141.058h.092a7.051,7.051,0,0,1,5.607,1.137c3.072,2.949-.184,20.922-1.214,23.994h0a1.413,1.413,0,0,1-1.767.276c-.983-.6-6.145-8.188-6.145-8.188C261.836,156.788,268.3,149.169,264.356,141.058Z" transform="translate(56.297 20.974)" fill="#fff" fill-rule="evenodd"/>
  <path id="Path_2006" data-name="Path 2006" d="M259.633,141.63s19.4,51.829,21.337,76.208-13.457,80.294-14.993,83.09S229.4,319.914,217.39,319.975c-3.41-.092-6.621-4.747-5.592-8.065.614-1.966,20.569-72.966,22.335-81.016s-7.85-50.57-9.217-58.45S221.66,150.109,259.633,141.63Z" transform="translate(29.851 21.369)" fill="#312a55" fill-rule="evenodd"/>
  <path id="Path_2007" data-name="Path 2007" d="M266.87,141.73s11.413,46.576,10.753,69.71,3.456,68.773,4.27,73.274,13.595,5.7,13.595,5.7-5.376-59.326-5.376-60.969,1.29-45.731,1.536-51.138-5.561-25.208-6.529-27.343S277.162,143.681,266.87,141.73Z" transform="translate(59.482 21.423)" fill="#312a55" fill-rule="evenodd"/>
  <path id="Path_2008" data-name="Path 2008" d="M278.951,415.517s54.779.707,56.622,0,2.658-2.074,2.658-5.131v-6.575c0-2.289-.6-4.608-6.068-6.928s-5.945-3.287-10.046-4.486-11.475-14.962-12.458-15.838-3.886-.86-6.851-.86-7.681.215-9.217,4.793-7.573,5.223-9.908,3.81a2.642,2.642,0,0,0-2.78,1.874c-.538,2.074-1.536,16.483-1.751,18.019a3.487,3.487,0,0,0,.353,2.243,8,8,0,0,0-1.229,1.536,13.484,13.484,0,0,0-.261,3.287C278,412.675,277.907,415.409,278.951,415.517Z" transform="translate(65.45 146.863)" fill="#bd1449" fill-rule="evenodd"/>
  <path id="Path_2009" data-name="Path 2009" d="M325.5,394.39a14.626,14.626,0,0,0-4.1-2.381c-5.469-2.3-7.558-3.748-10.046-4.486s-1.92-1.091-3.072-2.273l-8.218-.43-.261,3.487a2.028,2.028,0,0,0-1.536,2.842c.952,2.243,8.587,5.3,15.361,5.3h9.6C325.3,396.449,325.407,395.711,325.5,394.39Z" transform="translate(76.216 151.752)" fill="#e62952" fill-rule="evenodd"/>
  <path id="Path_2010" data-name="Path 2010" d="M278.945,415.147l11.26.108c5.622-2.028,10.584-4.286,10.584-4.286s-9.417-17.7-8.894-19.34,7.22-9.6,7.22-9.6-.968-2.4-2.335-5.638a6.037,6.037,0,0,0-3.164,3.748c-1.444,4.608-7.573,5.223-9.908,3.81a2.642,2.642,0,0,0-2.78,1.874c-.538,2.074-1.536,16.5-1.751,18.019a3.487,3.487,0,0,0,.353,2.243,8,8,0,0,0-1.229,1.536,13.491,13.491,0,0,0-.261,3.287C277.993,412.3,277.9,415.039,278.945,415.147Z" transform="translate(65.457 147.233)" fill="#831d47" fill-rule="evenodd"/>
  <path id="Path_2011" data-name="Path 2011" d="M317.128,392.638l-.829-.23c-4.117-1.2-11.475-14.962-12.473-15.838s-3.871-.86-6.836-.86c-2.212,0-5.469.108-7.558,2.1h0c-.369.384-1.813,2.243,1.966,5.561,4.255,3.7,10.031,8.51,12.289,9.493S311.015,392.961,317.128,392.638Z" transform="translate(71.268 146.868)" fill="#e62952" fill-rule="evenodd"/>
  <path id="Path_2012" data-name="Path 2012" d="M335.64,397.023c-1.644.645-52.935,0-56.038,0s-1.029,1.029-1.229,1.536a13.49,13.49,0,0,0-.261,3.287c0,1.413-.138,4.148.906,4.255,0,0,54.779.707,56.622,0s2.658-2.074,2.658-5.131V393.26a3.825,3.825,0,0,1-2.658,3.763Z" transform="translate(65.384 156.277)" fill="#fff" fill-rule="evenodd"/>
  <path id="Path_2013" data-name="Path 2013" d="M300.552,377.138a.784.784,0,0,0-.108-.906c-.215-.307-.538-.415-.691-.23l-2.458,2.75-6.037-1.536c-.276-.077-.445.169-.384.522a.968.968,0,0,0,.6.768l4.931,1.275-1.782,1.982a.845.845,0,0,0,.107.906l.184.184a.876.876,0,0,0,.522.522l4.916,1.26-1.767,1.982c-.169.184-.108.584.108.906a.661.661,0,0,0,.492.323l5.315,1.367-1.413,1.9h-.092v.292h0v.092h0v.092h.584l7.942-1.29h.169a.676.676,0,0,0,0-.369h0a1,1,0,0,0-.108-.323h0a.676.676,0,0,0-.323-.246h0l-4.608-1.2,1.536-2.058a.845.845,0,0,0-.138-.922.63.63,0,0,0-.461-.292l-4.87-1.26,1.767-1.982a.783.783,0,0,0-.108-.906.66.66,0,0,0-.169-.184.968.968,0,0,0-.522-.522l-4.931-.922,1.766-1.982Zm4.486,13.579.86-1.167,2.427.63-3.287.538ZM300.2,386.8l1.644-1.859,4.87,1.26-1.429,1.9Zm-4.194-4.608,1.889-2.12,5.254,1.352-1.889,2.12Z" transform="translate(72.345 146.976)" fill="#fff" fill-rule="evenodd"/>
  <path id="Path_2014" data-name="Path 2014" d="M348.168,392.5s53.98-27.313,55.3-28.772,1.367-3.072,0-5.668l-2.965-5.7c-1.029-2-2.627-3.764-8.433-3.287s-12.642,2.965-16.759,3.779-16.759-7.819-18.019-8.126-3.764.983-6.344,2.32-6.636,3.7-5.822,8.357-4.224,7.973-6.882,7.8a2.565,2.565,0,0,0-1.536,2.888c.476,2.043,6.145,15.07,6.636,16.467a3.441,3.441,0,0,0,1.306,1.782,7.758,7.758,0,0,0-.353,1.89,12.8,12.8,0,0,0,1.244,2.965C346.094,390.441,347.216,392.868,348.168,392.5Z" transform="translate(96.897 130.232)" fill="#bd1449" fill-rule="evenodd"/>
  <path id="Path_2015" data-name="Path 2015" d="M387.021,347.8a14.241,14.241,0,0,0-4.608-.23c-5.791.492-12.642,2.965-16.759,3.779a7.681,7.681,0,0,1-3.656-.614l-7.327,3.333,1.352,3.164a2,2,0,0,0,0,3.164c1.828,1.536,9.862.722,15.745-2.35l14.347-7.466a1.92,1.92,0,0,0,.906-2.78Z" transform="translate(106.555 131.734)" fill="#e62952" fill-rule="evenodd"/>
  <path id="Path_2016" data-name="Path 2016" d="M348.195,390.4l9.862-4.992c3.963-4.317,7.251-8.541,7.251-8.541s-16.206-11.122-16.483-12.8,1.92-11.629,1.92-11.629-1.92-1.628-4.608-3.84a5.945,5.945,0,0,0-1.06,4.7c.83,4.608-4.224,7.973-6.882,7.8a2.565,2.565,0,0,0-1.536,2.888c.476,2.043,6.145,15.069,6.636,16.467a3.441,3.441,0,0,0,1.306,1.782,7.754,7.754,0,0,0-.353,1.889,12.8,12.8,0,0,0,1.244,2.965C346.121,388.34,347.242,390.767,348.195,390.4Z" transform="translate(96.87 132.333)" fill="#831d47" fill-rule="evenodd"/>
  <path id="Path_2017" data-name="Path 2017" d="M373.113,352.683l-.83.169c-4.117.814-16.759-7.819-18.019-8.126s-3.764.983-6.344,2.32c-1.936,1.014-4.7,2.6-5.622,5.269h0c-.154.492-.553,2.765,4.224,3.933,5.392,1.306,12.6,2.873,14.947,2.719S368,355.725,373.113,352.683Z" transform="translate(99.879 130.232)" fill="#e62952" fill-rule="evenodd"/>
  <path id="Path_2018" data-name="Path 2018" d="M396.7,353.484c-1.229,1.383-49.325,25.761-54.779,28.511a7.757,7.757,0,0,0-.353,1.889,12.8,12.8,0,0,0,1.244,2.965c.645,1.244,1.766,3.671,2.719,3.3,0,0,53.98-27.313,55.3-28.772s1.367-3.072,0-5.668l-2.965-5.7a7.415,7.415,0,0,0-.568-.952,3.825,3.825,0,0,1-.6,4.424Z" transform="translate(99.531 132.58)" fill="#fff" fill-rule="evenodd"/>
  <path id="Path_2019" data-name="Path 2019" d="M351.9,346.025a.921.921,0,0,0-.507-.737c-.338-.184-.661-.123-.722.123l-.891,3.487-5.96,1.4c-.261,0-.307.338-.092.63a.983.983,0,0,0,.876.4l4.854-1.137-.645,2.535a.9.9,0,0,0,.507.737.8.8,0,0,0,.246.092.936.936,0,0,0,.676.215l4.854-1.137-.63,2.519a.922.922,0,0,0,.507.753.707.707,0,0,0,.568,0l5.254-1.229-.384,2.3h0v.077h0v.077h.737l6.314-4.731h0l.077-.077h0a.568.568,0,0,0-.123-.338h0a.876.876,0,0,0-.246-.23h-.077a.629.629,0,0,0-.4,0h0l-4.608,1.075.4-2.5a.9.9,0,0,0-.538-.722.691.691,0,0,0-.538,0l-4.808,1.121.645-2.519a.9.9,0,0,0-.507-.737.8.8,0,0,0-.246-.092.86.86,0,0,0-.676-.215l-4.854,1.137.645-2.535Zm10.031,9.785.23-1.4,2.4-.553Zm-5.96-1.167.6-2.366,4.793-1.106-.369,2.3-5.023,1.167Zm-5.7-2.058.691-2.7,5.177-1.214-.676,2.7Z" transform="translate(100.615 130.5)" fill="#fff" fill-rule="evenodd"/>
  <path id="Path_2020" data-name="Path 2020" d="M309.232,71.4c-3.287-1.352-7.834-.707-13.441,3.072a34.16,34.16,0,0,0-3.671-2.888c-2.873,10.369-12.059,21.291-29.325,18.434-14.532-2.335-21.675-9.509-25.07-14.931a19.969,19.969,0,0,0-2.1,3.472c8.357,13.626,33.3,23.979,53.642,16.667A29.6,29.6,0,0,0,309.232,71.4Z" transform="translate(42.728 -16.633)" fill="#0f1630" fill-rule="evenodd"/>
  <path id="Path_2021" data-name="Path 2021" d="M282.062,107.182a5.56,5.56,0,0,1,.707.092h0a9.708,9.708,0,1,1-8.019,2.227c-.154,2.873.415,6.39,4.086,6.621l-.307-5.576a3.349,3.349,0,0,1,3.533-3.364Z" transform="translate(61.91 2.898)" fill="#eb6b5d" fill-rule="evenodd"/>
  <path id="Path_2022" data-name="Path 2022" d="M235.613,108.75l-.691.154h0a9.678,9.678,0,1,0,8.157,1.659c.338,2.857,0,6.406-3.625,6.9l-.092-5.592a3.318,3.318,0,0,0-3.748-3.118Z" transform="translate(38.418 3.726)" fill="#eb6b5d" fill-rule="evenodd"/>
  <path id="Path_2023" data-name="Path 2023" d="M297.2,91.38c1.459,3.533,2.658,5.945,2.8,9.985l1.045,30.247a33.273,33.273,0,0,1-32.028,34.3h0a33.257,33.257,0,0,1-34.3-32.028l-1.045-30.17A25.177,25.177,0,0,1,235,93.592c5.469-1.736,17.282-3.226,31.015-3.687S291.637,90.012,297.2,91.38Z" transform="translate(41.643 -6.447)" fill="#f4ad85" fill-rule="evenodd"/>
  <path id="Path_2024" data-name="Path 2024" d="M279.763,163.683a32.551,32.551,0,0,1-10.753,2.2h0a33.257,33.257,0,0,1-34.3-32.028l-1.045-30.17A25.177,25.177,0,0,1,235,93.558c5.469-1.736,17.282-3.226,31.015-3.687a170.019,170.019,0,0,1,27.743.906h.184l3.518,6.5.307,10.907c-.123-4.332-6.867-7.85-16.022-7.542l-26.928.922c-5.361.184-9.217,2.7-8.94,13.011s.63,18.434.906,26.468S252.957,169.428,279.763,163.683Z" transform="translate(41.643 -6.49)" fill="#ef8871" fill-rule="evenodd"/>
  <path id="Path_2025" data-name="Path 2025" d="M301.579,126.492s-2.55-1.8-2.842-10.292-.123-3.641-.277-8.065-5.976-12.12-14.947-11.813l-32.336,1.121c-8.971.307-11.782,8.157-11.629,12.581s-.169-4.839.123,3.641-4.608,10.123-4.608,10.123c-.154-4.608-2.212-4.317-2.212-4.317s-.307-9.017-.584-16.9a37.359,37.359,0,0,1,.6-8.172h0c.952-2.442,15.868-4.87,34.21-5.5s33.4.768,34.5,3.072h0a37.892,37.892,0,0,1,1.152,8.126c.261,7.865.568,16.9.568,16.9S301.349,119.764,301.579,126.492Z" transform="translate(40.918 -6.981)" fill="#050a26" fill-rule="evenodd"/>
  <path id="Path_2026" data-name="Path 2026" d="M256.507,124.744a8.587,8.587,0,0,0,17.174.092h0a1.536,1.536,0,0,0-1.536-1.536H257.966a1.536,1.536,0,0,0-1.536,1.536Z" transform="translate(53.885 11.542)" fill="#050a26" fill-rule="evenodd"/>
  <path id="Path_2027" data-name="Path 2027" d="M258.54,129.5a8.479,8.479,0,0,0,5.376,1.92,8.341,8.341,0,0,0,4.608-1.275,5.33,5.33,0,0,0-4.885-3.18A5.392,5.392,0,0,0,258.54,129.5Z" transform="translate(55.016 13.496)" fill="#e74862" fill-rule="evenodd"/>
  <path id="Path_2028" data-name="Path 2028" d="M271.5,123.34H258.164a3.072,3.072,0,0,0,1.444,3.287c1.2.4,10.845.2,11.536-.553A5.115,5.115,0,0,0,271.5,123.34Z" transform="translate(54.778 11.563)" fill="#fff" fill-rule="evenodd"/>
  <path id="Path_2029" data-name="Path 2029" d="M251.329,119.662a4.363,4.363,0,1,1-3.015,1.45,4.363,4.363,0,0,1,3.015-1.45Z" transform="translate(48.939 9.588)" fill="#eb6b5d" fill-rule="evenodd"/>
  <path id="Path_2030" data-name="Path 2030" d="M274.9,118.392a4.347,4.347,0,1,1-3.02,1.445A4.363,4.363,0,0,1,274.9,118.392Z" transform="translate(61.575 8.907)" fill="#eb6b5d" fill-rule="evenodd"/>
  <path id="Path_2031" data-name="Path 2031" d="M277.359,105.631a1.183,1.183,0,1,0,1.045-2.12,11.06,11.06,0,0,0-10.369.169,1.172,1.172,0,1,0,1.229,2,8.679,8.679,0,0,1,8.1-.046Z" transform="translate(59.807 0.285)" fill="#050a26" fill-rule="evenodd"/>
  <path id="Path_2032" data-name="Path 2032" d="M249.27,105.125a8.664,8.664,0,0,1,8.111-.138,1.167,1.167,0,0,0,1.536-.43,1.183,1.183,0,0,0-.415-1.536,11.06,11.06,0,0,0-10.369,0,1.2,1.2,0,0,0,1.137,2.1Z" transform="translate(49.109 -0.022)" fill="#050a26" fill-rule="evenodd"/>
  <path id="Path_2033" data-name="Path 2033" d="M252.563,110.931h0a3.226,3.226,0,0,0-3.072,3.318l.108,3.18a3.226,3.226,0,0,0,3.318,3.072h0a3.226,3.226,0,0,0,3.072-3.318l-.108-3.18A3.226,3.226,0,0,0,252.563,110.931Z" transform="translate(50.163 4.91)" fill="#050a26" fill-rule="evenodd"/>
  <path id="Path_2034" data-name="Path 2034" d="M264.107,117.761a16.791,16.791,0,0,1,2.473,3.84c.2,1.06-2.151,1.751-3.81,1.352-1.167-.277-1.075-2.888-.8-4.608S262.755,116.041,264.107,117.761Z" transform="translate(56.761 8.018)" fill="#f7c6b0" fill-rule="evenodd"/>
  <path id="Path_2035" data-name="Path 2035" d="M235.089,107.235c5.1,22.919,20.385,14.01,12.535,5.73,15.638-6.529,38.926,7.681,57.9-3.487,23.042-13.518,17.036-48.45-4.854-32.9C282.463,59.2,241.8,61.751,238.637,87.558,230.941,72.427,217.561,103.149,235.089,107.235Z" transform="translate(37.821 -19.461)" fill="#212850" fill-rule="evenodd"/>
  <path id="Path_2036" data-name="Path 2036" d="M313.409,92.4c4.962-12.289.2-25.177-11.183-21.66C294.745,104,245.02,95.769,238.092,74.279a22.2,22.2,0,0,0-2.642,4.608C249.92,108,292.348,106.568,313.409,92.4Z" transform="translate(42.637 -16.95)" fill="#3a2689" fill-rule="evenodd"/>
  <path id="Path_2037" data-name="Path 2037" d="M272.383,110.76h0a3.241,3.241,0,0,0-3.072,3.333l.108,3.18a3.226,3.226,0,0,0,3.318,3.072h0a3.211,3.211,0,0,0,3.072-3.333l-.108-3.164a3.226,3.226,0,0,0-3.318-3.088Z" transform="translate(60.79 4.818)" fill="#050a26" fill-rule="evenodd"/>
  <path id="Path_2038" data-name="Path 2038" d="M297.321,109.608c-3.564-4.762-11.721-3.456-17.266-2.519-2.535.415-5.453-.384-7.926-.43s-5.423.63-7.942.108a39.447,39.447,0,0,0-9.616-1.106c-6.836.154-11.014,1.8-12.366,3.456a5.7,5.7,0,0,0-.2,5.515c.553,1,.768,3.84,1.72,6.59a10.077,10.077,0,0,0,8.311,7.527,12.9,12.9,0,0,0,10.845-2.6,23.61,23.61,0,0,0,7.389-13.119,3.257,3.257,0,0,1-2.243-3.518s2.151-.154,4.04-.123,4.04.292,4.04.292a3.272,3.272,0,0,1-2.366,3.426c2.688,15.914,15.914,23.15,21.583,8.541,1.06-2.7,1.382-5.545,1.982-6.529a5.669,5.669,0,0,0,0-5.515Zm-30.415,4.7h0a20.093,20.093,0,0,1-4.608,10.246c-3.2,3.625-8.51,3.41-10.983,2.627a8.172,8.172,0,0,1-5.868-5.837c-1.321-3.81-1.075-9.217.645-11.183s5.3-2.9,7.88-3.072a22.842,22.842,0,0,1,8.787,1.152c2.949.876,3.856,2.4,4.1,3.794a8.618,8.618,0,0,1,0,2.273Zm26.729,7.4h0c-4.486,11.4-15.761,6.651-16.5-7.189a8.293,8.293,0,0,1,.077-2.289c.307-1.383,1.26-2.857,4.24-3.61,4.747-1.214,8.986-1.936,11.982,1.874,1.6,2.089,1.628,7.45.154,11.214Z" transform="translate(45.821 2.084)" fill="#050a26" fill-rule="evenodd"/>
  <path id="Path_2039" data-name="Path 2039" d="M246.718,107.81c.461,0,.86.522.891,1.152s-.338,1.167-.8,1.167H234.952c-.461,0-.86-.522-.891-1.167s.323-1.152.783-1.152Z" transform="translate(41.891 3.237)" fill="#050a26" fill-rule="evenodd"/>
  <path id="Path_2042" data-name="Path 2042" d="M172.97,149.7s-5.929-9.355-8.449-12.458-7.926-2.9-10.661-3.886-7.02-2.181-7.8-2.565-1.536,2.873-.4,4.47a28.02,28.02,0,0,0,5.638,5.085c-1.536,1.767-3.825,1.9-5.269,2.627-6.283,3.072-12.12-2.012-19.248-2.243-2.535-.077-4.608,1.137-4.608,3.149,0,.86.922,2.043,2.381,3.5a5.115,5.115,0,0,0,.6,1.4,17.515,17.515,0,0,0,2.581,1.536l1.075.922a13.641,13.641,0,0,0,3.963,3.333c5.515,4.608,19.6,2.489,25.915,1.413a4.762,4.762,0,0,1,4.608,1.782l2.627,3.226Z" transform="translate(-18.097 15.541)" fill="#f4ad85" fill-rule="evenodd"/>
  <path id="Path_2043" data-name="Path 2043" d="M167.375,146.891S162.936,139.9,160.11,136a9.079,9.079,0,0,1-.737,9.539c-4.608,6.145-17.481,8.264-23.994,8.449-4.716.138-1.8,0-2.627,0,6.59,1.306,15.684-.108,20.415-.906a4.762,4.762,0,0,1,4.608,1.782l2.627,3.226Z" transform="translate(-12.502 18.351)" fill="#ef8871" fill-rule="evenodd"/>
  <path id="Path_2044" data-name="Path 2044" d="M123.507,142.448l.568.584a4.746,4.746,0,0,0,.384,1,4.609,4.609,0,0,1,2.227-3.072c1.828-.691,4.286.937,7.8,1.536a69.452,69.452,0,0,0,9.524.445l-.445-1.536a12.467,12.467,0,0,0-1.536.246,38.4,38.4,0,0,1-11.582-1.889c-4.608-1.536-5.423-1.137-7.251,1.644l.353.983Zm3.349,3.287c1.4-2.442,2.12-2.8,6.145-1.751a33.964,33.964,0,0,0,10.231.968c1.137-.246,1.352-.323,1.352-.323l.476,1.29a59.134,59.134,0,0,1-8.326.184c-3.072-.292-5.346-1.536-6.9-.86a3.072,3.072,0,0,0-1.444,1.72v-.123l-1.075-.922-.4-.184Zm5.545,4.532a7.585,7.585,0,0,0,1,.676,2.488,2.488,0,0,1,.952-1.644c1.029-.63,2.719.092,4.946,0a44.062,44.062,0,0,0,5.853-.814l-.43-.86-.937.323a23.5,23.5,0,0,1-7.3.154c-2.98-.4-3.441,0-4.255,1.828Z" transform="translate(-17.545 19.891)" fill="#ef8871" fill-rule="evenodd"/>
  <path id="Path_2045" data-name="Path 2045" d="M137.123,131.93a3.164,3.164,0,0,0,.568,2.7,36.069,36.069,0,0,0,5.576,5.407l-.154.154c1.628-.968,4.839-1.536.722-2.949A17.973,17.973,0,0,1,137.123,131.93Z" transform="translate(-10.131 16.169)" fill="#ef8871" fill-rule="evenodd"/>
  <path id="Path_2046" data-name="Path 2046" d="M157.555,139.33c-3.917,5.668-12.735,12.719-12.735,12.719l9.217,3.717s7.88-5.039,8-7.681S157.555,139.33,157.555,139.33Z" transform="translate(-5.953 20.136)" fill="#b4b5b5" fill-rule="evenodd"/>
  <path id="Path_2047" data-name="Path 2047" d="M136.007,139.7c-.445,8.311,6.805,12.289,6.805,12.289s-7.036-8.817-4.885-11.582c.86-1.121,1.644-1.536,1.644-1.859S138.219,138.483,136.007,139.7Z" transform="translate(-10.689 19.647)" fill="#ef8871" fill-rule="evenodd"/>
  <path id="Path_2048" data-name="Path 2048" d="M145.75,152.924S192.218,195.076,198.5,198.9s16.452,5.453,26.836,2.78,45.884-12.289,51.368-15.822,14.209-18.019,10.108-32.843c0,0,6.575-11.091-10.645-4.839s-57.836,22.8-61.507,23.856a16.59,16.59,0,0,1-13.241-.983c-5.423-2.734-42.536-30.631-42.536-30.631C158.254,145.044,152.279,149.883,145.75,152.924Z" transform="translate(-5.455 20.721)" fill="#312a55" fill-rule="evenodd"/>
  <path id="Path_2049" data-name="Path 2049" d="M387.559,147.38a27.082,27.082,0,0,1-6.974-4.9c-10.753,10.476-37.912,36.652-45.255,40.738-9.217,5.115-37.9-2.565-56.33-12.289,0,0,.492,5.438,1.244,13.026,11.736,3.5,25.054,7.051,30.723,8.526,10.384,2.673,20.584,1.106,26.852-2.78S387.559,147.38,387.559,147.38Z" transform="translate(65.985 21.825)" fill="#3e3e7f" fill-rule="evenodd"/>
  <path id="Path_2050" data-name="Path 2050" d="M242.925,166s-6.774,1.536-15.945,3.7c3.211,15.561,8.541,41.967,7.174,48.127-1.767,8.049-21.721,79.05-22.335,81.016-1.029,3.318,2.181,7.973,5.592,8.065a26.874,26.874,0,0,0,4.808-.6c1.106-19.4,13.1-48.419,18.664-70.662C247.533,209.012,242.925,166,242.925,166Z" transform="translate(29.862 34.435)" fill="#3e3e7f" fill-rule="evenodd"/>
  <path id="Path_2051" data-name="Path 2051" d="M278.656,181.251c-.23-2.857-.415-4.532-.415-4.532s-54.272,12.8-63.488,13.825c-8.94,1-46.714-21.506-62.551-44.394a39.261,39.261,0,0,1-6.452,3.779S192.218,192,198.5,195.829s16.452,5.453,26.836,2.78,45.884-12.289,51.368-15.822a13.154,13.154,0,0,0,1.951-1.536Z" transform="translate(-5.455 23.793)" fill="#3e3e7f" fill-rule="evenodd"/>
  <path id="Path_2052" data-name="Path 2052" d="M451.269,179.111s-5.929-9.355-8.449-12.458-7.911-2.9-10.645-3.886-7.02-2.181-7.819-2.565-1.536,2.873-.4,4.47a28.019,28.019,0,0,0,5.638,5.085c-1.536,1.767-3.81,1.9-5.254,2.627-6.283,3.072-12.135-2-19.263-2.243-2.519,0-4.608,1.137-4.516,3.149,0,.86.922,2.058,2.381,3.5a5.113,5.113,0,0,0,.6,1.4,16.739,16.739,0,0,0,2.581,1.536l1.075.922a13.411,13.411,0,0,0,3.963,3.333c5.515,4.608,19.586,2.489,25.9,1.413a4.747,4.747,0,0,1,4.608,1.782l2.627,3.226Z" transform="translate(131.157 31.309)" fill="#f4ad85" fill-rule="evenodd"/>
  <path id="Path_2053" data-name="Path 2053" d="M445.7,176.3s-4.424-6.989-7.266-10.891a9.048,9.048,0,0,1-.722,9.539c-4.608,6.145-17.481,8.264-23.994,8.449-4.716.138-1.8,0-2.627,0,6.575,1.306,15.669-.092,20.4-.906a4.747,4.747,0,0,1,4.608,1.782l2.627,3.226Z" transform="translate(136.726 34.119)" fill="#ef8871" fill-rule="evenodd"/>
  <path id="Path_2054" data-name="Path 2054" d="M401.853,171.858l.568.584a4.607,4.607,0,0,0,.369,1,4.608,4.608,0,0,1,2.227-3.072c1.828-.691,4.286.952,7.819,1.536a69.131,69.131,0,0,0,9.509.445l-.445-1.536a12.468,12.468,0,0,0-1.536.246,38.1,38.1,0,0,1-11.6-1.889c-4.608-1.536-5.407-1.137-7.235,1.644l.353.983Zm3.349,3.287c1.383-2.442,2.12-2.8,6.145-1.751a33.365,33.365,0,0,0,10.215.968l1.367-.307.476,1.29a60.17,60.17,0,0,1-8.326.169c-3.072-.292-5.361-1.536-6.9-.86a3.072,3.072,0,0,0-1.444,1.72l-.077-.123-1.075-.922-.4-.184Zm5.545,4.532a7.425,7.425,0,0,0,.983.676,2.489,2.489,0,0,1,.952-1.644c1.045-.63,2.734.092,4.946,0a42.331,42.331,0,0,0,5.868-.8l-.445-.876-.937.323a23.472,23.472,0,0,1-7.3.154c-2.98-.4-3.441,0-4.24,1.828Z" transform="translate(131.678 35.658)" fill="#ef8871" fill-rule="evenodd"/>
  <path id="Path_2055" data-name="Path 2055" d="M415.467,161.34a3.072,3.072,0,0,0,.553,2.7,36.763,36.763,0,0,0,5.576,5.407l-.138.154c1.628-.968,4.823-1.536.722-2.949A17.972,17.972,0,0,1,415.467,161.34Z" transform="translate(139.093 31.937)" fill="#ef8871" fill-rule="evenodd"/>
  <path id="Path_2056" data-name="Path 2056" d="M414.307,169.106c-.445,8.311,6.805,12.289,6.805,12.289s-7.02-8.817-4.885-11.582c.876-1.121,1.659-1.536,1.659-1.859S416.565,167.893,414.307,169.106Z" transform="translate(138.518 35.415)" fill="#ef8871" fill-rule="evenodd"/>
  <path id="Path_2057" data-name="Path 2057" d="M512.672,145.21a35.418,35.418,0,0,0-5.192,2.75c-1.536,1.152-6.436,5.96-13.149,19.632s-15.285,35.792-16.682,38.572-4.224.461-5.039-.169-37.528-24.163-37.528-24.163c-.891-.492-.6,6.559-2.811,8.572-2.734,2.489-7.051,2.473-5.484,4.608,1.4,1.859,35.454,35.515,41.122,39.448s14.778,5.714,21.275-2.427,17.543-24.163,17.543-24.163Z" transform="translate(145.04 23.289)" fill="#dbdcdc" fill-rule="evenodd"/>
  <path id="Path_2058" data-name="Path 2058" d="M511.429,145.21a35.426,35.426,0,0,0-5.192,2.75c-1.536,1.152-6.436,5.96-13.149,19.632s-15.285,35.792-16.682,38.572-4.224.461-5.039-.169-37.528-24.163-37.528-24.163c-.891-.492-.6,6.559-2.811,8.572a9.91,9.91,0,0,1-2.258,1.536c10.753,10.661,29.632,29.033,33.795,31.875,5.668,3.948,14.778,5.714,21.275-2.427s17.481-24.117,17.481-24.117l7.266-21.921Z" transform="translate(146.282 23.289)" fill="#fff" fill-rule="evenodd"/>
  <path id="Path_2059" data-name="Path 2059" d="M494.614,88.538s-7.373.753-11.168,3.333-9.847,40.185-22.812,58.788a2.535,2.535,0,0,0,.2,2.412c.783,1.536,4.962,1.536,8.234-.077,12.627,23.042,64.825,33,84.38,21.936,12.75-7.22,17.1-14.854,18.08-20.984a18.28,18.28,0,0,0-2.243-12.289s6.145,2.335,7.8-1.26-3.072-4.163-7.281-23.81-13.349-42.351-46.33-47.728Z" transform="translate(163.251 -17.645)" fill="#212850" fill-rule="evenodd"/>
  <path id="Path_2060" data-name="Path 2060" d="M490.989,82.05a22.811,22.811,0,0,0-7.542,2.75c-3.794,2.6-9.893,40.247-22.812,58.788a2.535,2.535,0,0,0,.2,2.412c.783,1.536,4.962,1.536,8.234-.077,12.627,23.042,64.825,33,84.38,21.936,12.75-7.22,17.1-14.854,18.08-20.984a18.28,18.28,0,0,0-2.243-12.289s6.145,2.335,7.8-1.26-3.072-4.163-7.281-23.81c-.215-1.075-.461-2.166-.722-3.257-9.693,5.976-27.174,12.443-48.235.968C500.083,95.967,493.232,87.027,490.989,82.05Z" transform="translate(163.251 -10.574)" fill="#050a26" fill-rule="evenodd"/>
  <path id="Path_2061" data-name="Path 2061" d="M582.185,476.491a7.358,7.358,0,0,1-14.624,1.536l-16.606-155.81a18.326,18.326,0,0,0-6.037-11.49,18.034,18.034,0,0,0-11.951-4.777H470.892a17.957,17.957,0,0,0-11.859,4.854,18.265,18.265,0,0,0-6.052,11.49l-16.59,155.841a7.358,7.358,0,1,1-14.624-1.536l16.59-155.826a33.6,33.6,0,0,1,32.612-29.463h62.075a33.6,33.6,0,0,1,32.612,29.463Z" transform="translate(142.487 101.618)" fill="#a3a6c4" fill-rule="evenodd"/>
  <path id="Path_2062" data-name="Path 2062" d="M627.44,476.529a7.358,7.358,0,0,1-14.624,1.536l-16.59-155.841a18.341,18.341,0,0,0-6.052-11.49,17.957,17.957,0,0,0-11.936-4.777H516.208a17.957,17.957,0,0,0-11.982,4.885,18.264,18.264,0,0,0-6.052,11.49l-16.59,155.841a7.36,7.36,0,1,1-14.639-1.536L483.55,320.811a33.6,33.6,0,0,1,32.658-29.571h62.075A33.6,33.6,0,0,1,610.9,320.7Z" transform="translate(166.727 101.581)" fill="#fff" fill-rule="evenodd"/>
  <path id="Path_2063" data-name="Path 2063" d="M443.727,362.68a9.831,9.831,0,1,1,0-19.647H493.9c8.741,0,18.587-.092,25.07-4.393s10.845-13.4,10.845-32.566V167.821a9.846,9.846,0,0,1,9.831-9.831H632.7v163.6l-24.041,28.065H579.844v-4.24a37.5,37.5,0,0,1-9.877,9.555c-11.321,7.527-24.363,7.681-35.884,7.681Z" transform="translate(148.822 30.141)" fill="#050a26" fill-rule="evenodd"/>
  <path id="Path_2064" data-name="Path 2064" d="M487.047,362.816a9.831,9.831,0,1,1,0-19.647h76.684c8.756,0,18.587-.092,25.054-4.393s10.876-13.4,10.876-32.566V167.957a9.831,9.831,0,1,1,19.647,0V306.209c0,27.1-8.218,41.291-19.693,48.911s-24.363,7.681-35.884,7.681Z" transform="translate(172.048 30.005)" fill="#212850" fill-rule="evenodd"/>
  <path id="Path_2065" data-name="Path 2065" d="M452.151,375.58l5.33,4.071-3.072,33.795s-.123,2.489-1.26,2.489h-1.874s-.876-.246-.783-1.72.891-33.442.891-33.442Z" transform="translate(157.925 146.798)" fill="#bd1449" fill-rule="evenodd"/>
  <path id="Path_2066" data-name="Path 2066" d="M465.8,368.648s7,3.917,7.681,5.346,2.1,7.819.446,10.139-6.529,4.148-7.681,5.576-6.989,26.237-6.989,26.237a5.853,5.853,0,0,1-6.022,4.424H422.588a2.043,2.043,0,0,1-1.429-2.289,9.4,9.4,0,0,1,1.69-3.917,5.715,5.715,0,0,1,5.377-2.581l15.976-4.255,9.217-23.15,5.914-16.467S463.941,366.129,465.8,368.648Z" transform="translate(142.187 142.317)" fill="#e62952" fill-rule="evenodd"/>
  <path id="Path_2067" data-name="Path 2067" d="M443.507,354.988c4.178,6.3,4.793,22.028,4.47,23.288-1.321,5.1-5.607,19.57-7.066,24.578-3.61,12.289-8.341,11.644-10.523,11.644a4.839,4.839,0,0,0-4.608,3.994h16.9a6.713,6.713,0,0,0,6.605-5.115c1.06-3.072,7.819-31.353,8.495-34.133a5.346,5.346,0,0,1,5.561-3.687l-2.2-19.97C455.719,358.4,447.962,352.591,443.507,354.988Z" transform="translate(144.679 135.439)" fill="#f4ad85" fill-rule="evenodd"/>
  <path id="Path_2068" data-name="Path 2068" d="M447.962,373.986a45.846,45.846,0,0,1,4.977.261c.814.246,1.275,2.258.753,4.808s-8.188,28.956-8.863,31.122-3.441,4.24-13.426,4.3h-1.214a4.823,4.823,0,0,0-4.439,3.979h16.9a6.713,6.713,0,0,0,6.605-5.115c1.06-3.072,7.819-31.352,8.495-34.133a5.346,5.346,0,0,1,5.561-3.687l-2.2-19.97c-5.392,2.811-13.149-2.949-17.6-.553C446.457,359.423,447.64,368.532,447.962,373.986Z" transform="translate(144.663 135.443)" fill="#ef8c6f" fill-rule="evenodd"/>
  <path id="Path_2069" data-name="Path 2069" d="M469.732,369.69a12.644,12.644,0,0,1,3.671,2.98c.6,1.429,2.1,7.819.445,10.139s-6.529,4.148-7.681,5.576-6.989,26.237-6.989,26.237a5.853,5.853,0,0,1-6.022,4.424H422.588a2.043,2.043,0,0,1-1.429-2.289,5.793,5.793,0,0,1,.707-2.227h25.423c4.055,0,6.467-1.29,7.512-3.472s9.77-35.254,10.983-37.589A14.408,14.408,0,0,1,469.732,369.69Z" transform="translate(142.187 143.64)" fill="#bd1449" fill-rule="evenodd"/>
  <path id="Path_2070" data-name="Path 2070" d="M501.21,382.856l-5.392,9.217a9.986,9.986,0,0,0-2.32,4.209c-.4,2.135-2.55,16.3-2.934,18.357s.691,7.22,5.469,7.22h15.361c4.1,0,9.478-3.7,9.478-11.029V379.523c0-7.22-1.444-14.993-7.9-14.993S501.21,382.856,501.21,382.856Z" transform="translate(179.375 140.874)" fill="#e62952" fill-rule="evenodd"/>
  <path id="Path_2071" data-name="Path 2071" d="M494.391,360.712l-1.751,7s1.06,3.441,1.751,5.192,0,34.686.292,36.145,1.659,2.243,3.518,2.243h6.145c1.536,0,4.286-.676,4.885-5.945s2.535-25.008,3.072-31.061-1.367-9.862-2.642-13.472S494.391,360.712,494.391,360.712Z" transform="translate(180.525 138.01)" fill="#ef8871" fill-rule="evenodd"/>
  <path id="Path_2072" data-name="Path 2072" d="M493.91,369.51c.246,5.76,0,21.368,0,29.294h6.544c2.4,0,3.364-.722,3.364-3.564v-20.8c0-4.148-1.459-4.931-4.194-4.931Z" transform="translate(181.206 143.544)" fill="#f4ad85" fill-rule="evenodd"/>
  <path id="Path_2073" data-name="Path 2073" d="M519.625,123.23c1.321,19.97.246,25.162,6.36,28.311,7.589,7.681-.138,16.037-5.515,16.99s-31.675-3.5-33.472-4.747c-1.244-.86,6.421-7.973,5.592-10.6.568-.154,0,0,.492-.169,6.9-2.074,5.238-9.463,4.424-21.629C494.54,128.33,519.625,123.23,519.625,123.23Z" transform="translate(177.427 11.504)" fill="#ea745d" fill-rule="evenodd"/>
  <path id="Path_2074" data-name="Path 2074" d="M534.183,141.66s-8.725,10.615-18.941,11.275a13.272,13.272,0,0,1-13.825-9.77s-11.828,3.717-12.8,3.979-15.361,36.867-16.9,44.64,8.94,29.847,10.062,37.743-3.2,62.843-4.132,68.22c0,0-.215,2.535,5.085,4.47s22.965,3.072,29.924,2.7,51.983-14.947,58.373-21.03c0,0,1.045-1.075,0-4.424s-13.687-42.121-13.825-47.62,8.28-78.189,8.28-78.189a23.335,23.335,0,0,0-6.052-4.608C555.182,146.652,534.183,141.66,534.183,141.66Z" transform="translate(169.229 21.385)" fill="#ffbcc8" fill-rule="evenodd"/>
  <path id="Path_2075" data-name="Path 2075" d="M471.68,186.207c1.429,9.739,9.017,26.56,9.97,33.242a22.059,22.059,0,0,1,.169,2.5c3.072-.538,7.174-1.183,12.289-1.874,16.9-2.32,36.376.691,36.376.691l-49.341,21.414c-.2,3.441-.43,7.035-.661,10.645l9.447,5.929,58.158-13.441s6.252,7.88,6.713,22.7c.184,5.607,0,10.261-.184,13.825,7.819-3.072,14.194-5.991,16.329-8,0,0,1.045-1.075,0-4.424S557.258,227.3,557.12,221.8c0-1.26.4-5.914,1.045-12.366L547.857,160.4s-1.859,4.608-7.681,24.332-12.5,18.065-35.684,18.772C482.786,204.042,481.849,204.687,471.68,186.207Z" transform="translate(169.288 31.433)" fill="#d68d9a" fill-rule="evenodd"/>
  <path id="Path_2076" data-name="Path 2076" d="M552.3,238.31s-60.524-.077-83.965,1.29-36.33,22.074-37.9,37.313,10.154,145.718,10.154,145.718,0,2.873,1.966,3.072,15.576,0,16.744-.292,1.613-1.536,1.751-2.98,11.89-118.8,12.074-121.539,2.734-4.885,13.288-7.42S556.419,250.845,552.3,238.31Z" transform="translate(147.101 73.203)" fill="#252041" fill-rule="evenodd"/>
  <path id="Path_2077" data-name="Path 2077" d="M581.439,233.08S606.785,303.3,547.8,303.3H509.963c.092.276.2.568.292.86,6.452,19.847,10.753,56.514,23.564,123.367.43,2.289.23,2.688-2.227,3.825-5.054,2.35-14.255,5.069-20.154,3.595a4.61,4.61,0,0,1-1.029-1.613c-.246-.83-55.224-144.735-57.175-152.938s1.536-27.144,23.426-31.829,75.086-8.541,86.93-10.354S581.439,233.08,581.439,233.08Z" transform="translate(159.147 70.399)" fill="#312a55" fill-rule="evenodd"/>
  <path id="Path_2078" data-name="Path 2078" d="M506.936,372.456c3.072,2.074,3.794,7.3,3.794,12.289v27.42c0,6.421-4.716,9.678-8.31,9.678h2.55c4.1,0,9.478-3.7,9.478-11.029V379.523c0-7.22-1.444-14.993-7.9-14.993a22.568,22.568,0,0,1,.476,6.9C507,371.734,506.967,372.072,506.936,372.456Z" transform="translate(185.769 140.874)" fill="#ac1b48" fill-rule="evenodd"/>
  <path id="Path_2079" data-name="Path 2079" d="M483.339,109.55a8.495,8.495,0,1,1-8.449,8.541,8.495,8.495,0,0,1,8.449-8.541Z" transform="translate(171.009 4.17)" fill="#ea745d" fill-rule="evenodd"/>
  <path id="Path_2080" data-name="Path 2080" d="M521.2,109.35a8.495,8.495,0,1,1-8.449,8.526,8.495,8.495,0,0,1,8.449-8.526Z" transform="translate(191.307 4.063)" fill="#ea745d" fill-rule="evenodd"/>
  <path id="Path_2081" data-name="Path 2081" d="M508,81.51h0a29.187,29.187,0,0,1,29.187,28.927l.154,26.42a29.187,29.187,0,0,1-28.926,29.187h0a29.187,29.187,0,0,1-29.187-28.911L479.07,110.7A29.187,29.187,0,0,1,508,81.51Z" transform="translate(173.25 -10.863)" fill="#f4ad85" fill-rule="evenodd"/>
  <path id="Path_2082" data-name="Path 2082" d="M531.939,91.742a28.8,28.8,0,0,1,5.284,16.513l.153,26.422a29.187,29.187,0,0,1-23.042,28.6c3.84-1.26,16.713-10.384,17.143-20.4s-2.043-18.265-11.245-20.83-33.088-13.119-36.345-13.288a11.244,11.244,0,0,0-4.808,1.383v-1.536a28.925,28.925,0,0,1,6.452-18.341c6.313-2.258,11.874-4.148,13.917-4.608C502.783,85.014,518.513,88.209,531.939,91.742Z" transform="translate(173.255 -8.683)" fill="#ef8871" fill-rule="evenodd"/>
  <path id="Path_2083" data-name="Path 2083" d="M506.672,123.094a8.541,8.541,0,1,1-17.082.092h0a1.536,1.536,0,0,1,1.459-1.536h14.117a1.536,1.536,0,0,1,1.536,1.536Z" transform="translate(178.89 10.657)" fill="#fff" fill-rule="evenodd"/>
  <path id="Path_2084" data-name="Path 2084" d="M485.248,118.34a4.209,4.209,0,1,1-4.178,4.224,4.209,4.209,0,0,1,4.178-4.224Z" transform="translate(174.322 8.883)" fill="#e8685b" fill-rule="evenodd"/>
  <path id="Path_2085" data-name="Path 2085" d="M508.808,118.21a4.209,4.209,0,1,1-4.178,4.224,4.209,4.209,0,0,1,4.178-4.224Z" transform="translate(186.954 8.813)" fill="#e8685b" fill-rule="evenodd"/>
  <path id="Path_2086" data-name="Path 2086" d="M508.212,124.313s1.121.108,1.413-.63-1.244-4.716-1.244-4.716,13.088,14.716,28.188,13.073l1.536,5.684c0-6.145,4.486-6.006,4.486-6.006s6.175-25.5,5.039-36.621-27.558-27.42-40.339-26.729-28.1,16.083-29.033,20.953C474.4,109.044,496.245,123.115,508.212,124.313Z" transform="translate(172.573 -17.921)" fill="#212850" fill-rule="evenodd"/>
  <path id="Path_2087" data-name="Path 2087" d="M508.212,118.484s1.121.108,1.413-.63-1.244-4.716-1.244-4.716,13.088,14.716,28.188,13.073l1.536,5.684c0-6.145,4.485-6.006,4.485-6.006s1.275-5.192,2.55-11.905c-9.217,2.151-20.707,1.828-33.534-5.161-32.443-17.65-31.015-29.509-31.015-29.6a12.182,12.182,0,0,0-2.335,4.27C474.4,103.214,496.245,117.285,508.212,118.484Z" transform="translate(172.573 -12.091)" fill="#050a26" fill-rule="evenodd"/>
  <path id="Path_2088" data-name="Path 2088" d="M553.692,101.2a24.572,24.572,0,0,0-2.135-4.839c-12.2-.461-48-2.043-55.055-26.606a51.077,51.077,0,0,0-14.1,9.8c.553.676,1.121,1.352,1.72,2.043C494.9,93.985,523.983,107.9,553.692,101.2Z" transform="translate(175.035 -17.163)" fill="#3a2689" fill-rule="evenodd"/>
  <path id="Path_2089" data-name="Path 2089" d="M487.92,110.52h0a2.734,2.734,0,0,0-1.721.614,1.06,1.06,0,0,1-.722-.553.43.43,0,0,0-.584-.184.415.415,0,0,0-.184.568,1.844,1.844,0,0,0,.876.845h0a1.982,1.982,0,0,1-1.121-.691.445.445,0,0,0-.614,0,.415.415,0,0,0,0,.6,2.811,2.811,0,0,0,1.26.876h0a2.811,2.811,0,0,1-1.29-.415.415.415,0,0,0-.584.123.43.43,0,0,0,.123.6,3.272,3.272,0,0,0,1.336.507h.6v3.272a2.7,2.7,0,0,0,2.7,2.7h0a2.7,2.7,0,0,0,2.7-2.7v-3.533A2.7,2.7,0,0,0,487.92,110.52Z" transform="translate(175.444 4.598)" fill="#050a26" fill-rule="evenodd"/>
  <path id="Path_2090" data-name="Path 2090" d="M488.94,212.053l-5.868-.353c-5.438,1.014-15.361,2.412-19.094,6.605-1.183,1.306,5.622,3.779,6.252,4.117s10.031,3.364,12.289,2.949S490.615,217.322,488.94,212.053Z" transform="translate(165.085 58.936)" fill="#ef8871" fill-rule="evenodd"/>
  <path id="Path_2091" data-name="Path 2091" d="M506.056,110.52h0a2.734,2.734,0,0,1,1.72.614,1.06,1.06,0,0,0,.722-.553.43.43,0,0,1,.584-.184.415.415,0,0,1,.184.568,1.843,1.843,0,0,1-.876.845h0a2.028,2.028,0,0,0,1.121-.691.446.446,0,0,1,.614,0,.415.415,0,0,1,0,.6,2.7,2.7,0,0,1-1.275.876h0a2.811,2.811,0,0,0,1.29-.415.43.43,0,0,1,.6.123.446.446,0,0,1-.138.6,3.364,3.364,0,0,1-1.336.507h-.6v3.272a2.7,2.7,0,0,1-2.7,2.7h0a2.7,2.7,0,0,1-2.7-2.7v-3.533a2.7,2.7,0,0,1,2.8-2.627Z" transform="translate(186.219 4.598)" fill="#050a26" fill-rule="evenodd"/>
  <path id="Path_2092" data-name="Path 2092" d="M493.756,117.225a16.162,16.162,0,0,0-1.936,3.81c-.092,1.014,2.181,1.429,3.687.906,1.075-.384.737-2.811.307-4.317S494.847,115.489,493.756,117.225Z" transform="translate(180.085 7.724)" fill="#f7c6b0" fill-rule="evenodd"/>
  <path id="Path_2093" data-name="Path 2093" d="M480.692,264.084s54.994-16.759,61.691-19.97,13.564-11.675,16.99-21.829S574.2,177.17,574.2,170.626s-2.7-19.586-17.358-24.256c0,0-9.217,1.659-13.441,19.509s-8.986,47.7-10.077,51.292a16.683,16.683,0,0,1-8.065,10.569c-5.238,3.072-48.9,18.879-48.9,18.879C479.878,249.767,481.69,257.018,480.692,264.084Z" transform="translate(171.797 23.911)" fill="#dbdcdc" fill-rule="evenodd"/>
  <path id="Path_2094" data-name="Path 2094" d="M569.87,156.287a23.825,23.825,0,0,0-13.257-9.847s-9.217,1.659-13.441,19.509-8.986,47.7-10.077,51.292a16.682,16.682,0,0,1-8.065,10.569c-4.869,2.827-42.873,16.682-48.25,18.633a16.24,16.24,0,0,1,.538,1.536,19.693,19.693,0,0,1,3.38,10.753c10.891-3.333,53.319-16.375,59.141-19.094,6.682-3.072,13.564-11.675,16.99-21.844s14.824-45.1,14.824-51.66a28.541,28.541,0,0,0-1.782-9.847Z" transform="translate(172.022 23.948)" fill="#fff" fill-rule="evenodd"/>
  <path id="Path_2095" data-name="Path 2095" d="M402.735,179.291h83.043a5.9,5.9,0,0,1,5.238,4.009l17.22,56.7a2.873,2.873,0,0,1-2.78,4.009H422.413A5.9,5.9,0,0,1,417.175,240L399.94,183.3a2.888,2.888,0,0,1,2.8-4.009Z" transform="translate(130.703 41.559)" fill="#312a55" fill-rule="evenodd"/>
  <path id="Path_2096" data-name="Path 2096" d="M413.823,224.326H522.228a4.194,4.194,0,0,0,4.163-4.163h0A4.194,4.194,0,0,0,522.228,216H413.823a4.178,4.178,0,0,0-4.163,4.163h0a4.178,4.178,0,0,0,4.163,4.163Z" transform="translate(136.037 61.242)" fill="#211c39" fill-rule="evenodd"/>
  <path id="Path_2097" data-name="Path 2097" d="M470.453,224.326h21.414a4.194,4.194,0,0,0,4.178-4.163h0A4.193,4.193,0,0,0,491.867,216H470.453a4.178,4.178,0,0,0-4.163,4.163h0a4.178,4.178,0,0,0,4.163,4.163Z" transform="translate(166.398 61.242)" fill="#0a0812" fill-rule="evenodd"/>
  <path id="Path_2098" data-name="Path 2098" d="M435.851,191.8a10.462,10.462,0,0,1,2.074.23,5.147,5.147,0,0,0-.676,3.779,6.851,6.851,0,0,0,6.313,5.607,4.286,4.286,0,0,0,3.38-1.536,11.732,11.732,0,0,1,.691,2.412c1.06,5.791-2.519,10.492-7.973,10.492s-10.753-4.7-11.8-10.492S430.367,191.8,435.851,191.8Z" transform="translate(145.699 48.267)" fill="#fff" fill-rule="evenodd"/>
  <path id="Path_2099" data-name="Path 2099" d="M534.565,107.747c-2.888-.492-12.8-1.536-19.11-.445s-5.545,2.611-5.484,3.18a6.866,6.866,0,0,0-6.651,0c0-.568.645-2.043-5.484-3.18s-16.314,0-19.2.445a15.361,15.361,0,0,0-4.224,1.229v3.164a1.828,1.828,0,0,1,2.043.661c.753.937.952,1.736,1.859,2.074a23.9,23.9,0,0,0,.968,7.512,7.942,7.942,0,0,0,5.837,5.469,17.174,17.174,0,0,0,4.685.614,16.375,16.375,0,0,0,4.808-.676,9.539,9.539,0,0,0,6.314-6.867,23.672,23.672,0,0,0,1.029-8,.691.691,0,0,0,.691-.215h0a.662.662,0,0,0,.138-.154,6.145,6.145,0,0,1,7.681,0v.154h0a.845.845,0,0,0,.783.215,24.424,24.424,0,0,0,1.091,8,9.585,9.585,0,0,0,6.329,6.867,16.482,16.482,0,0,0,4.823.676,17.206,17.206,0,0,0,4.7-.614,7.957,7.957,0,0,0,5.822-5.469,24.362,24.362,0,0,0,.968-7.512c.891-.338,1.014-1.137,1.767-2.074s4.777-.661,4.777-.661v-3.164l-6.959-1.229Zm-34.271,13h0a8.956,8.956,0,0,1-5.868,6.421,17.5,17.5,0,0,1-9.125,0,7.266,7.266,0,0,1-5.376-5.054,23.379,23.379,0,0,1-.906-7.834c.2-1.214.829-3.687,2.519-4.608a21.306,21.306,0,0,1,12.028-1.152c4.885.83,6.774,2.043,7.542,3.487l.092.154a20.26,20.26,0,0,1-.906,8.51Zm33.088,1.429h0a7.267,7.267,0,0,1-5.377,5.054,17.5,17.5,0,0,1-9.125,0,8.956,8.956,0,0,1-5.868-6.421,20.536,20.536,0,0,1-.906-8.51l.092-.154c.768-1.444,2.658-2.658,7.542-3.487a21.306,21.306,0,0,1,12.028,1.152c1.69.906,2.32,3.38,2.519,4.608a23.791,23.791,0,0,1-.906,7.757Z" transform="translate(170.752 2.702)" fill="#050a26" fill-rule="evenodd"/>
  <path id="Path_2100" data-name="Path 2100" d="M532.65,221.42H405.581a9.862,9.862,0,0,0-9.831,9.831h0a9.847,9.847,0,0,0,9.831,9.816H532.65a9.847,9.847,0,0,0,9.816-9.816h0a9.862,9.862,0,0,0-9.816-9.831Z" transform="translate(128.579 64.148)" fill="#a3a6c4" fill-rule="evenodd"/>
  <path id="Icon_metro-books" data-name="Icon metro-books" d="M10.929,8.571H3.765A1.2,1.2,0,0,0,2.571,9.765V36.033a1.2,1.2,0,0,0,1.194,1.194h7.164a1.2,1.2,0,0,0,1.194-1.194V9.765A1.2,1.2,0,0,0,10.929,8.571ZM9.735,15.735H4.959V13.347H9.735v2.388ZM22.869,8.571H15.705a1.2,1.2,0,0,0-1.194,1.194V36.033a1.2,1.2,0,0,0,1.194,1.194h7.164a1.2,1.2,0,0,0,1.194-1.194V9.765A1.2,1.2,0,0,0,22.869,8.571Zm-1.194,7.164H16.9V13.347h4.776Zm9.443-5.318-6.4,3.224a1.2,1.2,0,0,0-.529,1.6L34.937,36.571a1.2,1.2,0,0,0,1.6.529l6.4-3.224a1.2,1.2,0,0,0,.529-1.6L32.722,10.947a1.2,1.2,0,0,0-1.6-.529ZM37.2,36.033A1.194,1.194,0,1,1,36,34.839,1.194,1.194,0,0,1,37.2,36.033Z" transform="translate(185.109 52.8)" fill="#fff"/>
  <path id="Icon_metro-books-2" data-name="Icon metro-books" d="M10.929,8.571H3.765A1.2,1.2,0,0,0,2.571,9.765V36.033a1.2,1.2,0,0,0,1.194,1.194h7.164a1.2,1.2,0,0,0,1.194-1.194V9.765A1.2,1.2,0,0,0,10.929,8.571ZM9.735,15.735H4.959V13.347H9.735v2.388ZM22.869,8.571H15.705a1.2,1.2,0,0,0-1.194,1.194V36.033a1.2,1.2,0,0,0,1.194,1.194h7.164a1.2,1.2,0,0,0,1.194-1.194V9.765A1.2,1.2,0,0,0,22.869,8.571Zm-1.194,7.164H16.9V13.347h4.776Z" transform="translate(89.547 452.268)" fill="#0294ff"/>
</svg>
