<svg xmlns="http://www.w3.org/2000/svg" width="18.582" height="21.532" viewBox="0 0 18.582 21.532">
  <g id="Icon_feather-lock" data-name="Icon feather-lock" transform="translate(1 1)">
    <path id="Path_1925" data-name="Path 1925" d="M6.342,16.5h12.9a1.9,1.9,0,0,1,1.842,1.953V25.29a1.9,1.9,0,0,1-1.842,1.953H6.342A1.9,1.9,0,0,1,4.5,25.29V18.453A1.9,1.9,0,0,1,6.342,16.5Z" transform="translate(-4.5 -7.71)" fill="none" stroke="#8595a8" stroke-linecap="round" stroke-linejoin="round" stroke-width="2"/>
    <path id="Path_1926" data-name="Path 1926" d="M10.5,11.79V7.883A4.751,4.751,0,0,1,15.106,3a4.751,4.751,0,0,1,4.606,4.883V11.79" transform="translate(-6.815 -3)" fill="none" stroke="#8595a8" stroke-linecap="round" stroke-linejoin="round" stroke-width="2"/>
  </g>
</svg>
