<svg xmlns="http://www.w3.org/2000/svg" width="34.204" height="35.093" viewBox="0 0 34.204 35.093">
  <path id="Icon_awesome-arrow-down" data-name="Icon awesome-arrow-down" d="M32.31,17.171l1.739,1.739a1.872,1.872,0,0,1,0,2.655L18.831,36.79a1.872,1.872,0,0,1-2.655,0L.949,21.564a1.872,1.872,0,0,1,0-2.655l1.739-1.739a1.882,1.882,0,0,1,2.686.031l8.991,9.438V4.13a1.875,1.875,0,0,1,1.88-1.88h2.506a1.875,1.875,0,0,1,1.88,1.88V26.64L29.623,17.2a1.868,1.868,0,0,1,2.686-.031Z" transform="translate(-0.397 -2.25)" fill="#46ccff"/>
</svg>
