<svg xmlns="http://www.w3.org/2000/svg" width="83.318" height="58.201" viewBox="0 0 83.318 58.201">
  <path id="Icon_metro-books" data-name="Icon metro-books" d="M19.547,8.571H5A2.432,2.432,0,0,0,2.571,11V64.347A2.432,2.432,0,0,0,5,66.772h14.55a2.432,2.432,0,0,0,2.425-2.425V11a2.432,2.432,0,0,0-2.425-2.425Zm-2.425,14.55h-9.7v-4.85h9.7v4.85ZM43.8,8.571H29.247A2.432,2.432,0,0,0,26.822,11V64.347a2.432,2.432,0,0,0,2.425,2.425H43.8a2.432,2.432,0,0,0,2.425-2.425V11A2.432,2.432,0,0,0,43.8,8.571Zm-2.425,14.55h-9.7v-4.85h9.7Zm19.18-10.8L47.558,18.868a2.432,2.432,0,0,0-1.074,3.257L68.307,65.438a2.432,2.432,0,0,0,3.257,1.074l12.994-6.547a2.432,2.432,0,0,0,1.074-3.257L63.808,13.4a2.432,2.432,0,0,0-3.257-1.075ZM72.9,64.347a2.425,2.425,0,1,1-2.425-2.425A2.425,2.425,0,0,1,72.9,64.347Z" transform="translate(-2.571 -8.571)" fill="#d0dbe8"/>
</svg>
