<svg xmlns="http://www.w3.org/2000/svg" width="100.221" height="81.398" viewBox="0 0 100.221 81.398">
  <path id="Icon_awesome-twitter" data-name="Icon awesome-twitter" d="M89.92,23.667c.064.89.064,1.781.064,2.671,0,27.154-20.667,58.441-58.441,58.441A58.045,58.045,0,0,1,0,75.558a42.492,42.492,0,0,0,4.96.254,41.136,41.136,0,0,0,25.5-8.776A20.577,20.577,0,0,1,11.256,52.792a25.9,25.9,0,0,0,3.879.318,21.724,21.724,0,0,0,5.405-.7A20.543,20.543,0,0,1,4.07,32.252V32A20.686,20.686,0,0,0,13.354,34.6,20.571,20.571,0,0,1,6.995,7.133,58.385,58.385,0,0,0,49.348,28.627a23.188,23.188,0,0,1-.509-4.706A20.56,20.56,0,0,1,84.387,9.867a40.44,40.44,0,0,0,13.036-4.96,20.485,20.485,0,0,1-9.03,11.319,41.177,41.177,0,0,0,11.828-3.179,44.154,44.154,0,0,1-10.3,10.62Z" transform="translate(0 -3.381)"/>
</svg>
