<svg xmlns="http://www.w3.org/2000/svg" width="25.592" height="25.592" viewBox="0 0 25.592 25.592">
  <g id="Icon_feather-instagram" data-name="Icon feather-instagram" transform="translate(1.25 1.25)">
    <path id="Pfad_1288" data-name="Pfad 1288" d="M8.773,3H20.319a5.773,5.773,0,0,1,5.773,5.773V20.319a5.773,5.773,0,0,1-5.773,5.773H8.773A5.773,5.773,0,0,1,3,20.319V8.773A5.773,5.773,0,0,1,8.773,3Z" transform="translate(-3 -3)" fill="none" stroke="#0294ff" stroke-linecap="round" stroke-linejoin="round" stroke-width="2.5"/>
    <path id="Pfad_1289" data-name="Pfad 1289" d="M21.252,15.876a4.618,4.618,0,1,1-3.891-3.891,4.618,4.618,0,0,1,3.891,3.891Z" transform="translate(-5.087 -5.057)" fill="none" stroke="#0294ff" stroke-linecap="round" stroke-linejoin="round" stroke-width="2.5"/>
    <path id="Pfad_1290" data-name="Pfad 1290" d="M26.25,9.75h0" transform="translate(-8.354 -4.554)" fill="none" stroke="#0294ff" stroke-linecap="round" stroke-linejoin="round" stroke-width="2.5"/>
  </g>
</svg>
