<svg xmlns="http://www.w3.org/2000/svg" width="1108.778" height="711.025" viewBox="0 0 1108.778 711.025">
  <g id="Landingpage_Illu" data-name="Landingpage Illu" transform="translate(-73.998 -39.559)">
    <path id="Pfad_178" data-name="Pfad 178" d="M147.471,554.534a65.256,65.256,0,0,1,64.936,64.936h0c.192,65.182,53.664,117.438,118.846,117.62H1028.4c84.67-.243,154.124-68.482,154.377-153.152h0c-.253-84.673-69.7-154.124-154.377-154.377h0a30.6,30.6,0,0,1-30.63-30.63h0a30.586,30.586,0,0,1,30.63-30.63h41.657a74.856,74.856,0,0,0,74.738-74.738h0a74.967,74.967,0,0,0-74.738-74.738H997.769a65.288,65.288,0,0,1-64.936-64.936h0C932.671,88.722,879.154,36.5,813.987,36.269H228.335A153.361,153.361,0,0,0,75.183,189.421h0A153.361,153.361,0,0,0,228.335,342.572h0a30.584,30.584,0,0,1,30.63,30.63h0a30.584,30.584,0,0,1-30.63,30.63H147.471C49.507,403.833,49.507,554.534,147.471,554.534Z" transform="translate(0 4.545)" fill="#c2f1ff" fill-rule="evenodd"/>
    <path id="Pfad_179" data-name="Pfad 179" d="M322.337,53.372S319.512,32.9,340.715,36.219l-1.225,2.45c-18.955-2.966-15.946,14.647-15.928,14.7Z" transform="translate(208.625 4.595)" fill="#000618" fill-rule="evenodd"/>
    <path id="Pfad_180" data-name="Pfad 180" d="M335.381,36.69s21.335-1.517,17.153,18.378h-2.45c3.684-17.74-14.666-15.928-14.7-15.928Z" transform="translate(220.086 5.349)" fill="#000618" fill-rule="evenodd"/>
    <path id="Pfad_181" data-name="Pfad 181" d="M341.408,35.333c6.865.41,13.687,5.75,15.928,12.252a17.2,17.2,0,0,1-4.9,18.378c-5.155,4.552-13.429,5.478-19.6,2.45s-9.019-10.29-8.577-17.153C324.857,41.932,332.076,34.777,341.408,35.333Z" transform="translate(210.383 4.256)" fill="#312a55" fill-rule="evenodd"/>
    <path id="Pfad_182" data-name="Pfad 182" d="M323.732,181.483s-9.822,21.5-22.054,44.108c-14.332,26.471-48.987,38.186-31.856-7.351,7.166-19.047,15.717-43.263,22.054-61.261,5.784-16.69,14.493-36.546,28.18-42.882C319.964,114.1,340.4,118.759,323.732,181.483Z" transform="translate(160.672 70.068)" fill="#fff" fill-rule="evenodd"/>
    <path id="Pfad_183" data-name="Pfad 183" d="M323.732,171.226s-9.822,21.5-22.054,44.108c-14.332,26.471-48.987,38.186-31.856-7.351l1.225-2.45c12.6,1.4,21.2-6.948,25.729-17.153,5.176-11.642,24.5-62.486,24.5-62.486l8.576,1.225C330.5,137.268,329.2,150.613,323.732,171.226Z" transform="translate(160.672 80.325)" fill="#fceadd" fill-rule="evenodd"/>
    <path id="Pfad_184" data-name="Pfad 184" d="M357.663,181.483s9.822,21.5,22.054,44.108c14.332,26.471,50.212,38.186,33.081-7.351-7.147-19.047-15.809-43.263-22.054-61.261-5.784-16.69-14.511-36.546-28.18-42.882C362.563,114.1,340.973,118.759,357.663,181.483Z" transform="translate(233.335 70.068)" fill="#fff" fill-rule="evenodd"/>
    <path id="Pfad_185" data-name="Pfad 185" d="M357.663,181.483s9.822,21.5,22.054,44.108c14.332,26.471,50.212,38.186,33.081-7.351l-2.45-4.9c-11.053.755-22.856-7.3-25.729-14.7-3.684-9.321-13.239-41.992-18.378-61.261-1.919-6.96-2.53-14.066,0-20.829a18.63,18.63,0,0,0-3.676-2.45S340.973,118.759,357.663,181.483Z" transform="translate(233.335 70.068)" fill="#fceadd" fill-rule="evenodd"/>
    <path id="Pfad_186" data-name="Pfad 186" d="M357.405,76.781v44.108c0,2.008,1.567,4.883,4.9,7.351,0,33.84-50.234,36.419-50.234,0,3.316-2.524,6.126-5.4,6.126-7.351V90.259l-1.225-13.477s9.711,1.244,19.6,3.676H337.8A197.7,197.7,0,0,1,357.405,76.781Z" transform="translate(200.512 38.771)" fill="#e8685b" fill-rule="evenodd"/>
    <path id="Pfad_187" data-name="Pfad 187" d="M355.458,309.1h0c29.234.258,47.527-5.6,57.585-9.8-.258-1.842.221-3.243,0-4.9,0,0,5.371-7.149,6.126-9.8s-2.45-63.711-2.45-63.711v-8.576c.282-3.905.967-8.052,1.225-12.252l1.225-14.7a354.848,354.848,0,0,0-6.126-63.711h0l-33.081-17.153h0c-2.395,8.99-12.217,15.928-24.5,15.928s-23.335-6.938-25.729-15.928h0L297.873,121.64h0a354.841,354.841,0,0,0-6.126,63.711l1.225,14.7c.258,4.2-.283,8.347,0,12.252v8.576s-1.907,61.04-1.225,63.711,6.126,9.8,6.126,9.8c-.221,1.676-.967,3.022-1.225,4.9,10.04,4.2,28.351,10.06,57.585,9.8Z" transform="translate(182.856 62.525)" fill="#f86083" fill-rule="evenodd"/>
    <path id="Pfad_188" data-name="Pfad 188" d="M301.753,134.474l36.756,7.351a5,5,0,0,1,3.676,3.676h0a2.358,2.358,0,0,1,2.45-2.45h9.8a2.358,2.358,0,0,1,2.45,2.45h0c.19-1.851,1.9-3.124,3.676-3.676l35.531-7.351c.814-.179,1.814.687,2.45,1.225a3.527,3.527,0,0,1,1.225,2.45V201.86c-.046,1.907-1.815,3.254-3.676,3.676l-35.531,7.351a2.977,2.977,0,0,1-3.676-2.45h0a2.358,2.358,0,0,1-2.45,2.45h-9.8a2.358,2.358,0,0,1-2.45-2.45h0a2.985,2.985,0,0,1-3.676,2.45l-36.756-7.351c-1.86-.421-3.63-1.769-3.676-3.676V138.149a3.528,3.528,0,0,1,1.225-2.45C299.939,135.16,300.939,134.294,301.753,134.474Z" transform="translate(188.777 87.672)" fill="#be2a34" fill-rule="evenodd"/>
    <path id="Pfad_189" data-name="Pfad 189" d="M328.525,309.1h0c29.234.258,47.527-5.6,57.585-9.8-.258-1.842.221-3.243,0-4.9,0,0,5.371-7.149,6.126-9.8s-2.45-63.711-2.45-63.711v-8.576c.282-3.905.967-8.052,1.225-12.252l1.225-14.7a354.836,354.836,0,0,0-6.126-63.711h0L353.03,104.487h0c-1.676,6.282-7.334,12.142-14.7,14.7,9.045,8.013,22.478,19.7,24.5,22.054,3.113,3.684,6.126,16.855,6.126,55.135v66.161c0,18.108-11.843,41.621-45.333,46.558Z" transform="translate(209.788 62.525)" fill="#df3a60" fill-rule="evenodd"/>
    <path id="Pfad_190" data-name="Pfad 190" d="M372.732,108.162l-7.351-3.676h0c-2.395,8.99-12.217,15.928-24.5,15.928s-23.335-6.938-25.729-15.928h0l-6.126,3.676c4.4,13.245,18.592,20.829,31.856,20.829S368.348,121.407,372.732,108.162Z" transform="translate(197.437 62.525)" fill="#fff" fill-rule="evenodd"/>
    <path id="Pfad_191" data-name="Pfad 191" d="M379.228,192.7l1.225-7.351c0-17.426,3.85-33.985,2.45-45.333a31.63,31.63,0,0,0-8.576-18.378h0l-33.081-17.153h0a16.937,16.937,0,0,1-3.676,7.351l3.676,3.676c7.217,3.769,14.03,9,20.829,13.477C368.485,133.652,379.228,145.728,379.228,192.7Z" transform="translate(221.572 62.525)" fill="#fff" fill-rule="evenodd"/>
    <path id="Pfad_192" data-name="Pfad 192" d="M379.218,192.7l1.225-7.351c.167-8.1-.031-16.505,1.225-24.5-1.64-5.692-2.423-11.267-3.676-15.928a36.329,36.329,0,0,1,0-19.6c-1.067-1.691-2.293-2.231-3.676-3.676h0l-33.081-17.153h0a16.939,16.939,0,0,1-3.676,7.351l3.676,3.676c7.216,3.769,14.029,9,20.829,13.477C368.438,133.652,379.218,145.728,379.218,192.7Z" transform="translate(221.582 62.525)" fill="#fceadd" fill-rule="evenodd"/>
    <path id="Pfad_193" data-name="Pfad 193" d="M353.464,108.162l-7.351-3.676h0c-1.676,6.282-7.334,12.142-14.7,14.7l6.126,6.126A31.1,31.1,0,0,0,353.464,108.162Z" transform="translate(216.705 62.525)" fill="#fceadd" fill-rule="evenodd"/>
    <path id="Pfad_194" data-name="Pfad 194" d="M313.454,67.981h-1.225c-4.9.516-8,4.909-8.577,9.8s1.479,9.391,6.126,11.027,10.859-.727,13.477-4.9,1.045-8.781-2.45-12.252c0,3.113-.9,6.144-4.9,6.126l1.225-6.126a4.332,4.332,0,0,0-3.676-3.676Z" transform="translate(193.004 31.644)" fill="#e8685b" fill-rule="evenodd"/>
    <path id="Pfad_195" data-name="Pfad 195" d="M356.085,71.91c.257.054-.246,1.132,0,1.225h0a10.671,10.671,0,0,1,7.351,11.027c-.43,4.907-3.7,7.915-8.576,8.576s-9.307-1.511-11.027-6.126-.448-9.558,3.676-12.252c-.571,3.076-.248,6.559,3.676,7.351V75.586c.14-.986,1.645-1.864,2.45-2.45S355.1,71.741,356.085,71.91Z" transform="translate(226.336 35.066)" fill="#e8685b" fill-rule="evenodd"/>
    <path id="Pfad_196" data-name="Pfad 196" d="M351.719,42.329h0a35.574,35.574,0,0,0-39.207,31.856l-3.676,33.081c-1.93,19.8,13.292,37.144,33.081,39.207h0c19.788,1.918,37.163-13.3,39.207-33.081L384.8,81.536C386.742,61.749,371.492,44.41,351.719,42.329Z" transform="translate(197.621 9.513)" fill="#f4ad85" fill-rule="evenodd"/>
    <path id="Pfad_197" data-name="Pfad 197" d="M351.72,42.329h0a35.574,35.574,0,0,0-39.207,31.856l-3.676,33.081c-.749,7.421,1.2,14.351,4.9,20.829h0s1.9-12.391,2.45-18.378l1.225-15.928c.05-.562.782-.876,1.225-1.225s.668-.083,1.225,0c5.526.553,5.481-4.653,6.126-11.027s3.778-7.757,7.351-7.351l33.081,2.45c8.6.866,7.351,6.126,7.351,6.126l4.9-4.9c-2.834-8.574-4.5-18.073-6.126-26.955C366.9,45.715,359.35,43.145,351.72,42.329Z" transform="translate(197.62 9.513)" fill="#ef8871" fill-rule="evenodd"/>
    <path id="Pfad_198" data-name="Pfad 198" d="M341.979,81.952a5.084,5.084,0,0,0-4.9,2.45c-.935,1.676-1.194,3.4,0,4.9s4.282,2.984,6.126,2.45,2.243-2.993,2.45-4.9C345.935,84.272,344.556,82.26,341.979,81.952Z" transform="translate(220.839 43.403)" fill="#e8685b" fill-rule="evenodd"/>
    <path id="Pfad_199" data-name="Pfad 199" d="M319.92,79.285c-2.606-.317-4.585,2.294-4.9,4.9a4.332,4.332,0,0,0,8.577,1.225,5.35,5.35,0,0,0-1.225-3.676C321.592,80.743,321.173,79.433,319.92,79.285Z" transform="translate(202.466 41.168)" fill="#e8685b" fill-rule="evenodd"/>
    <path id="Pfad_200" data-name="Pfad 200" d="M341.168,74.91h0c.833.07,1.911-.639,2.45,0s.071,1.617,0,2.45v4.9c-.193,1.7-1.973,2.6-3.676,2.45h0c-1.711-.175-2.611-1.964-2.45-3.676V77.361C337.667,75.691,339.493,74.792,341.168,74.91Z" transform="translate(221.65 36.966)" fill="#01020e" fill-rule="evenodd"/>
    <path id="Pfad_201" data-name="Pfad 201" d="M320.585,71.912h0c-1.712-.172-3.492,1.964-3.676,3.676v3.676c-.161,1.716.737,3.492,2.45,3.676h0c1.709.15,3.492-1.97,3.676-3.676V75.588C323.207,73.879,322.294,72.087,320.585,71.912Z" transform="translate(204.251 35.064)" fill="#01020e" fill-rule="evenodd"/>
    <path id="Pfad_202" data-name="Pfad 202" d="M334.655,67.488c-3.868-.387-11.46.858-12.252,8.576s-2.414,12.768-7.351,12.252a32.063,32.063,0,0,0-1.225,6.126c-.332,3.39-.489,7.683-3.676,7.351.737-7.368-1.225-11.027-1.225-11.027s.378-9.868,1.225-18.378A32.686,32.686,0,0,1,327.3,46.66a43.386,43.386,0,0,1,49.009,4.9c10.371,8.971,11.893,20.876,11.027,29.405s-2.45,17.153-2.45,17.153-2.939,3.751-3.676,11.027c-3.205-.332-2.8-3.87-2.45-7.351a31.7,31.7,0,0,1,1.225-6.126c-4.918-.5-6.9-6.984-6.126-14.7s-5.933-10.64-9.8-11.027Z" transform="translate(197.533 8.857)" fill="#312a55" fill-rule="evenodd"/>
    <path id="Pfad_203" data-name="Pfad 203" d="M310.583,69.025s-2.791,26.671-3.676,35.531,11.839,24.035,20.829,28.18,12.308,3.436,14.7,3.676,5.068,1.022,14.7-1.225,24.827-14.437,25.729-23.279S386.546,77.6,386.546,77.6l-4.9-3.676c-.516,4.992-1.456,23.124-2.45,29.405s-5.713,7.508-12.252,8.576c-4.661.755-9.793,12.621-13.477,12.252a12.849,12.849,0,0,1-6.126-2.45,16.749,16.749,0,0,0-3.676-1.225,6.567,6.567,0,0,0-2.45,0,16.036,16.036,0,0,1-7.351,1.225c-3.684-.368-6.606-13.026-11.027-14.7-6.189-2.358-10.1-3.244-9.8-9.8s1.953-25.583,2.45-30.63Z" transform="translate(195.875 30.6)" fill="#312a55" fill-rule="evenodd"/>
    <path id="Pfad_204" data-name="Pfad 204" d="M327.335,57.627c-2.47,1.423-4.725,4.507-4.9,7.351-.774,7.663-2.414,12.768-7.351,12.252v2.45l-1.225,2.45c-.074.764.6,1.966,0,2.45s-1.687.082-2.45,0h0c-1.581-.174-2.6-2.092-2.45-3.676V77.23h0L310.182,61.3a33.017,33.017,0,0,1,1.225-6.126C318.389,52.6,327.335,57.627,327.335,57.627Zm52.684,26.955h0l-1.225,3.676c-.151,1.583.869,3.5,2.45,3.676h0c1.582.106,3.539-.871,3.676-2.45V85.806l1.225-15.928c.239-2.319,1.379-5.025,1.225-7.351h0c-6.3-3.905-15.836-.129-15.928,0a7.938,7.938,0,0,1,2.45,7.351c-.774,7.718,1.134,14.205,6.126,14.7Z" transform="translate(197.501 19.944)" fill="#1c1737" fill-rule="evenodd"/>
    <path id="Pfad_205" data-name="Pfad 205" d="M354.213,73.214a16.118,16.118,0,0,1-14.7-1.225c-5.784-2.579-20.757-5.757-30.63-3.676v6.126c1.078-.1,2.316.151,2.45,1.225.368,1.971.314,10.162,2.45,13.477,2.634,4.126,9.13,4.643,13.477,4.9,5.95.35,10.152-1.779,12.252-6.126s3.722-8.623,4.9-9.8c1.057-.823,2.806.206,3.676,1.225.939,1.326,1.253,5.178,2.45,9.8s5.114,7.711,11.027,8.576c4.384.626,10.069,1.068,13.477-2.45,2.763-2.837,5.352-10.392,6.126-12.252a1.917,1.917,0,0,1,2.45-1.225l1.225-6.126C375.633,71.63,360.4,71.851,354.213,73.214Zm-17.153,14.7h0c-2,2.848-5.108,3.917-8.576,3.676a19.662,19.662,0,0,1-11.027-2.45c-2.008-1.474-3.418-6.016-3.676-8.576s-.2-7.14,2.45-8.576,9.369-.682,13.477,0c3.113.5,10,1.115,11.027,3.676S338.589,85.632,337.06,87.916Zm39.207-1.225h0c-.755,2.376-1.41,6.264-3.676,7.351-3.663,1.3-7.25,2.143-11.027,1.225-3.96-.921-7.287-2.958-8.577-6.126-1.05-2.542-1.51-9.968,0-12.252s7.9-2.561,11.027-2.45c4.163.166,9.949,1.7,12.252,3.676S377.022,84.278,376.267,86.691Z" transform="translate(197.578 31.312)" fill="#01020e" fill-rule="evenodd"/>
    <path id="Pfad_206" data-name="Pfad 206" d="M326.48,87.361c.061-.7.7-1.164,0-1.225s-2.389.523-2.45,1.225c-.28,3.364,2.771,5.758,6.126,6.126,3.37.3,5.777-1.536,6.126-4.9.061-.7-.523-2.389-1.225-2.45a1.193,1.193,0,0,0-1.225,1.225c-.213,1.97-1.7,3.816-3.676,3.676C328.178,90.833,326.34,89.345,326.48,87.361Z" transform="translate(210.608 46.569)" fill="#ed8068" fill-rule="evenodd"/>
    <path id="Pfad_207" data-name="Pfad 207" d="M293.329,192.7v-7.351c0-17.426-5.076-33.985-3.676-45.333a31.569,31.569,0,0,1,8.576-18.378h0l33.081-17.153h0c.773,2.752,2.95,5.262,4.9,7.351l-4.9,3.676c-7.221,3.772-14.022,9-20.829,13.477C304.089,133.652,293.329,145.728,293.329,192.7Z" transform="translate(181.274 62.525)" fill="#fff" fill-rule="evenodd"/>
    <path id="Pfad_208" data-name="Pfad 208" d="M292.214,174.876v-7.351a152.587,152.587,0,0,0-1.225-18.378c3.205-8.824,6.006-16.96,7.351-20.829C295.116,137.916,292.214,152.771,292.214,174.876Zm7.351-49.009Z" transform="translate(182.389 80.35)" fill="#fceadd" fill-rule="evenodd"/>
    <rect id="Rechteck_64" data-name="Rechteck 64" width="33" height="2" rx="0.42" transform="translate(487.965 244.584)" fill="#fff"/>
    <path id="Pfad_209" data-name="Pfad 209" d="M330,80.05s-2.487,2.312-2.45,3.676c.063.591.731.894,1.225,1.225s.654,1.392,1.225,1.225C331.217,86.047,331.18,78.594,330,80.05Z" transform="translate(213.214 41.629)" fill="#f8cab0" fill-rule="evenodd"/>
    <rect id="Rechteck_65" data-name="Rechteck 65" width="19" height="20" rx="0.94" transform="translate(496.965 312.584)" fill="#fff"/>
    <path id="Pfad_210" data-name="Pfad 210" d="M322.715,85.975c-.666,4.914,3.663,9.135,8.577,9.8a8.45,8.45,0,0,0,9.8-7.351h0c.057-.406.249-.9,0-1.225s-.818-1.175-1.225-1.225l-14.7-1.225c-.408-.058-.9-.249-1.225,0S322.77,85.567,322.715,85.975Z" transform="translate(209.473 45.505)" fill="#01020e" fill-rule="evenodd"/>
    <path id="Pfad_211" data-name="Pfad 211" d="M324.031,90.367c2.628,2.77,7.54,4.007,11.027,2.45-.69-2.033-2.8-4.483-4.9-4.9S325.444,88.752,324.031,90.367Z" transform="translate(210.608 48.464)" fill="#be2a34" fill-rule="evenodd"/>
    <path id="Pfad_212" data-name="Pfad 212" d="M338.475,87.118,325,84.668a3.236,3.236,0,0,0,1.225,3.676c1.2.571,10.216,1.907,11.027,1.225C337.74,88.7,338.5,88.111,338.475,87.118Z" transform="translate(210.865 45.587)" fill="#fff" fill-rule="evenodd"/>
    <rect id="Rechteck_67" data-name="Rechteck 67" width="31" height="57" transform="translate(318.965 693.584)" fill="#000618"/>
    <rect id="Rechteck_68" data-name="Rechteck 68" width="30" height="57" transform="translate(925.965 693.584)" fill="#000618"/>
    <rect id="Rechteck_69" data-name="Rechteck 69" width="544" height="297" rx="37.8" transform="translate(365.965 306.584)" fill="#9d7660"/>
    <path id="Pfad_221" data-name="Pfad 221" d="M232.439,337.148v-86.99a70.187,70.187,0,0,1,69.837-69.837H706.6c8.9,0,18.708,2.791,26.955,6.126v85.765a70.187,70.187,0,0,1-69.837,69.837H258.168A68.309,68.309,0,0,1,232.439,337.148Z" transform="translate(133.12 126.365)" fill="#be8d76" fill-rule="evenodd"/>
    <rect id="Rechteck_70" data-name="Rechteck 70" width="103" height="232" rx="17.72" transform="translate(877.965 478.584)" fill="#76533e"/>
    <rect id="Rechteck_71" data-name="Rechteck 71" width="615" height="80" transform="translate(329.965 523.584)" fill="#5c3f2d"/>
    <rect id="Rechteck_72" data-name="Rechteck 72" width="102" height="232" rx="17.72" transform="translate(294.965 478.584)" fill="#76533e"/>
    <rect id="Rechteck_73" data-name="Rechteck 73" width="615" height="79" transform="translate(329.965 631.584)" fill="#825f49"/>
    <path id="Pfad_222" data-name="Pfad 222" d="M779.175,427.974H213.126V366.714H759.571a19.7,19.7,0,0,1,19.6,19.6v39.207C779.175,425.985,779.212,427.551,779.175,427.974Z" transform="translate(116.901 283.032)" fill="#966e59" fill-rule="evenodd"/>
    <rect id="Rechteck_74" data-name="Rechteck 74" width="615" height="79" transform="translate(329.965 554.584)" fill="#be8d76"/>
    <rect id="Rechteck_75" data-name="Rechteck 75" width="80" height="232" rx="17.72" transform="translate(278.965 478.584)" fill="#daa38a"/>
    <rect id="Rechteck_76" data-name="Rechteck 76" width="81" height="232" rx="17.72" transform="translate(915.965 478.584)" fill="#daa38a"/>
    <path id="Pfad_223" data-name="Pfad 223" d="M271.768,180.321h33.081c-3.868,5.526-7.434,10.834-8.576,12.252C286.4,204.786,258.947,198.945,271.768,180.321Zm178.881,0h33.081c12.895,18.624-14.63,24.465-24.5,12.252C458.009,191.155,454.517,185.81,450.649,180.321Z" transform="translate(163.628 126.365)" fill="#9d7660" fill-rule="evenodd"/>
    <path id="Pfad_224" data-name="Pfad 224" d="M305.476,171.306l-3.676,6.126c-14.2,26.232-49.162,38.066-33.081-6.126Z" transform="translate(160.55 118.227)" fill="#fceadd" fill-rule="evenodd"/>
    <path id="Pfad_225" data-name="Pfad 225" d="M364.638,171.306c1.234,2.321,2.478,3.75,3.676,6.126,14.2,26.232,49.181,38.066,33.081-6.126Z" transform="translate(244.738 118.227)" fill="#fceadd" fill-rule="evenodd"/>
    <path id="Pfad_226" data-name="Pfad 226" d="M386.956,129.8l-37.982,7.351c-1.911.437-2.4,1.717-2.45,3.676-.058-1.957-1.769-3.233-3.676-3.676L304.867,129.8c-.837-.193-1.794.671-2.45,1.225s-.051,1.593,0,2.45v66.162c.045,1.961.536,3.245,2.45,3.676l37.982,7.351c.294-1.61,2.039-2.45,3.676-2.45s2.156.84,2.45,2.45l37.982-7.351c1.911-.437,3.624-1.717,3.676-3.676V133.473a3.439,3.439,0,0,0-1.225-2.45C388.753,130.47,387.793,129.612,386.956,129.8Z" transform="translate(191.79 83.772)" fill="#fff" fill-rule="evenodd"/>
    <path id="Pfad_227" data-name="Pfad 227" d="M372.17,131.783l-35.531,7.351c-1.777.551-3.486,1.825-3.676,3.676l-6.126,31.856,6.126,33.081a2.977,2.977,0,0,0,3.676,2.45l35.531-7.351c1.86-.422,3.63-1.769,3.676-3.676V135.458a3.527,3.527,0,0,0-1.225-2.45C373.984,132.469,372.983,131.6,372.17,131.783Z" transform="translate(212.702 85.463)" fill="#cca65e" fill-rule="evenodd"/>
    <path id="Pfad_228" data-name="Pfad 228" d="M301.753,131.783l36.756,7.351a5,5,0,0,1,3.676,3.676l7.351,25.729-7.351,39.207a2.985,2.985,0,0,1-3.676,2.45l-36.756-7.351c-1.86-.421-3.63-1.769-3.676-3.676V135.458a3.527,3.527,0,0,1,1.225-2.45C299.939,132.47,300.939,131.6,301.753,131.783Z" transform="translate(188.777 85.463)" fill="#f2c369" fill-rule="evenodd"/>
    <rect id="Rechteck_77" data-name="Rechteck 77" width="15" height="71" rx="1.42" transform="translate(530.965 225.584)" fill="#ab8a4a"/>
    <path id="Pfad_229" data-name="Pfad 229" d="M368.172,132.671,333.866,138.8c-1.861.422-3.63,1.769-3.676,3.676v57.585l34.306-6.126c1.86-.421,3.63-1.769,3.676-3.676Z" transform="translate(215.474 85.8)" fill="#f2c369" fill-rule="evenodd"/>
    <path id="Pfad_231" data-name="Pfad 231" d="M333.607,135.155v58.81a3.527,3.527,0,0,1-1.225,2.45c-.636.538-1.637.179-2.45,0l-24.5-3.676-7.351-1.225v4.9c.046,1.907,1.815,3.254,3.676,3.676l36.756,7.351c.716.162,1.845.416,2.45,0s-.105-1.724,0-2.45c.018-.184.018.184,0,0V140.056h0c-.046-1.907-.59-3.254-2.45-3.676Z" transform="translate(188.778 88.216)" fill="#cca65e" fill-rule="evenodd"/>
    <rect id="Rechteck_78" data-name="Rechteck 78" width="10" height="43" rx="0.86" transform="translate(531.965 229.584)" fill="#cca65e"/>
    <path id="Pfad_232" data-name="Pfad 232" d="M375.381,173.763a11.34,11.34,0,0,1-3.676-7.351c-.663-5.287-2.1-15.532-2.45-17.153s-.479-4.182-2.45-4.9c-4.5-1.414-10.033-1.767-14.7-2.45-1.842.092-1.362,5.03,4.9,7.351h-8.577c-1.658-.092-1.437,3.206,0,4.9s2.764,2.9,7.351,3.676c0,0-6.1.912-7.351,1.225-1.278.587-2.724,2.3-2.45,3.676.239,1.253,3.105,3.584,8.576,3.676-3.15.884-4.909,3.989-1.225,6.126a23.77,23.77,0,0,0,6.126,1.225v4.9l6.126,8.576Z" transform="translate(229.095 93.716)" fill="#f4ad85" fill-rule="evenodd"/>
    <path id="Pfad_233" data-name="Pfad 233" d="M345.982,152.615a4.54,4.54,0,0,0,0,1.225c.239,1.253,3.105,3.584,8.577,3.676,1.842-.811,4.247-1.677,3.676-2.45s-3.7,0-7.351,0S346,152.652,345.982,152.615Zm6.126,6.126c-1.179,1.234-1.041,3.63,1.225,4.9a23.77,23.77,0,0,0,6.126,1.225v4.9l6.126,8.576,2.45-3.676a25.84,25.84,0,0,1-4.9-6.126c-1.289-3.021-.673-6.089-1.225-6.126a54.66,54.66,0,0,1-8.576-1.225C350.754,160.621,352.072,158.8,352.108,158.742Z" transform="translate(229.088 102.611)" fill="#ef8871" fill-rule="evenodd"/>
    <path id="Pfad_234" data-name="Pfad 234" d="M366.629,159.323s-9.4,12.759-9.8,13.477c0,0,21.188,30.216,24.5,34.306,11.053,13.742,43.882,6.325,17.153-18.378C386.714,177.822,366.629,159.323,366.629,159.323Z" transform="translate(237.846 108.156)" fill="#f4ad85" fill-rule="evenodd"/>
    <path id="Pfad_235" data-name="Pfad 235" d="M359.263,164.624a36.433,36.433,0,0,0-2.45,3.676c-.129.276,21.188,30.216,24.5,34.306,6.079,7.516,18.628,8.447,24.5,3.676-4.7,1.588-9.4,1.6-13.477-1.225-3.242-2.192-20.084-24.534-29.405-35.531A48.811,48.811,0,0,1,359.263,164.624Z" transform="translate(237.861 112.657)" fill="#ef8871" fill-rule="evenodd"/>
    <path id="Pfad_236" data-name="Pfad 236" d="M289.462,173.763a11.26,11.26,0,0,0,3.676-7.351c.663-5.287,3.326-15.532,3.676-17.153s.5-4.182,2.45-4.9c4.508-1.416,8.8-1.769,13.477-2.45,1.842.092,2.588,5.03-3.676,7.351h7.351c1.658-.092,2.662,3.206,1.225,4.9s-2.764,2.9-7.351,3.676c0,0,6.1.912,7.351,1.225,1.276.588,1.508,2.3,1.225,3.676-.221,1.253-3.124,3.584-8.577,3.676,3.132.884,6.135,3.989,2.45,6.126-2.1.849-5.108.912-7.351,1.225v4.9l-6.126,8.576Z" transform="translate(181.465 93.716)" fill="#f4ad85" fill-rule="evenodd"/>
    <path id="Pfad_237" data-name="Pfad 237" d="M315.07,151.877a5.5,5.5,0,0,1,0,2.45c-.221,1.253-3.124,3.584-8.576,3.676a23.222,23.222,0,0,1-2.45-1.225c-.35-.239-.755-1.115,2.45-1.225S315.328,154.438,315.07,151.877Zm-4.9,8.576a3.041,3.041,0,0,1-1.225,3.676c-2.1.849-5.108.912-7.351,1.225v4.9l-6.126,8.576-1.225-2.45c1.142-1.842,3.27-2.791,3.676-3.676.866-1.842,1.714-6.624,2.45-8.576.184-.516,1.354-1.446,3.676-1.225S310.169,162.3,310.169,160.454Z" transform="translate(185.262 102.124)" fill="#ef8871" fill-rule="evenodd"/>
    <path id="Pfad_238" data-name="Pfad 238" d="M310.022,159.323s9.415,12.759,9.8,13.477c0,0-22.432,30.216-25.729,34.306-11.053,13.742-43.882,6.325-17.153-18.378C288.712,177.822,310.022,159.323,310.022,159.323Z" transform="translate(162.13 108.156)" fill="#f4ad85" fill-rule="evenodd"/>
    <path id="Pfad_239" data-name="Pfad 239" d="M316.528,165.3a17.473,17.473,0,0,0,2.45,2.45c.092.184-22.432,30.216-25.729,34.306-6.484,8.013-20.406,9.515-25.729,3.676,6.844,3.307,15.269,1.508,20.829-3.676C296.785,194.482,311.609,172.9,316.528,165.3Z" transform="translate(162.976 113.209)" fill="#ef8871" fill-rule="evenodd"/>
    <path id="Pfad_240" data-name="Pfad 240" d="M292.374,159.5a4.476,4.476,0,0,0-1.225,0c-.212.021.174-.123,0,0h0a10.544,10.544,0,0,0-1.225,1.225h0a5.719,5.719,0,0,0,0,2.45,17.476,17.476,0,0,0,3.676,8.576,9.562,9.562,0,0,0,6.126,3.676,3.311,3.311,0,0,0,1.225,0c.233-.052,1.076.186,1.225,0,.18-.265-.05-.908,0-1.225a3.943,3.943,0,0,0,0-1.225l1.225-2.45c.151.131-.053,1.032,0,1.225.363,1.142,1.382,2.488,1.225,3.676-.106.674-.8.692-1.225,1.225s-.558,1.043-1.225,1.225a6.721,6.721,0,0,1-2.45,0,11.958,11.958,0,0,1-7.351-4.9c-2.209-2.768-4.485-6.285-4.9-9.8-.187-1.233.856-2.484,1.225-3.676.2-.557-.438-.826,0-1.225h0a6.06,6.06,0,0,1,2.45-1.225c.887-.054,1.627.892,2.45,1.225C293.206,158.99,292.9,158.867,292.374,159.5Z" transform="translate(179.778 106.757)" fill="#000618" fill-rule="evenodd"/>
    <path id="Pfad_242" data-name="Pfad 242" d="M468.555,180.321h55.135l30.63,14.7c13.669,6.337,22.377,26.193,28.18,42.882,5.637,16.3,12.9,38.307,19.6,56.36-3.584,10.931-10.062,20.232-18.378,28.18a54.267,54.267,0,0,1-12.252-14.7c-4.974-9.211-9.7-18.306-13.477-25.729v12.252s.544,25.263,1.225,44.108c-7.664,2.846-15.1,3.671-23.279,3.676H433.023c.663-19.176,1.225-47.783,1.225-47.783V282.014c-3.776,7.368-8.5,16.537-13.477,25.729-14.332,26.471-48.987,36.961-31.856-8.576,7.147-19.047,15.827-43.263,22.054-61.261,5.784-16.69,13.286-36.546,26.955-42.882h0Z" transform="translate(260.893 126.365)" fill="#9d7660" fill-rule="evenodd"/>
    <path id="Pfad_243" data-name="Pfad 243" d="M387.594,314.72h30.63a41.818,41.818,0,0,1,7.351,4.9c1.039,1.156.624,2.252,0,3.676-.276.682.35-.774,0,0-.083.2.181,1.1,0,1.225H426.8l2.45-1.225h0a3.189,3.189,0,0,1,1.225-2.45l14.7-6.126H592.2l13.477,6.126c.932.8,2.252,1.239,2.45,2.45h0l1.225,1.225h1.225c-.127-.112.068-1.07,0-1.225h0c-.624-1.424-1.039-2.519,0-3.676a42.7,42.7,0,0,1,7.351-4.9h30.63l3.676,9.8c1.326,3.095-1.714,3.362-2.45,3.676l-2.45,1.225c-1.529.645-1.225,1.225-1.225,1.225a100.231,100.231,0,0,0,8.577,8.577,34.864,34.864,0,0,1,8.576,12.252c2.119,4.955,14.491,34.445,15.928,37.982a6.354,6.354,0,0,1,0,4.9H663.266l-4.9-12.252c-1.363-3.168-18.151-15.736-34.306-24.5a2.272,2.272,0,0,1-1.225-2.45c0-.184,1.133-.986,1.225-1.225-5.655-1.6-15.1-3.317-20.829-4.9-.811,1.326-1.4,1.428-2.45,1.225-2.616-.387-39.389-8.615-82.089-18.378-42.7,9.763-80.717,17.991-83.315,18.378-1.068.166-1.64.046-2.45-1.225-6.024,1.6-15.376,3.39-20.829,4.9,0,.24,1.133,1.041,1.225,1.225a2.3,2.3,0,0,1-1.225,2.45c-16.155,8.695-32.961,21.262-34.306,24.5l-4.9,12.252H356.963a6.259,6.259,0,0,1,0-4.9c1.51-3.537,13.828-33.026,15.928-37.982a35.339,35.339,0,0,1,8.577-12.252,97.286,97.286,0,0,0,8.576-8.577s.3-.581-1.225-1.225l-2.45-1.225c-.737-.313-3.758-.581-2.45-3.676Z" transform="translate(237.71 239.459)" fill="#9d7660" fill-rule="evenodd"/>
    <path id="Pfad_244" data-name="Pfad 244" d="M439.169,256.965s-9.822,21.5-22.054,44.108c-14.332,26.471-50.212,36.961-33.081-8.577,7.147-19.047,15.809-43.263,22.054-61.261,5.784-16.69,14.511-36.546,28.18-42.882C434.268,188.353,455.951,194.241,439.169,256.965Z" transform="translate(257.197 133.035)" fill="#0294ff" fill-rule="evenodd"/>
    <path id="Pfad_245" data-name="Pfad 245" d="M439.169,246.483s-9.822,21.523-22.054,44.108c-14.332,26.471-50.212,36.961-33.081-8.577.295-.811.912-1.64,1.225-2.45,12.618,1.4,22.423-5.7,26.955-15.928,5.176-11.642,23.279-62.486,23.279-62.486h9.8C445.94,211.319,444.659,225.87,439.169,246.483Z" transform="translate(257.197 143.517)" fill="#0e65a5" fill-rule="evenodd"/>
    <path id="Pfad_246" data-name="Pfad 246" d="M471.895,256.965s11.047,21.5,23.279,44.108c14.332,26.471,48.987,36.961,31.856-8.577-7.166-19.047-15.736-43.263-22.054-61.261-5.784-16.69-14.493-36.546-28.18-42.882C476.887,188.353,455.223,194.241,471.895,256.965Z" transform="translate(329.84 133.035)" fill="#0294ff" fill-rule="evenodd"/>
    <path id="Pfad_247" data-name="Pfad 247" d="M471.9,256.965s11.047,21.523,23.279,44.108c14.332,26.471,48.987,36.961,31.856-8.576-.479-1.228-.746-2.362-1.225-3.676-11.053.774-24.063-8.5-26.955-15.928-3.684-9.321-13.257-40.748-18.378-60.035A37.239,37.239,0,0,1,481.7,190.8a32.431,32.431,0,0,0-4.9-2.45S455.226,194.241,471.9,256.965Z" transform="translate(329.838 133.035)" fill="#0e65a5" fill-rule="evenodd"/>
    <path id="Pfad_248" data-name="Pfad 248" d="M472.643,151.038l-1.225,13.477v31.856c0,2.008,2.792,4.9,6.126,7.351,0,33.821-50.234,36.419-50.234,0,3.3-2.524,4.9-5.417,4.9-7.351V151.038s8.5,2.488,18.378,4.9h2.45C462.913,153.526,472.643,151.038,472.643,151.038Z" transform="translate(297.236 101.738)" fill="#e8685b" fill-rule="evenodd"/>
    <path id="Pfad_249" data-name="Pfad 249" d="M469.7,383.119h0c29.234.258,48.734-4.358,58.81-8.576-.258-1.842-1-4.468-1.225-6.126,0,0,5.389-5.924,6.126-8.576s-2.45-64.936-2.45-64.936l1.225-7.351c.276-3.905-.276-8.034,0-12.252l1.225-15.928a355.819,355.819,0,0,0-6.126-63.711h0l-31.856-15.928h0c-2.395,9.008-13.424,15.928-25.729,15.928s-22.128-6.92-24.5-15.928h0l-33.081,15.928h0a354.734,354.734,0,0,0-6.126,63.711l1.225,15.928c.276,4.218.949,8.347,1.225,12.252V294.9s-3.15,62.265-2.45,64.936,6.126,8.576,6.126,8.576c-.221,1.676.258,4.247,0,6.126,10.058,4.218,28.351,8.834,57.585,8.576Z" transform="translate(279.352 125.727)" fill="#fff" fill-rule="evenodd"/>
    <path id="Pfad_251" data-name="Pfad 251" d="M442.778,383.119h0c29.234.258,48.734-4.358,58.81-8.576-.258-1.842-1-4.468-1.225-6.126,0,0,5.389-5.924,6.126-8.576s-2.45-64.936-2.45-64.936l1.225-7.351c.276-3.905-.276-8.034,0-12.252l1.225-15.928a355.819,355.819,0,0,0-6.126-63.711h0l-31.856-15.928h0c-1.676,6.3-7.334,12.142-14.7,14.7,9.045,8.013,22.5,19.7,24.5,22.054,3.113,3.684,6.126,16.837,6.126,55.135v66.161c0,18.126-13.068,40.4-46.558,45.333Z" transform="translate(306.272 125.727)" fill="#e3edf2" fill-rule="evenodd"/>
    <path id="Pfad_252" data-name="Pfad 252" d="M486.97,183.414l-6.126-3.676h0c-2.395,9.008-13.424,15.928-25.729,15.928s-22.128-6.92-24.5-15.928h0l-7.351,3.676c4.4,13.245,18.592,19.6,31.856,19.6S482.549,196.733,486.97,183.414Z" transform="translate(293.936 125.722)" fill="#287dbb" fill-rule="evenodd"/>
    <path id="Pfad_253" data-name="Pfad 253" d="M494.685,267.949v-8.577c0-17.426,5.076-32.668,3.676-44.108-.932-7.186-4.841-14.322-9.8-19.6h0L456.7,179.734h0c-.765,2.755-2.943,5.267-4.9,7.351l3.676,3.676c7.221,3.772,15.247,7.776,22.054,12.252C483.888,207.637,494.685,220.994,494.685,267.949Z" transform="translate(318.076 125.727)" fill="#46ccff" fill-rule="evenodd"/>
    <path id="Pfad_254" data-name="Pfad 254" d="M494.68,267.949v-8.576a167.24,167.24,0,0,1,2.45-23.279c-1.64-5.692-3.667-11.175-4.9-15.928a36.339,36.339,0,0,1,0-19.6,29.61,29.61,0,0,0-3.676-4.9h0L456.7,179.734h0c-.765,2.755-2.943,5.267-4.9,7.351l3.676,3.676c7.221,3.772,15.247,7.776,22.054,12.252C483.864,207.637,494.68,220.994,494.68,267.949Z" transform="translate(318.081 125.727)" fill="#0e65a5" fill-rule="evenodd"/>
    <path id="Pfad_255" data-name="Pfad 255" d="M467.477,183.414l-6.126-3.676h0c-1.676,6.3-7.334,12.142-14.7,14.7l6.126,4.9A26.75,26.75,0,0,0,467.477,183.414Z" transform="translate(313.429 125.722)" fill="#0e65a5" fill-rule="evenodd"/>
    <path id="Pfad_256" data-name="Pfad 256" d="M634.6,274.188s-104.609,20.829-133.548,20.829-133.548-20.829-133.548-20.829l4.9,20.829,128.647,36.756L629.7,295.016Z" transform="translate(246.771 205.253)" fill="#01020e" fill-rule="evenodd"/>
    <path id="Pfad_257" data-name="Pfad 257" d="M394.84,321.809l4.9-1.225s7.462-1.714,9.8-2.45,8.835,1.347,11.027,12.252-3.5,13.1-9.8,14.7-29.405,7.351-29.405,7.351S369.622,322.306,394.84,321.809Z" transform="translate(256.193 242.172)" fill="#ef8871" fill-rule="evenodd"/>
    <path id="Pfad_258" data-name="Pfad 258" d="M392.6,353.973s204.152-73.357,214.412-77.188,24.127-5.249,28.18,7.351,7.391,42-30.63,52.684S404.271,383.756,398.726,384.6s-7.849-22.681-7.351-26.955C391.573,356.437,391.668,354.772,392.6,353.973Z" transform="translate(267.01 205.107)" fill="#0f1630" fill-rule="evenodd"/>
    <path id="Pfad_259" data-name="Pfad 259" d="M392.62,343.771l104.143-36.756c4.145,3.684,12.706,7.849,28.18,12.252,30.966,8.768,69.131-2.93,88.215-7.351,18.679-4.347,24.67-21.327,24.5-25.729.718,13.982-4.51,32.419-33.081,40.432-38,10.684-200.291,46.936-205.836,47.783s-7.849-22.681-7.351-26.955C391.613,346.225,391.661,344.558,392.62,343.771Z" transform="translate(266.99 215.309)" fill="#01020e" fill-rule="evenodd"/>
    <path id="Pfad_260" data-name="Pfad 260" d="M504.564,321.809l-4.9-1.225s-7.444-1.714-9.8-2.45-8.835,1.347-11.027,12.252,3.5,13.1,9.8,14.7,30.63,8.576,30.63,8.576S534.056,324.443,504.564,321.809Z" transform="translate(340.053 242.172)" fill="#ef8871" fill-rule="evenodd"/>
    <path id="Pfad_261" data-name="Pfad 261" d="M599.827,353.973s-204.152-73.357-214.412-77.188-24.109-5.249-28.18,7.351-7.391,42,30.63,52.684S588.156,383.756,593.7,384.6s7.83-22.681,7.351-26.955C600.846,356.44,600.752,354.777,599.827,353.973Z" transform="translate(236.214 205.107)" fill="#0f1630" fill-rule="evenodd"/>
    <path id="Pfad_262" data-name="Pfad 262" d="M356.044,281.532c-3.316,13.816-3.108,39.19,31.856,49.009,38,10.684,200.291,46.936,205.836,47.783,3.426.534,6.43-8.062,7.351-15.928-5.692,3.3-16.032,5.656-31.856,2.45-35-7.129-146.534-34.613-181.332-50.234C353.526,299.158,355.971,281.9,356.044,281.532Z" transform="translate(236.179 211.386)" fill="#01020e" fill-rule="evenodd"/>
    <path id="Pfad_263" data-name="Pfad 263" d="M423.325,149.9h0c-4.97,1.029-8.49,5.952-8.577,11.027s2.419,8.6,7.351,9.8,10-.352,12.252-4.9,1.494-10.284-2.45-13.477c.276,3.187.414,6.964-3.676,7.351v-6.126a3.171,3.171,0,0,0-1.225-2.45A6.184,6.184,0,0,0,423.325,149.9Z" transform="translate(286.519 100.424)" fill="#e8685b" fill-rule="evenodd"/>
    <path id="Pfad_264" data-name="Pfad 264" d="M467.444,149.9h1.225c4.965,1.063,8.527,5.95,8.577,11.027s-3.634,8.642-8.577,9.8-10.038-.332-12.252-4.9-1.523-10.317,2.45-13.477c-.276,3.187.83,6.964,4.9,7.351v-6.126a3.257,3.257,0,0,1,1.225-2.45C465.758,150.456,466.433,149.8,467.444,149.9Z" transform="translate(320.813 100.425)" fill="#e8685b" fill-rule="evenodd"/>
    <path id="Pfad_265" data-name="Pfad 265" d="M457.375,120.667h0a36.663,36.663,0,0,0-36.756,36.756V191.73a36.585,36.585,0,0,0,36.756,36.756h0a36.663,36.663,0,0,0,36.756-36.756V157.424A36.663,36.663,0,0,0,457.375,120.667Z" transform="translate(291.676 75.749)" fill="#f4ad85" fill-rule="evenodd"/>
    <path id="Pfad_266" data-name="Pfad 266" d="M457.375,120.672h0a36.663,36.663,0,0,0-36.756,36.756v34.306c0,7.654,2.908,14.589,7.351,20.829h0V177.032c-.026-.589-.417-.808,0-1.225s1.861-.026,2.45,0c2.126.18,3.05-1.636,3.676-3.676,11.237,6.079,33.156,3.481,42.882-4.9,0,0,1.549,6.9,7.351,3.676,4.7-2.616,3.114-11.424,2.45-14.7l2.45-2.45a200.281,200.281,0,0,1-9.8-25.729A37.438,37.438,0,0,0,457.375,120.672ZM435.321,162.33c.184-5.968,2.571-7.351,6.126-7.351h14.7S442.542,155.919,435.321,162.33Zm20.829-7.351h19.6a23.376,23.376,0,0,1,3.676,0Z" transform="translate(291.676 75.744)" fill="#ef8871" fill-rule="evenodd"/>
    <path id="Pfad_267" data-name="Pfad 267" d="M453.93,162.364c-1.977-.045-2.881,1.865-3.676,3.676s-1.372,3.476,0,4.9a6.326,6.326,0,0,0,6.126,1.225c1.84-.725,2.42-2.923,2.45-4.9A4.945,4.945,0,0,0,453.93,162.364Z" transform="translate(315.95 111.241)" fill="#e8685b" fill-rule="evenodd"/>
    <path id="Pfad_268" data-name="Pfad 268" d="M431.521,162.581c-1.977-.045-4.106.639-4.9,2.45s-.146,3.476,1.225,4.9a6.326,6.326,0,0,0,6.126,1.225c1.84-.725,2.42-1.7,2.45-3.676A4.945,4.945,0,0,0,431.521,162.581Z" transform="translate(296.701 111.024)" fill="#e8685b" fill-rule="evenodd"/>
    <path id="Pfad_269" data-name="Pfad 269" d="M452.452,155.763h0a4.089,4.089,0,0,1,3.676,3.676v3.676a4.089,4.089,0,0,1-3.676,3.676h0c-1.77,0-2.45-1.905-2.45-3.676v-3.676C450,157.668,450.682,155.763,452.452,155.763Z" transform="translate(316.202 105.59)" fill="#01020e" fill-rule="evenodd"/>
    <path id="Pfad_270" data-name="Pfad 270" d="M431.192,155.763h0c-1.77,0-2.45,1.905-2.45,3.676v3.676c0,1.77.68,3.676,2.45,3.676h0a4.089,4.089,0,0,0,3.676-3.676v-3.676A4.089,4.089,0,0,0,431.192,155.763Z" transform="translate(298.255 105.59)" fill="#01020e" fill-rule="evenodd"/>
    <path id="Pfad_271" data-name="Pfad 271" d="M443.757,148.318c-4,0-12.252,1.788-12.252,9.8s-1.06,14.7-6.126,14.7v6.126c0,3.482-.341,6.126-3.676,6.126,0-7.516-2.45-9.8-2.45-9.8V156.894c0-8.787,1.946-21.3,13.477-29.405a45.977,45.977,0,0,1,51.459,0c11.532,8.105,13.477,20.618,13.477,29.405v18.378s-2.45,2.286-2.45,9.8c-3.3,0-3.676-2.644-3.676-6.126v-6.126c-5.084,0-6.126-6.726-6.126-14.7s-8.255-9.8-12.252-9.8Z" transform="translate(290.591 75.053)" fill="#312a55" fill-rule="evenodd"/>
    <path id="Pfad_272" data-name="Pfad 272" d="M439.675,169.062a1.225,1.225,0,1,0-2.45,0,6.126,6.126,0,1,0,12.252,0,1.173,1.173,0,0,0-1.225-1.225c-.348,0,.243-.25,0,0s-1.235.877-1.225,1.225a4.332,4.332,0,0,1-3.676,3.676A3.67,3.67,0,0,1,439.675,169.062Z" transform="translate(305.7 115.57)" fill="#ed8068" fill-rule="evenodd"/>
    <path id="Pfad_273" data-name="Pfad 273" d="M509.647,349.6l-2.45-2.45c.052-4.878-1.638-8.624-4.9-12.252a31.247,31.247,0,0,0-11.027-8.577c-.545-.015-.959-.749-1.225-1.225-.313-.774.295.682,0,0-.609-1.428-1.037-2.519,0-3.676,1.492-1.566,12.511-8.19,19.6-8.577s7.351,2.45,7.351,2.45,2.129,14.943,8.576,22.054,12.252,13.477,12.252,13.477S522.008,356.765,509.647,349.6Z" transform="translate(349.672 237.661)" fill="#01020e" fill-rule="evenodd"/>
    <path id="Pfad_274" data-name="Pfad 274" d="M549.9,380.341l-2.45,2.45-3.676,1.225a4.521,4.521,0,0,1-6.126-2.45l-6.126-13.477c-1.345-3.168-16.925-16.961-33.081-25.729-.892-.324-1.38-.289-1.225-1.225.2-1.732,1.1-8.042,1.225-8.576s1.842-1.262,2.45-1.225l29.405,2.45S550.837,367.5,549.9,380.341Z" transform="translate(355.98 253.477)" fill="#0f1630" fill-rule="evenodd"/>
    <path id="Pfad_275" data-name="Pfad 275" d="M544.623,401.761c.532.279.643.149,1.225,0l2.45-1.225a4.991,4.991,0,0,0,1.225-6.126c-1.511-3.537-13.828-33.026-15.928-37.982a35.337,35.337,0,0,0-8.577-12.252,84.418,84.418,0,0,1-7.351-8.576s-1.529-.58,0-1.225l3.676-1.225c.737-.313,2.533-.581,1.225-3.676s-6.762-17.015-7.351-18.378-2.082-2.423-4.9-1.225l-7.351,2.45c-1.75.755-2.948,2.423-2.45,3.676l6.126,14.7c2.542,5.95,5.657,10,12.252,15.928a51.945,51.945,0,0,1,13.477,19.6l9.8,20.829C543.757,390.835,545.784,398.261,544.623,401.761Z" transform="translate(358.804 234.507)" fill="#fff" fill-rule="evenodd"/>
    <path id="Pfad_276" data-name="Pfad 276" d="M392.7,349.6l1.225-2.45c-.063-4.88,2.854-8.63,6.126-12.252a31.078,31.078,0,0,1,11.027-8.577c.541-.014.968-.749,1.225-1.225h0c.624-1.424-.186-2.519-1.225-3.676-1.492-1.566-11.268-8.19-18.378-8.577s-8.577,2.45-8.577,2.45-.9,14.943-7.351,22.054S363.3,350.824,363.3,350.824,380.342,356.765,392.7,349.6Z" transform="translate(243.628 237.661)" fill="#01020e" fill-rule="evenodd"/>
    <path id="Pfad_277" data-name="Pfad 277" d="M354.146,380.356l2.45,2.45,2.45,1.225c1.216.516,5.841,1.123,7.351-2.45s4.763-10.309,6.126-13.477,16.944-16.961,33.081-25.729c.9-.318,1.388-.288,1.225-1.225-.184-1.732-2.3-8.042-2.45-8.577s-.636-1.262-1.225-1.225l-30.63,2.45S353.225,367.516,354.146,380.356Z" transform="translate(235.627 253.462)" fill="#0f1630" fill-rule="evenodd"/>
    <path id="Pfad_278" data-name="Pfad 278" d="M358.385,401.764a4.717,4.717,0,0,1-2.45,0l-2.45-1.225a4.991,4.991,0,0,1-1.225-6.126l17.153-37.982a34.866,34.866,0,0,1,8.577-12.252,86.945,86.945,0,0,0,7.351-8.577s.3-.58-1.225-1.225l-2.45-1.225c-.737-.313-3.777-.581-2.45-3.676L387.79,311.1c.608-1.4,2.082-2.423,4.9-1.225l7.351,2.45c1.842.755,2.948,2.423,2.45,3.676s-3.6,8.752-6.126,14.7-6.9,10-13.477,15.928a52.207,52.207,0,0,0-13.477,19.6c-3.279,7.718-6.9,17.089-8.576,20.829S357.225,398.264,358.385,401.764Z" transform="translate(233.838 234.504)" fill="#fff" fill-rule="evenodd"/>
    <path id="Pfad_279" data-name="Pfad 279" d="M480.862,233.575s-9.415,12.777-9.8,13.477c0,0,22.432,31.46,25.729,35.531,11.053,13.742,43.9,5.1,17.153-19.6C502.245,252.148,480.862,233.575,480.862,233.575Z" transform="translate(334.35 171.128)" fill="#f4ad85" fill-rule="evenodd"/>
    <path id="Pfad_280" data-name="Pfad 280" d="M473.511,238.881a38.843,38.843,0,0,0-2.45,3.676c-.129.258,22.432,31.46,25.729,35.531,6.079,7.516,18.628,8.447,24.5,3.676-4.7,1.6-10.634.392-14.7-2.45-3.224-2.192-20.084-24.534-29.405-35.531C475.713,241.9,474.524,240.391,473.511,238.881Z" transform="translate(334.35 175.624)" fill="#ef8871" fill-rule="evenodd"/>
    <path id="Pfad_281" data-name="Pfad 281" d="M408.578,267.949l-1.225-8.577c0-17.426-3.85-32.668-2.45-44.108.943-7.186,3.614-14.321,8.577-19.6h0l33.081-15.928h0a16.73,16.73,0,0,0,3.676,7.351l-3.676,3.676a238.551,238.551,0,0,0-20.829,12.252C419.338,207.637,408.578,220.994,408.578,267.949Z" transform="translate(277.987 125.727)" fill="#0294ff" fill-rule="evenodd"/>
    <path id="Pfad_282" data-name="Pfad 282" d="M407.677,250.148l-1.225-8.576a130.041,130.041,0,0,0-1.225-17.153c3.224-8.805,6.007-16.96,7.351-20.829C409.372,213.188,407.677,228.061,407.677,250.148ZM413.8,201.14Z" transform="translate(278.888 143.527)" fill="#1c6263" fill-rule="evenodd"/>
    <path id="Pfad_283" data-name="Pfad 283" d="M424.214,233.575s9.4,12.777,9.8,13.477c0,0-21.188,31.46-24.5,35.531-11.053,13.742-45.107,5.1-18.378-19.6C402.9,252.148,424.214,233.575,424.214,233.575Z" transform="translate(258.675 171.128)" fill="#f4ad85" fill-rule="evenodd"/>
    <path id="Pfad_284" data-name="Pfad 284" d="M431.765,239.554A10.058,10.058,0,0,1,432.99,242c.111.184-21.188,31.46-24.5,35.531-6.466,8.013-20.406,8.29-25.729,2.45,6.826,3.344,15.3,2.767,20.829-2.45C412.059,270.038,426.828,247.235,431.765,239.554Z" transform="translate(259.7 176.176)" fill="#ef8871" fill-rule="evenodd"/>
    <rect id="Rechteck_79" data-name="Rechteck 79" width="34" height="4" rx="0.42" transform="translate(698.965 381.584)" fill="#fff"/>
    <path id="Pfad_285" data-name="Pfad 285" d="M502.363,205.054l-37.982,7.351c-1.907.443-3.617,1.719-3.676,3.676-.052-1.959-1.765-3.239-3.676-3.676l-36.756-7.351c-.836-.185-1.8.672-2.45,1.225s-1.268.37-1.225,1.225v66.161c.056,1.961,1.766,4.451,3.676,4.9l36.756,7.351c.294-1.61,2.039-3.676,3.676-3.676s3.381,2.066,3.676,3.676l37.982-7.351c1.913-.444,2.4-2.937,2.45-4.9V207.5c.051-.858.656-.671,0-1.225S503.2,204.861,502.363,205.054Z" transform="translate(288.344 146.964)" fill="#fff" fill-rule="evenodd"/>
    <path id="Pfad_286" data-name="Pfad 286" d="M487.633,207.04l-36.756,7.351c-1.777.551-3.486,1.825-3.676,3.676l-6.126,30.63,6.126,33.081c.332,1.842,1.889,4.007,3.676,3.676l36.756-7.351c1.86-.421,2.4-1.769,2.45-3.676V209.49c.042-.832.636-.687,0-1.225S488.447,206.861,487.633,207.04Z" transform="translate(309.201 148.654)" fill="#d14f6d" fill-rule="evenodd"/>
    <path id="Pfad_287" data-name="Pfad 287" d="M416.981,207.04l35.531,7.351a4.976,4.976,0,0,1,3.676,3.676l7.351,25.729-7.351,37.982c-.35,1.842-1.907,4.007-3.676,3.676L416.981,278.1c-1.86-.421-3.63-1.769-3.676-3.676V209.49c-.043-.832.589-.687,1.225-1.225S416.167,206.861,416.981,207.04Z" transform="translate(285.511 148.654)" fill="#f86083" fill-rule="evenodd"/>
    <rect id="Rechteck_80" data-name="Rechteck 80" width="14" height="70" rx="1.42" transform="translate(741.965 364.584)" fill="#9f3f55"/>
    <path id="Pfad_288" data-name="Pfad 288" d="M482.41,206.923,448.1,214.274c-1.86.422-3.63,1.769-3.676,3.676v57.585l35.531-7.351c1.858-.414,2.4-1.773,2.45-3.676Z" transform="translate(311.973 148.772)" fill="#f86083" fill-rule="evenodd"/>
    <path id="Pfad_290" data-name="Pfad 290" d="M447.62,210.412v58.81a3.518,3.518,0,0,1-1.225,2.45c-.633.539-1.638.181-2.45,0l-24.5-4.9-6.126-1.225v6.126c.046,1.907,1.815,3.254,3.676,3.676l35.531,7.351c.717.168,1.844-.808,2.45-1.225s1.125-.5,1.225-1.225c.01-.184.01-1.041,0-1.225V215.313h0c-.05-1.9-1.826-3.241-3.676-3.676Z" transform="translate(285.503 151.408)" fill="#d14f6d" fill-rule="evenodd"/>
    <path id="Pfad_291" data-name="Pfad 291" d="M439.208,213.846h6.126c.885,0,1.225.34,1.225,1.225v39.207c0,.875-.35,2.45-1.225,2.45h-6.126c-.885,0-1.225-1.565-1.225-2.45V215.071c0-.423-.3-.924,0-1.225S438.784,213.846,439.208,213.846Z" transform="translate(306.167 154.101)" fill="#d14f6d"/>
    <path id="Pfad_292" data-name="Pfad 292" d="M490.628,249.045s-5.205-3.621-6.126-6.126-.875-16.665-1.225-18.378-.5-4.293-2.45-4.9c-4.508-1.416-8.8-1.769-13.477-2.45-1.842,0-2.588,3.8,3.676,6.126l2.45,1.225H462.448c-1.658,0-1.437,3.206,0,4.9s2.764,2.9,7.351,3.676c0,0-6.1-.313-7.351,0-1.275.588-1.508,2.3-1.225,3.676.221,1.253,3.124,4.809,8.576,4.9-3.132.9-6.135,2.764-2.45,4.9,2.1.881,3.879,2.108,6.126,2.45v3.676l7.351,9.8Z" transform="translate(325.809 156.883)" fill="#f4ad85" fill-rule="evenodd"/>
    <path id="Pfad_293" data-name="Pfad 293" d="M461.215,226.873a4.548,4.548,0,0,0,0,1.225c.221,1.253,3.124,4.809,8.577,4.9,1.842-.811,3.04-2.9,2.45-3.676s-3.7,0-7.351,0S461.215,226.909,461.215,226.873Zm4.9,7.351c-1.161,1.234-1.041,2.4,1.225,3.676,2.1.881,3.879,2.108,6.126,2.45v3.676l7.351,9.8,2.45-3.676c-5.526-7.368-6.126-6.633-6.126-7.351,0-2.082.884-5.011,0-4.9a27.575,27.575,0,0,1-8.576-1.225C465.914,235.993,466.024,234.279,466.116,234.224Z" transform="translate(325.817 165.578)" fill="#ef8871" fill-rule="evenodd"/>
    <path id="Pfad_294" data-name="Pfad 294" d="M404.694,249.02a14.436,14.436,0,0,0,3.676-8.576c.682-5.287,2.1-14.307,2.45-15.928s.479-4.293,2.45-4.9c4.5-1.414,10.033-1.767,14.7-2.45,1.842,0,1.362,3.8-4.9,6.126l-2.45,1.225h11.027c1.658,0,1.437,3.206,0,4.9s-5.252,1.6-9.8,2.45c0,0,8.549,2.082,9.8,2.45,1.278.587,1.5,1.071,1.225,2.45-.24,1.253-1.9,4.809-7.351,4.9,1.124.313,5.389.525,6.126,1.225,4.734,4.55-11.027,4.882-11.027,4.9v4.9l-6.126,9.8Z" transform="translate(278.194 156.908)" fill="#f4ad85" fill-rule="evenodd"/>
    <path id="Pfad_295" data-name="Pfad 295" d="M429.323,227.134c.292.62.1.548,0,1.225-.24,1.253-1.9,4.809-7.351,4.9-.912-.209-2.8-.907-3.676-1.225-.368-.221-.755-1.133,2.45-1.225S429.581,229.713,429.323,227.134Zm-1.225,7.351c.976,1.05.377,2.773-1.225,3.676-1.842,1.068-9.8,1.207-9.8,1.225v4.9l-6.126,9.8-2.45-2.45c1.161-1.842,4.477-5.26,4.9-6.126,2.266-4.771.5-2.156,2.45-7.351.2-.516,1.355-.24,3.676,0S428.116,236.328,428.1,234.486Z" transform="translate(281.746 165.316)" fill="#ef8871" fill-rule="evenodd"/>
    <path id="Pfad_296" data-name="Pfad 296" d="M441.184,161.958s-1.354,2.313-1.225,3.676c.125.6.689.937,1.225,1.225s.66.225,1.225,0C443.773,166.528,442.253,160.356,441.184,161.958Z" transform="translate(307.866 110.421)" fill="#f8cab0" fill-rule="evenodd"/>
    <path id="Pfad_297" data-name="Pfad 297" d="M406.416,234.793c-.34-.1.354-.03,0,0-.21,0-1.067-.138-1.225,0h0c-.156.156.074,1.017,0,1.225h0a5.212,5.212,0,0,0,0,2.45,17.3,17.3,0,0,0,3.676,8.577,9.505,9.505,0,0,0,6.126,3.676,3.349,3.349,0,0,0,1.225,0c.231-.066-.152.186,0,0,.192-.259-.037-.9,0-1.225a3.062,3.062,0,0,0,0-1.225l2.45-2.45c.153.138-.052-.2,0,0a8.762,8.762,0,0,1,0,3.676c-.111.672.421,1.914,0,2.45a5.889,5.889,0,0,1-2.45,1.225,6.334,6.334,0,0,1-2.45,0,11.958,11.958,0,0,1-7.351-4.9,19.348,19.348,0,0,1-3.676-9.8,8.15,8.15,0,0,1,0-3.676c.19-.564.787-.822,1.225-1.225h0c.521-.434.549-1.181,1.225-1.225.881-.054,2.859-.333,3.676,0C408.473,233.068,406.929,234.146,406.416,234.793Z" transform="translate(276.473 169.91)" fill="#000618" fill-rule="evenodd"/>
    <path id="Pfad_298" data-name="Pfad 298" d="M429.049,156.848c-.646.319-2.129.645-2.45,0a1.723,1.723,0,0,1,0-1.225,3.373,3.373,0,0,1,1.225-1.225,11.592,11.592,0,0,1,11.027,0c.45.214-.007.727,0,1.225s.444,1,0,1.225a1.053,1.053,0,0,1-1.225,0A9.082,9.082,0,0,0,429.049,156.848Z" transform="translate(296.722 103.28)" fill="#01020e" fill-rule="evenodd"/>
    <path id="Pfad_299" data-name="Pfad 299" d="M450.258,156.823c-.638.272-2.142.621-2.45,0s.623-2.107,1.225-2.45a11.592,11.592,0,0,1,11.027,0c.45.214-.007.727,0,1.225s.444,1,0,1.225a1.052,1.052,0,0,1-1.225,0A9.048,9.048,0,0,0,450.258,156.823Z" transform="translate(314.72 103.305)" fill="#01020e" fill-rule="evenodd"/>
    <path id="Pfad_300" data-name="Pfad 300" d="M499.5,156.526c-4.513,29.161-18.93,19.38-11.027,7.351-64.474,42.24-95.155-47.4-58.81-26.955,18.421-25.79,60.7-32.937,64.936-2.45C502.081,114.172,517.648,147.076,499.5,156.526Z" transform="translate(286.304 70.521)" fill="#312a55" fill-rule="evenodd"/>
    <path id="Pfad_301" data-name="Pfad 301" d="M415.833,134.352c1.107-.454,2.484-1.34,3.676-1.225,7.092,11.053,22.36,20.542,37.982,12.252,12.287-6.54,14.988-21.18,15.928-30.63,7.589.9,13.708,4.027,17.153,11.027-5.029,15.732-22.408,37.87-46.558,30.63C426.9,151.3,419.02,141.2,415.833,134.352Z" transform="translate(287.884 70.641)" fill="#544c80" fill-rule="evenodd"/>
    <path id="Pfad_302" data-name="Pfad 302" d="M254.036,184a70.664,70.664,0,0,1,22.054-3.676h7.351a148,148,0,0,1,0,25.729c-.516,7.055-9.783,25.693-9.8,25.729h0a98.931,98.931,0,0,1,8.576,18.378l3.676,2.45c4.845,2.634,16.952,23.5,29.405,42.882s25.177,42.6,25.729,44.108a6.572,6.572,0,0,1,0,2.45H293.243l-14.7-56.36c-3.719,4.336-7.579,8.967-12.252,12.252-.774,0-1.225-1.225-1.225-1.225.5-15.179-21.41-19.468-29.405-37.982s4.9-40.432,4.9-40.432l2.45-11.027,13.477-17.153C255.8,188.246,254.919,185.79,254.036,184Z" transform="translate(133.577 126.365)" fill="#9d7660" fill-rule="evenodd"/>
    <path id="Pfad_303" data-name="Pfad 303" d="M305.029,314.7h79.639c8.621,20.263,21.825,52.541,33.081,79.639H372.416l-7.351-11.027a133.473,133.473,0,0,1-17.153-42.882,38.014,38.014,0,0,0-2.45-8.576c-10.426,22.713-23.437,49.3-29.405,62.486h-30.63l2.45-2.45c3.7-13.233,7.492-26.886,9.8-40.432C302.983,321.14,305.029,314.7,305.029,314.7Z" transform="translate(178.15 239.474)" fill="#9d7660" fill-rule="evenodd"/>
    <path id="Pfad_304" data-name="Pfad 304" d="M240.866,205.694l-3.676,11.027s-12.877,21.9-4.9,40.432,29.921,22.8,29.405,37.982c0,0,.507,1.225,1.225,1.225s15.025-12.981,15.928-18.378,11.318-14.4-8.577-47.783l-12.252-47.783Z" transform="translate(130.818 127.947)" fill="#01020e" fill-rule="evenodd"/>
    <path id="Pfad_305" data-name="Pfad 305" d="M298.1,333.915s22.4,12.289,25.729,14.7,5.675,6.892,7.351,14.7A133.339,133.339,0,0,0,348.33,406.2c11.624,19.084,46.558,77.188,46.558,77.188v3.676l4.9,3.676,15.928-3.676c1.045-1.212.711-2.242,0-3.676-1.105-2.763-7.112-20.829-7.351-20.829S364.57,328.3,359.357,317.987s-22.01-21.116-33.081-29.405S298.1,333.915,298.1,333.915Z" transform="translate(188.758 216.588)" fill="#f4ad85" fill-rule="evenodd"/>
    <path id="Pfad_306" data-name="Pfad 306" d="M298.1,333.905s22.4,12.289,25.729,14.7,5.675,6.892,7.351,14.7a133.338,133.338,0,0,0,17.153,42.882c11.624,19.084,46.558,77.188,46.558,77.188v3.676l4.9,3.676,20.829,3.676c-4.826-10.887-8.034-22.875-12.252-33.081-9.671,2.966-5.614,14.063-25.729-11.027s-39.327-81.769-40.432-93.116,3.115-29.959,7.351-34.306c1.842-1.842,6.44-2.653,11.027-2.45-.571-1.253-.949-1.9-1.225-2.45-5.268-10.3-22.01-21.116-33.081-29.405S298.1,333.905,298.1,333.905Z" transform="translate(188.758 216.598)" fill="#ef8871" fill-rule="evenodd"/>
    <path id="Pfad_307" data-name="Pfad 307" d="M374.621,325.881c-6.632,14.737-42.754,93.818-47.783,105.368a134.883,134.883,0,0,0-7.351,24.5l-12.252,9.8-11.027-6.126-6.126-9.8,2.45-13.477,8.577-8.577c2.855-9.8,5.666-28.7,8.576-45.333,5.324-30.211,7.351-36.756,7.351-36.756H270.478l-7.351-25.729L276.6,287.9l20.829-9.8c19.674.332,34.217,1.225,53.909,1.225C362.395,279.379,392.748,288.947,374.621,325.881Z" transform="translate(158.792 208.694)" fill="#f4ad85" fill-rule="evenodd"/>
    <path id="Pfad_308" data-name="Pfad 308" d="M320.712,447.177a29.275,29.275,0,0,0-1.225,8.577l-12.252,9.8-11.027-6.126-6.126-9.8,2.45-14.7,8.577-8.576c2.855-9.8,5.666-27.473,8.576-44.108,5.324-30.211,7.351-36.756,7.351-36.756H270.478l-7.351-25.729L276.6,287.9l20.829-9.8c10.611.184,27.712,1.188,36.756,1.225h0a33.331,33.331,0,0,0-17.153,11.027c-7.368,9.118-15.523,29.369-15.928,31.856s.167,7.351,7.351,7.351h11.027c1.382,0,11.507-14.666,15.928-17.153s.893.647-3.676,12.252-16.822,74.207-22.054,91.891C304.84,432.795,300.559,443.475,320.712,447.177Z" transform="translate(158.792 208.694)" fill="#ef8871" fill-rule="evenodd"/>
    <path id="Pfad_309" data-name="Pfad 309" d="M249.156,214.3s12.308,7.168,17.153,9.8,16.971,23.5,29.405,42.882,25.177,42.6,25.729,44.108c.193,1.678.556,3.306,0,4.9l-6.126,4.9-40.432-1.225Z" transform="translate(147.033 154.869)" fill="#fff" fill-rule="evenodd"/>
    <path id="Pfad_310" data-name="Pfad 310" d="M249.156,214.3s12.308,7.168,17.153,9.8a12.75,12.75,0,0,1,3.676,3.676,29.2,29.2,0,0,0,0,11.027c2.211,9.542,25.26,48.512,29.405,53.909,2.505,3.242,7.978,1.962,12.252,1.225,5.526,9.211,9.507,16.361,9.8,17.153.193,1.678.556,3.306,0,4.9l-6.126,4.9-40.432-1.225Z" transform="translate(147.033 154.869)" fill="#e3edf2" fill-rule="evenodd"/>
    <path id="Pfad_311" data-name="Pfad 311" d="M225.875,152.384s-15.238,9.757-19.6,15.928-.341,25.483-1.225,39.207-9.092,25.556-8.576,34.306,6.488,31.544,24.5,44.108,35.531-56.36,35.531-56.36l-30.63-74.738Z" transform="translate(102.927 102.843)" fill="#312a55" fill-rule="evenodd"/>
    <path id="Pfad_312" data-name="Pfad 312" d="M240.923,210.754,229.9,208.3s-15.2,1.64-22.054,4.9-8.576,18.473-8.576,33.081,31.856,22.177,31.856,40.432c0,27.392,1.5,82.756,15.928,101.693,10.39,13.632,16.787,17.153,31.856,17.153h56.36a5.552,5.552,0,0,0,4.9-3.676c1.584-3.887,14.819-63.711,49.009-63.711,0,0-1.217-3.676-7.351-3.676h-19.6c-6.963,0-29.433-10.881-33.081-20.829s2.92-20.628-1.225-33.081-31.221-55.375-35.531-60.035-26.955-7.351-26.955-7.351Z" transform="translate(105.032 149.841)" fill="#f2c369" fill-rule="evenodd"/>
    <path id="Pfad_313" data-name="Pfad 313" d="M234.8,209.528l-4.9-1.225s-15.2,1.64-22.054,4.9-8.576,18.473-8.576,33.081,22.054,23.4,22.054,41.657,5.335,65.722,13.477,83.315,23.844,34.306,44.108,34.306h56.36a8.244,8.244,0,0,0,4.9-3.676,264.364,264.364,0,0,1,8.577-25.729h0c-3.684,7.811-12.014,11.027-19.6,11.027H282.581c-19.655,0-26.475-16.916-22.054-31.856s20.619-18.378,34.306-18.378,32.171,1.225,46.558,1.225,14.7-1.225,14.7-1.225l2.45-2.45h-4.9c-6.705,0-20.3-10.08-24.5-19.6h0c-.166-.368.129.35,0,0-3.684-9.966,2.92-21.853-1.225-34.306-2.174,7.939-15.691,10.843-30.63,13.477s-15.928-1.225-15.928-1.225l-20.829,4.9-14.7-17.153s-26.558-48.945-25.729-52.684,14.7-15.928,14.7-15.928C234.834,211.279,234.834,210.136,234.8,209.528Z" transform="translate(105.032 149.841)" fill="#d4aa5b" fill-rule="evenodd"/>
    <path id="Pfad_314" data-name="Pfad 314" d="M229.727,210.754,218.7,208.3a34.352,34.352,0,0,1-6.126,1.225v1.225c1.9,9.586,8.313,16.664,17.153,20.829,7.706,3.7,16.113,3.432,23.279-1.225a21.011,21.011,0,0,0,8.576-15.928l-7.351-1.225Z" transform="translate(116.228 149.841)" fill="#fff" fill-rule="evenodd"/>
    <path id="Pfad_315" data-name="Pfad 315" d="M223.6,209.528l-4.9-1.225a34.349,34.349,0,0,1-6.126,1.225v1.225c.693,3.075.967,5.8,2.45,8.576a74.936,74.936,0,0,1,8.576-7.351C223.62,211.353,223.638,210.136,223.6,209.528Z" transform="translate(116.228 149.841)" fill="#e3edf2" fill-rule="evenodd"/>
    <path id="Pfad_316" data-name="Pfad 316" d="M215.585,218.962l6.126-2.45c1.175-.939,1.133-2.175,1.225-3.676V195.683h9.8l12.252,1.225,2.45,1.225-1.225,3.676v17.153c.081,1.156.372,2.892,1.225,3.676.46.405,3.676,2.45,3.676,2.45C249.846,243.951,221,242.522,215.585,218.962Z" transform="translate(119.343 139.183)" fill="#eb6b5d" fill-rule="evenodd"/>
    <path id="Pfad_317" data-name="Pfad 317" d="M209.71,177.194h-1.225c-4.624.981-7.29,5.075-7.351,9.8a9.585,9.585,0,0,0,7.351,9.8c4.6,1.1,10.165-.66,12.252-4.9s0-9.282-3.676-12.252c.258,3,.138,5.758-3.676,6.126v-4.9a4.332,4.332,0,0,0-3.676-3.676Z" transform="translate(106.84 123.365)" fill="#e8685b" fill-rule="evenodd"/>
    <path id="Pfad_318" data-name="Pfad 318" d="M251.116,177.194h0c4.624.981,8.515,5.075,8.576,9.8a9.585,9.585,0,0,1-7.351,9.8c-4.6,1.1-10.165-.66-12.252-4.9a9.924,9.924,0,0,1,2.45-12.252c-.258,3,1.088,5.758,4.9,6.126v-4.9a4.332,4.332,0,0,1,3.676-3.676Z" transform="translate(138.947 123.365)" fill="#e8685b" fill-rule="evenodd"/>
    <path id="Pfad_319" data-name="Pfad 319" d="M241.534,150.005h0a34.15,34.15,0,0,0-34.306,34.306v31.856a34.135,34.135,0,0,0,34.306,34.306h0a34.15,34.15,0,0,0,34.306-34.306V184.311A34.148,34.148,0,0,0,241.534,150.005Z" transform="translate(111.773 100.321)" fill="#f4ad85" fill-rule="evenodd"/>
    <path id="Pfad_320" data-name="Pfad 320" d="M221.93,152.419c-9.693,6.417-14.684,17.781-14.7,29.405V213.68a34.5,34.5,0,0,0,31.856,34.306c-27.853-5.268-25.729-40.432-25.729-40.432,6.263-3.868,5.444-11.645,6.126-19.6s6.126-6.126,6.126-6.126a82.685,82.685,0,0,0,28.18,1.225l1.225,3.676c2.947,9.358,13.856,20.057,17.153,30.63a28.329,28.329,0,0,1,1.225,9.8c1.994-4.443,2.453-8.607,2.45-13.477V181.824c-.03-11.48-5.211-22.948-14.7-29.405-12.195,1.842-25.04,3.97-34.306,1.225A44.538,44.538,0,0,0,221.93,152.419Z" transform="translate(111.773 102.808)" fill="#ef8871" fill-rule="evenodd"/>
    <path id="Pfad_321" data-name="Pfad 321" d="M222.235,193.089c-.193,4.955,4.847,9.608,9.8,9.8s8.383-4.847,8.576-9.8h0c.015-.41.28.3,0,0s-.815-1.211-1.225-1.225h-14.7c-.858-.031-1.185.368-1.225,1.225Z" transform="translate(124.945 135.651)" fill="#fff" fill-rule="evenodd"/>
    <path id="Pfad_322" data-name="Pfad 322" d="M224.4,197.645a8.2,8.2,0,0,0,9.8,1.225,6.264,6.264,0,0,0-4.9-3.676A5.094,5.094,0,0,0,224.4,197.645Z" transform="translate(126.46 138.446)" fill="#fff" fill-rule="evenodd"/>
    <path id="Pfad_323" data-name="Pfad 323" d="M238.02,191.848H224.543a3.364,3.364,0,0,0,1.225,3.676c1.253.461,11.515-.47,12.252-1.225C238.412,193.426,238.11,192.8,238.02,191.848Z" transform="translate(126.313 135.667)" fill="#fff" fill-rule="evenodd"/>
    <path id="Pfad_324" data-name="Pfad 324" d="M240.639,188.565c-1.85-.045-4.155.756-4.9,2.45a4.909,4.909,0,0,0,6.126,6.126c1.723-.677,3.645-3.05,3.676-4.9C245.581,189.732,243.148,188.626,240.639,188.565Z" transform="translate(135.947 132.823)" fill="#e8685b" fill-rule="evenodd"/>
    <path id="Pfad_325" data-name="Pfad 325" d="M219.287,187.772a5.158,5.158,0,0,0-4.9,4.9c-.051,2.522,2.379,3.625,4.9,3.676s4.85-1.153,4.9-3.676A5.155,5.155,0,0,0,219.287,187.772Z" transform="translate(118.092 132.391)" fill="#e8685b" fill-rule="evenodd"/>
    <path id="Pfad_326" data-name="Pfad 326" d="M216.772,180.3c-.611.229-2.161-.641-2.45-1.225s.673-.878,1.225-1.225a11.907,11.907,0,0,1,11.027,0c.289.175-.079-.328,0,0a2,2,0,0,1,0,1.225c-.172.287-.9,1.146-1.225,1.225s.285-1.05,0-1.225C222.695,177.708,219.4,178.876,216.772,180.3Z" transform="translate(118.156 122.707)" fill="#01020e" fill-rule="evenodd"/>
    <path id="Pfad_327" data-name="Pfad 327" d="M244.439,180.278a9.291,9.291,0,0,0-8.577,0,2.007,2.007,0,0,1-1.225,0c-.325-.08.172-.938,0-1.225-.354-.606-.6-.859,0-1.225a11.907,11.907,0,0,1,11.027,0c.58.339.3.625,0,1.225S245.056,180.543,244.439,180.278Z" transform="translate(134.597 122.732)" fill="#01020e" fill-rule="evenodd"/>
    <path id="Pfad_328" data-name="Pfad 328" d="M207.77,205.68v4.9c1.658,0,3.676-2.746,3.676-4.9v-4.9a25.63,25.63,0,0,0,3.676-12.252c0-6.466,1.807-9.8,7.351-9.8s10.522,2.45,19.6,2.45,14.077-2.45,19.6-2.45,7.351,3.336,7.351,9.8a25.63,25.63,0,0,0,3.676,12.252v4.9c0,2.155,1.981,4.9,3.676,4.9v-4.9a7.433,7.433,0,0,1,1.225-4.9v-14.7c0-49.424-71.062-49.424-71.062,0v14.7A7.474,7.474,0,0,1,207.77,205.68Z" transform="translate(111.23 99.78)" fill="#312a55" fill-rule="evenodd"/>
    <path id="Pfad_329" data-name="Pfad 329" d="M220.167,180.6h0c-.673.013-1.931-.429-2.45,0-.346-.075.169.311,0,0-.072-.164-1.047.012-1.225,0s.092-.153,0,0-.093-.153,0,0a3.66,3.66,0,0,0,1.225,1.225h0c-.487-.1-.914-.838-1.225-1.225a1.456,1.456,0,0,0-1.225,0,5.572,5.572,0,0,0,0,1.225c0,.125-.09-.087,0,0,.362.454.674,1.042,1.225,1.225h0c-.5-.031-.8-.954-1.225-1.225-.224-.142.142-.224,0,0s-.224,1.083,0,1.225c.448.284.7-.08,1.225,0v4.9c.01,1.654,2.022,2.44,3.676,2.45h0a2.158,2.158,0,0,0,2.45-2.45v-4.9c.016-.832.6-.646,0-1.225A3.914,3.914,0,0,0,220.167,180.6Z" transform="translate(118.437 126.086)" fill="#01020e" fill-rule="evenodd"/>
    <path id="Pfad_330" data-name="Pfad 330" d="M239.287,180.593h0c.673.014.7-.427,1.225,0,.344-.079,1.053.308,1.225,0,.051-.115-.12.039,0,0s-.109-.063,0,0,1.187-.122,1.225,0,.064-.111,0,0a3.5,3.5,0,0,1-1.225,1.225h0c.49-.1.9-.841,1.225-1.225.092-.167-.19-.018,0,0s1.166-.182,1.225,0-1.082,1.1-1.225,1.225c-.366.45-.676,1.037-1.225,1.225h0c.509-.033.791-.956,1.225-1.225a5.245,5.245,0,0,1,1.225,0c.121.028-.065-.107,0,0a5.206,5.206,0,0,1,0,1.225c-.028.124.108-.068,0,0-.448.284-.7-.08-1.225,0h-1.225v3.676c0,1.658-.792,3.676-2.45,3.676h0a4.306,4.306,0,0,1-3.676-3.676v-3.676c-.015-.819.644-.648,1.225-1.225A4.023,4.023,0,0,1,239.287,180.593Z" transform="translate(136.074 126.093)" fill="#01020e" fill-rule="evenodd"/>
    <path id="Pfad_331" data-name="Pfad 331" d="M230.663,185.97s-7.674-8.144-8.576-12.252,9.692-12.252,14.7-12.252c2.6,0,4.975,3.382,7.351,8.577,4.4,9.763,5.666,20.36,11.027,29.405,2.782,4.605,6.781,8.117,9.8,13.477,4.053,7.092,6.817,16.759,7.351,30.63S285.8,264.383,285.8,264.383s9.286-18.656,9.8-25.729,2.772-29.619-3.676-40.432-33.229-52.353-40.432-55.135-24.092-2.024-37.982,12.252a9.888,9.888,0,0,0-2.45,7.351C211.3,167.738,215.945,178.693,230.663,185.97Z" transform="translate(115.292 93.761)" fill="#1d1837" fill-rule="evenodd"/>
    <path id="Pfad_332" data-name="Pfad 332" d="M278.963,225.935v-6.126c-13.576-6.005-35.512-21.259-30.63-60.035-6.374-8.9-11.866-16.048-14.7-17.153h-1.225c-1.032,14.737-.173,38.021,11.027,55.135C253.048,212.6,268.132,221.366,278.963,225.935Z" transform="translate(133.154 94.228)" fill="#453e6b" fill-rule="evenodd"/>
    <path id="Pfad_333" data-name="Pfad 333" d="M358.079,433.9s-8.576-.757-8.576-7.351V405.717a2.966,2.966,0,0,1,2.45-3.676s1.051,3.676,7.351,3.676,14.049-12.861,15.928-14.7c.951-1.1,2.224-2.54,3.676-2.45h6.126c2.542,0,3.75,1.226,8.577,6.126s20.682,18.111,28.18,19.6,18.406,2.645,19.6,6.126,2.411,13.477-12.252,13.477Z" transform="translate(231.693 301.613)" fill="#1b1f23" fill-rule="evenodd"/>
    <path id="Pfad_334" data-name="Pfad 334" d="M262.918,337.864c-2.892.682-11.7,3.083-34.306-15.928S194.1,278.848,191.855,257s6.173-34.482,12.252-40.432a21.918,21.918,0,0,1,12.252-6.126s-7.975,5.669,7.351,25.729,40.313,49.525,41.657,51.459c-6.89,2.653-6.153,42.736,0,47.783C265.35,335.506,266.657,336.464,262.918,337.864Z" transform="translate(98.965 151.378)" fill="#fff" fill-rule="evenodd"/>
    <path id="Pfad_335" data-name="Pfad 335" d="M262.918,337.864c-2.892.682-11.7,3.083-34.306-15.928S194.1,278.848,191.855,257s6.173-34.482,12.252-40.432a21.918,21.918,0,0,1,12.252-6.126s-6.1,5.014,2.45,19.6h0c-2.938-2.862-7.32-4.205-11.027-2.45-6.632,3.04-13.649,19.157,4.9,50.234s40.432,29.405,40.432,29.405a48.4,48.4,0,0,0,7.351,2.45c0,11.053,2.976,23.132,6.126,25.729C266.483,335.525,266.657,336.464,262.918,337.864Z" transform="translate(98.965 151.378)" fill="#e3edf2" fill-rule="evenodd"/>
    <path id="Pfad_336" data-name="Pfad 336" d="M256.348,202.467h-3.676c-.275,0,.2,1.033,0,1.225h0l-29.405-2.45c-.767-.068-1.885-.523-2.45,0a4.132,4.132,0,0,0-1.225,2.45V242.9c.03,1.667,2.016,3.517,3.676,3.676l29.405,2.45c.2.018-.2.018,0,0h3.676a4.486,4.486,0,0,0,1.225,0l24.5-8.577a3.54,3.54,0,0,0,2.45-2.45V196.341c.054-.478-.853-.92-1.225-1.225s-.767-.147-1.225,0l-24.5,7.351A4.911,4.911,0,0,0,256.348,202.467Z" transform="translate(122.688 138.524)" fill="#fff" fill-rule="evenodd"/>
    <path id="Pfad_337" data-name="Pfad 337" d="M268.289,195.729l-25.729,8.577c-1.455.442-3.676,1.382-3.676,2.45v45.333c0,1.068,2.22,1.649,3.676,1.225l25.729-8.577c1.455-.442,2.45-1.382,2.45-2.45V196.954C270.739,195.941,269.744,195.287,268.289,195.729Z" transform="translate(138.927 139.137)" fill="#0294ff" fill-rule="evenodd"/>
    <path id="Pfad_338" data-name="Pfad 338" d="M221.732,199.071l31.856,2.45c1.8.178,2.422,1.869,2.45,3.676V248.08c.014.835.611.656,0,1.225a3.842,3.842,0,0,1-2.45,1.225l-31.856-2.45c-1.795-.169-2.421-1.873-2.45-3.676V201.522c-.014-.834-.612-.659,0-1.225A3.834,3.834,0,0,1,221.732,199.071Z" transform="translate(121.773 141.921)" fill="#0294ff" fill-rule="evenodd"/>
    <rect id="Rechteck_81" data-name="Rechteck 81" width="7" height="49" rx="0.62" transform="translate(374.965 343.584)" fill="#0d6fb8"/>
    <path id="Pfad_339" data-name="Pfad 339" d="M294.033,358.631H280.555c-5.872.259-11.183,5.151-11.027,11.027v62.486c0,10.684,6.071,16.14,8.577,19.6,2.373,3.063,7.152,4.921,11.027,4.9h11.027c2.837,0,4.9-1,4.9-7.351V432.144c0-5.029,1.769-9.9,4.9-18.378a44.572,44.572,0,0,0,3.676-20.829s-.332-3.676-2.45-3.676h-14.7c-4,0-7.351-3.843-7.351-15.928C291.546,368.9,292.915,363.557,294.033,358.631Z" transform="translate(164.642 276.412)" fill="#1b1f23" fill-rule="evenodd"/>
    <path id="Pfad_340" data-name="Pfad 340" d="M276.888,432.144V369.658c-.138-3.565.768-6.509,3.676-8.576a12.293,12.293,0,0,1,6.126-2.45h-6.126a12.3,12.3,0,0,0-6.126,2.45c-2.92,2.058-5.041,5.006-4.9,8.576v62.486a5.451,5.451,0,0,0,0,1.225c.774,9.395,6.237,15.173,8.577,18.378,2.373,3.063,7.152,4.921,11.027,4.9h6.126a12.279,12.279,0,0,1-9.8-4.9c-2.339-3.205-7.8-8.983-8.577-18.378A9.06,9.06,0,0,1,276.888,432.144Z" transform="translate(164.634 276.412)" fill="#fff" fill-rule="evenodd"/>
    <path id="Pfad_341" data-name="Pfad 341" d="M429.127,412.871H358.065s-8.576.45-8.576-6.126v4.9c0,5.526,6.421,7.3,8.576,7.351h71.062c14.5,0,13.431-8.7,12.252-12.252C440.237,410.024,437.84,412.871,429.127,412.871Z" transform="translate(231.708 316.513)" fill="#fff" fill-rule="evenodd"/>
    <path id="Pfad_342" data-name="Pfad 342" d="M255.462,312.849c9.561-12.176,2.45-85.765,2.45-85.765H241.984c-1.842,6.245-7.877,41.761-11.027,55.135-3.684,15.161-8.566,24.192-2.45,31.856C232.633,319.232,245.9,325.007,255.462,312.849Z" transform="translate(127.25 165.367)" fill="#ef8871" fill-rule="evenodd"/>
    <path id="Pfad_343" data-name="Pfad 343" d="M254.237,227.059H241.984c-.976,0-.746,2.838-1.225,4.9-2.689,11.753-7.112,38.85-9.8,50.234-3.684,15.161-8.566,25.418-2.45,33.081,1.869,2.133,3.435,2.781,6.126,3.676,2.947-1.087,2.055,1.611,8.576-6.126S254.237,227.059,254.237,227.059Z" transform="translate(127.25 165.392)" fill="#f4ad85" fill-rule="evenodd"/>
    <path id="Pfad_344" data-name="Pfad 344" d="M249.959,271.021c28.7-.995,39.843-7.95,45.333-8.576,37.542-4.237,27.661,29.405,11.027,29.405-4.955,0-58.939-3.8-58.81-4.9Z" transform="translate(146.23 194.942)" fill="#f4ad85" fill-rule="evenodd"/>
    <path id="Pfad_345" data-name="Pfad 345" d="M312.45,262.933c14.129,7.368,7.754,26.77-4.9,26.955-18.734.239-60.238-1.391-60.035-3.676l1.225-1.225c1.087-.184,3.141-7.139,3.676-6.126,1.345,3.039.59,5.555,4.9,6.126a183.535,183.535,0,0,0,46.558-1.225C318.279,281.238,312.671,263.1,312.45,262.933Z" transform="translate(146.225 195.68)" fill="#ef8871" fill-rule="evenodd"/>
    <path id="Pfad_346" data-name="Pfad 346" d="M258.463,265.072a5.24,5.24,0,0,0-3.676-3.676,86.125,86.125,0,0,0-13.477-1.225c-1.842.276-1.547,4.708,4.9,6.126l2.45,1.225s-6.919-.129-8.577,0-1.584,3.519,0,4.9,3.953,2.193,8.577,2.45c-3.082.1-6.747-.419-9.8,0a3.262,3.262,0,0,0-1.225,3.676c.35,1.105,4.349,4.191,9.8,3.676-3.058,1.179-7.526,4.652-3.676,6.126a37.129,37.129,0,0,0,7.351,1.225c1.253,0,4.422-1.225,4.9-1.225C264.376,282.162,261.89,275.075,258.463,265.072Z" transform="translate(137.726 193.54)" fill="#f4ad85" fill-rule="evenodd"/>
    <path id="Pfad_347" data-name="Pfad 347" d="M240.422,274.4c0,.811-.156,1.9,1.225,2.45A33.043,33.043,0,0,0,249,278.075h9.8l3.676-3.676C254.849,275.6,244.567,275.891,240.422,274.4Z" transform="translate(139.84 205.042)" fill="#ef8871" fill-rule="evenodd"/>
    <path id="Pfad_348" data-name="Pfad 348" d="M255.359,241.58c4.495-3.15,8.033-3.667,9.8-9.8s.313-7.416,0-8.577-2.45,0-2.45,0a5.738,5.738,0,0,0,0-2.45c-.108-.1.089.113,0,0-1.437-1.99-3.676,0-3.676,0a3.109,3.109,0,0,0-1.225-2.45c-1.271-.9-3.676,0-3.676,0a2.246,2.246,0,0,0-1.225-2.45c-.172-.088.193.01,0,0-6.024,3.168-6.339,18.369-14.7,19.6-5.526.866-9.636-.635-9.8,1.225-.221,2.468,10.787,7.388,11.027,7.351Z" transform="translate(129.803 155.771)" fill="#f4ad85" fill-rule="evenodd"/>
  </g>
</svg>
